<?xml version="1.0" encoding="utf-8"?>
<!-- Generator: Adobe Illustrator 15.1.0, SVG Export Plug-In . SVG Version: 6.00 Build 0)  -->
<!DOCTYPE svg PUBLIC "-//W3C//DTD SVG 1.1//EN" "http://www.w3.org/Graphics/SVG/1.1/DTD/svg11.dtd">
<svg version="1.1" id="Layer_1" xmlns="http://www.w3.org/2000/svg" xmlns:xlink="http://www.w3.org/1999/xlink" x="0px" y="0px"
	 width="1729.134px" height="1729.134px" viewBox="0 0 1729.134 1729.134" enable-background="new 0 0 1729.134 1729.134"
	 xml:space="preserve">
<g>
	<path fill="#AD8E64" d="M940.473,678.7c0,20.789-11.34,32.863-32.129,32.863c-7.979,0-12.914-1.785-13.754-4.724
		c-0.42-1.575-0.735-9.03-0.735-22.574v-14.804c0-8.61,0-17.324,0.631-25.829c3.254-0.735,6.929-1.155,10.813-1.155
		C928.293,642.477,940.473,655.602,940.473,678.7 M951.812,677.545c0-23.309-15.644-37.692-44.518-37.692
		c-5.88,0-12.074,0.63-18.374,1.995c-5.145-0.84-9.975-1.47-14.804-1.68v1.68c9.555,0.21,10.079,5.25,10.079,19.634v30.763
		c0,14.384-0.524,19.424-10.079,19.634v1.68c4.619-0.21,9.555-0.84,14.804-1.68c6.3,1.155,13.02,2.415,20.789,2.415
		C935.643,714.293,951.812,699.594,951.812,677.545z"/>
	<path fill="#AD8E64" d="M1038.537,641.847v-1.68c-2.73,0.105-6.51,0.525-11.55,1.575c-4.2-0.84-8.294-1.365-12.18-1.575v1.68
		c9.24,0.525,10.185,5.145,10.185,19.529v11.864c0,24.254-5.145,36.538-24.148,36.538c-9.029,0-15.435-3.465-19.109-10.079
		c-3.254-5.775-4.095-15.434-4.095-29.398c0-13.125,0.525-21.209,1.785-24.359c0.84-2.31,3.36-3.57,7.665-4.095v-1.68
		c-4.095,0.315-8.82,0.945-14.175,1.68c-5.354-0.84-10.184-1.47-14.698-1.68v1.68c9.449,0.525,9.869,5.25,9.869,18.794v16.799
		c0,10.919,0.734,19.319,4.619,25.828c4.515,7.56,13.335,11.55,25.934,11.55c22.154,0,30.764-13.439,30.764-40.633v-12.81
		C1029.402,646.887,1029.717,642.267,1038.537,641.847"/>
	<path fill="#AD8E64" d="M1141.956,713.558v-1.68h-0.315c-8.505,0-8.925-6.09-9.555-23.624l-0.84-25.409
		c-0.104-2.73-0.104-5.565-0.104-8.295c0-9.764,0-12.389,7.979-12.704v-1.68c-3.255,0.21-6.825,0.63-10.71,1.26
		c-1.995-0.63-3.359-0.84-3.885-0.84c-2.31,0-2.835,1.26-4.62,5.04c-5.564,12.074-13.334,30.133-24.778,53.232
		c-9.029-15.959-18.269-34.229-27.928-54.388c-1.47-2.939-2.205-4.515-3.885-4.515c-1.26,0-3.045,0.63-5.67,1.47
		c-4.095-0.735-7.979-1.155-11.55-1.26v1.68c9.765,0.63,10.08,2.835,10.08,13.229v1.89c0,6.72-0.735,18.164-2.1,34.018
		c-0.525,6.615-0.84,11.549-1.785,14.699c-1.155,4.305-2.835,5.564-8.609,6.195v1.68c3.885-0.315,7.979-0.84,12.284-1.575
		c4.305,0.84,8.399,1.47,12.494,1.575v-1.68c-9.029-0.21-9.869-3.675-9.869-14.489c0-4.725,0.314-19.844,1.995-45.252
		c11.234,21.104,21.418,41.473,30.657,61.421h1.995c2.939-7.14,12.074-28.034,28.453-62.261c0.42,9.134,0.63,14.174,0.63,15.434
		l0.525,20.264c0.104,3.045,0.104,6.825,0.104,11.339c0,9.975-0.63,13.544-7.979,13.544v1.68c4.199-0.21,8.609-0.735,13.334-1.47
		C1133.136,712.823,1137.65,713.348,1141.956,713.558"/>
	<path fill="#AD8E64" d="M1228.996,641.742v-1.68c-3.255,0.315-7.035,0.945-11.024,1.68c-4.305-0.84-8.295-1.47-11.864-1.68v1.68
		c3.675,0.525,6.09,1.365,7.454,3.465c2.101,3.255,2.205,14.822,2.205,35.016v17.674c-34.333-36.503-48.192-57.729-52.603-57.729
		c-0.84,0-2.414,0.42-4.619,1.155c-3.675-0.735-7.56-1.155-11.234-1.26v1.68c10.604,0.21,11.129,5.25,11.129,18.602v24.411
		c0,19.774-0.314,27.019-9.659,27.124v1.68c3.569-0.21,7.35-0.84,11.76-1.68c4.515,0.945,8.714,1.575,12.809,1.68v-1.68
		c-5.145-0.315-8.084-2.1-9.029-5.355c-1.155-4.112-1.575-14.734-1.575-31.866v-21.874c16.59,17.236,34.334,37.956,53.968,61.509
		l3.464,0.525c-0.104-2.625-0.314-4.095-0.314-4.515v-24.919c0-21.349,1.05-34.176,1.995-38.288
		C1222.801,643.527,1224.061,642.372,1228.996,641.742"/>
	<path fill="#AD8E64" d="M1265.849,713.558v-1.68c-9.239-0.315-9.975-5.145-9.975-19.109v-32.338
		c0-13.544,0.735-18.374,9.975-18.584v-1.68c-4.62,0.21-9.449,0.84-14.804,1.68c-5.25-0.84-10.29-1.47-14.909-1.68v1.68
		c9.344,0.315,10.079,5.25,10.079,19.214v31.708c0,13.859-0.735,18.793-10.079,19.109v1.68c4.515-0.21,9.449-0.84,14.909-1.68
		C1256.399,712.718,1261.334,713.348,1265.849,713.558"/>
	<path fill="#AD8E64" d="M851.2,791.92c0-13.653-10.332-21.77-30.134-21.77c-9.225,0-16.358,1.23-21.647,2.214
		c-5.166-0.984-10.085-1.599-15.251-1.845v1.968c11.193,0.369,11.808,6.272,11.808,23.123v35.915c0,16.85-0.615,22.754-11.808,23
		v1.968c5.658-0.246,11.439-0.984,17.465-1.968c6.519,1.107,12.792,1.722,18.941,1.968v-1.968
		c-6.519-0.615-10.085-1.722-11.316-4.551c-1.845-3.813-1.968-10.578-1.968-20.663v-36.283c0-9.84,0.123-16.235,0.246-18.941
		c2.583-0.369,5.166-0.615,7.379-0.615c15.867,0,23.738,7.379,23.738,21.401c0,11.807-6.888,19.31-18.326,19.31
		c-1.968,0-3.936-0.246-5.904-0.615l-1.107,2.583c2.952,0.861,5.781,0.984,8.855,0.984C838.532,817.134,851.2,806.679,851.2,791.92"
		/>
	<path fill="#AD8E64" d="M934.713,813.444c0,25.829-12.668,41.326-30.257,41.326c-17.588,0-30.257-15.497-30.257-41.326
		c0-25.829,12.669-41.203,30.257-41.203C922.045,772.241,934.713,787.615,934.713,813.444 M948.365,813.444
		c0-25.336-18.941-44.278-43.909-44.278s-43.786,18.818-43.786,44.278c0,25.46,18.818,44.524,43.786,44.524
		S948.365,838.904,948.365,813.444z"/>
	<path fill="#AD8E64" d="M1023.638,835.091h-2.46c-2.829,14.76-9.84,16.604-27.551,16.604c-13.775,0-13.898-1.722-13.898-17.957
		v-39.604c0-15.867,0.861-21.401,11.685-21.647v-1.968c-5.412,0.246-11.192,0.983-17.342,1.968
		c-6.273-0.984-12.054-1.722-17.466-1.968v1.968c11.438,0.246,11.685,6.519,11.685,24.353c0,3.567,0.123,6.15,0.123,7.995v17.342
		c0,2.706-0.123,4.551-0.123,5.535v2.214c0,18.08-0.246,24.476-11.685,24.599v1.968c5.166-0.246,10.455-0.861,15.989-1.845
		c7.872,1.476,17.343,1.845,28.658,1.845c3.936,0,7.256,0.123,9.962,0.123c7.134,0,9.963-0.492,9.963-3.567
		c0-0.861-0.492-1.968-1.107-3.444C1022.162,845.299,1023.146,840.503,1023.638,835.091"/>
	<path fill="#AD8E64" d="M1086.61,833.246c0-12.668-8.486-18.203-23.123-24.968c-13.283-6.149-20.786-10.7-20.786-20.909
		c0-8.609,6.52-15.128,16.358-15.128c10.946,0,18.08,6.026,19.433,16.727h2.706c0-3.075-0.369-7.011-0.983-11.562
		c1.106-2.214,1.968-4.305,2.337-6.519l-2.091-0.615c-0.492,1.229-1.107,1.476-2.337,1.476c-2.583,0-8.486-2.46-18.326-2.46
		c-16.235,0-26.936,9.717-26.936,23.123c0,11.685,7.503,17.465,21.4,23.861c14.514,6.642,22.262,10.332,22.262,22.508
		c0,8.855-7.256,16.112-18.694,16.112c-12.669,0-21.401-7.257-23.492-19.802h-2.46c0,3.936,0.369,7.995,1.107,12.054
		c-1.23,2.337-2.214,4.92-2.829,7.625l2.214,0.369c0.369-1.107,1.476-1.968,2.952-1.968c3.443,0,10.946,4.674,21.523,4.674
		C1075.295,857.845,1086.61,847.636,1086.61,833.246"/>
	<path fill="#AD8E64" d="M1131.749,856.492v-1.968c-10.823-0.369-11.685-6.027-11.685-22.385V794.38
		c0-15.251,0.861-21.155,10.578-22.016v-1.845c-4.92,0.369-10.209,1.106-16.235,1.968c-6.273-0.984-12.054-1.722-17.466-1.968v1.968
		c11.192,0.369,11.808,6.272,11.808,23.123v35.915c0,16.85-0.615,22.754-11.808,23v1.968c5.658-0.246,11.438-0.984,17.466-1.968
		C1120.68,855.508,1126.46,856.246,1131.749,856.492 M1187.711,856.492v-1.968c-0.737,0-1.353,0.123-2.091,0.123
		c-12.791,0-21.4-8.856-33.946-25.952l-15.989-22.017l17.712-18.08c9.225-9.593,15.374-15.989,25.828-16.235v-1.845
		c-4.059,0-8.117,0.615-12.668,1.599c-1.477-0.738-2.952-1.23-3.936-1.23c-1.846,0-3.444,1.722-6.396,5.166l-30.871,35.545
		c13.775,17.834,22.631,30.502,28.043,36.652c6.272,7.011,12.791,9.471,22.139,9.471
		C1178.241,857.722,1182.423,857.353,1187.711,856.492z"/>
	<path fill="#AD8E64" d="M1239.738,818.364c-3.69,0.123-7.257,0.123-10.578,0.123c-1.353,0-6.887,0-15.866-0.123
		c4.306-11.807,8.855-23.246,13.406-34.192C1231.374,795.979,1235.802,807.417,1239.738,818.364 M1275.037,856.492v-1.968
		c-4.92-0.369-8.24-1.845-10.085-4.674c-2.46-3.567-7.626-16.235-16.112-37.882l-16.728-42.802h-3.813l-17.712,42.556
		c-9.225,21.893-14.513,34.93-17.834,38.497c-2.583,2.829-5.903,4.059-10.7,4.305v1.968c4.428-0.246,9.348-0.984,14.882-1.968
		c5.289,0.984,10.209,1.722,14.637,1.968v-1.968c-5.903-0.246-8.486-1.599-8.486-5.289c0-2.952,2.091-10.332,6.519-21.401
		l2.214-5.658c7.011-0.123,12.053-0.246,15.251-0.246c2.091,0,6.765,0.123,14.268,0.246l2.952,8.118
		c3.813,10.455,5.534,16.973,5.534,19.187c0,3.198-2.952,4.797-8.979,5.043v1.968c4.674-0.123,9.84-0.738,15.128-1.599
		c-8.117,5.535-12.545,12.915-12.545,19.187c0,4.551,3.443,8.118,9.102,8.118c5.043,0,9.594-2.706,12.423-7.749l-1.723-1.599
		c-2.214,2.706-4.428,4.059-6.888,4.059c-3.443,0-5.903-2.46-5.903-6.888c0-4.797,7.134-15.497,10.331-15.005
		C1265.813,855.631,1270.609,856.246,1275.037,856.492z"/>
	<path fill="#AD8E64" d="M908.062,913.963c0-1.425-1.725-1.5-5.399-1.5h-2.025c-8.1,0-14.699,0.3-19.948,1.125
		c-3.375-0.6-6.524-1.05-9.524-1.125v1.2c6.975,0.15,7.124,3.975,7.124,14.85c0,2.174,0.075,3.749,0.075,4.874v10.574
		c0,1.65-0.075,2.775-0.075,3.375v1.351c0,11.023-0.149,14.924-7.124,14.998v1.2c3.3-0.149,6.899-0.6,10.648-1.2
		c4.125,0.676,7.875,1.125,11.325,1.2v-1.2h-0.525c-6.975,0-7.35-3.824-7.35-14.474v-9.675h8.774c6.6,0,9.225,0.075,9.6,4.725h1.5
		c0-1.874-0.375-3.899-0.825-6.074c0.525-2.024,0.9-3.899,1.05-5.624h-1.425c-0.6,4.274-3.149,4.35-10.499,4.35h-8.175v-13.05
		c0-2.324,0-5.175,0.15-8.549h8.549c8.325,0,11.399,0.824,12.075,8.399h1.424c0-0.9,0.075-1.575,0.075-2.175
		c0-1.726-0.225-3.601-0.524-5.625C907.687,915.163,908.062,914.713,908.062,913.963"/>
	<path fill="#AD8E64" d="M969.407,913.663v-1.2c-1.949,0.075-4.649,0.375-8.249,1.125c-3-0.6-5.925-0.975-8.699-1.125v1.2
		c6.6,0.375,7.274,3.675,7.274,13.949v8.475c0,17.323-3.675,26.099-17.249,26.099c-6.45,0-11.024-2.476-13.649-7.2
		c-2.325-4.124-2.925-11.024-2.925-20.998c0-9.375,0.375-15.149,1.275-17.399c0.6-1.649,2.399-2.55,5.475-2.925v-1.2
		c-2.925,0.226-6.3,0.675-10.125,1.2c-3.824-0.6-7.274-1.05-10.499-1.2v1.2c6.75,0.375,7.05,3.75,7.05,13.424v12
		c0,7.799,0.524,13.799,3.3,18.448c3.225,5.399,9.524,8.25,18.523,8.25c15.824,0,21.974-9.6,21.974-29.023v-9.149
		C962.883,917.263,963.108,913.963,969.407,913.663"/>
	<path fill="#AD8E64" d="M1031.054,913.588v-1.2c-2.325,0.226-5.024,0.676-7.874,1.2c-3.075-0.6-5.925-1.05-8.475-1.2v1.2
		c2.625,0.375,4.35,0.976,5.324,2.476c1.5,2.324,1.575,10.586,1.575,25.011v12.624c-24.523-26.073-34.423-41.235-37.573-41.235
		c-0.6,0-1.725,0.3-3.3,0.825c-2.624-0.525-5.399-0.825-8.024-0.9v1.2c7.574,0.15,7.949,3.75,7.949,13.287v17.437
		c0,14.124-0.225,19.299-6.899,19.373v1.2c2.55-0.149,5.25-0.6,8.4-1.2c3.225,0.676,6.225,1.125,9.149,1.2v-1.2
		c-3.675-0.225-5.775-1.499-6.45-3.824c-0.825-2.938-1.125-10.524-1.125-22.761v-15.624c11.85,12.312,24.523,27.11,38.548,43.935
		l2.475,0.375c-0.075-1.875-0.225-2.925-0.225-3.226v-17.798c0-15.249,0.75-24.411,1.425-27.349
		C1026.629,914.863,1027.529,914.038,1031.054,913.588"/>
	<path fill="#AD8E64" d="M1083.025,939.986c0,14.85-8.1,23.474-22.948,23.474c-5.7,0-9.225-1.274-9.825-3.375
		c-0.3-1.125-0.524-6.449-0.524-16.124v-10.574c0-6.149,0-12.374,0.45-18.448c2.324-0.525,4.949-0.825,7.725-0.825
		C1074.325,914.113,1083.025,923.487,1083.025,939.986 M1091.125,939.162c0-16.649-11.175-26.924-31.798-26.924
		c-4.2,0-8.625,0.45-13.124,1.425c-3.675-0.6-7.125-1.05-10.574-1.2v1.2c6.824,0.15,7.199,3.75,7.199,14.024v21.974
		c0,10.274-0.375,13.874-7.199,14.023v1.2c3.3-0.149,6.824-0.6,10.574-1.2c4.499,0.825,9.299,1.726,14.849,1.726
		C1079.575,965.41,1091.125,954.911,1091.125,939.162z"/>
	<path fill="#AD8E64" d="M1124.497,941.637c-2.249,0.075-4.425,0.075-6.449,0.075c-0.825,0-4.2,0-9.675-0.075
		c2.625-7.2,5.4-14.175,8.175-20.849C1119.398,927.987,1122.098,934.962,1124.497,941.637 M1146.021,964.885v-1.2
		c-3-0.225-5.025-1.125-6.15-2.85c-1.5-2.175-4.649-9.899-9.824-23.099l-10.199-26.099h-2.325l-10.799,25.949
		c-5.625,13.349-8.85,21.299-10.874,23.474c-1.575,1.725-3.601,2.475-6.525,2.624v1.2c2.7-0.149,5.7-0.6,9.075-1.2
		c3.225,0.601,6.225,1.051,8.924,1.2v-1.2c-3.6-0.149-5.175-0.975-5.175-3.225c0-1.8,1.275-6.299,3.975-13.049l1.351-3.45
		c4.274-0.075,7.35-0.149,9.3-0.149c1.274,0,4.124,0.074,8.699,0.149l1.8,4.95c2.325,6.374,3.375,10.349,3.375,11.699
		c0,1.949-1.8,2.925-5.476,3.074v1.2c3.301-0.075,6.825-0.524,10.5-1.2C1139.422,964.285,1142.796,964.735,1146.021,964.885z"/>
	<path fill="#AD8E64" d="M1193.118,913.738l-1.275-0.45c-0.3,0.6-0.6,0.825-1.274,0.825c-1.95,0-7.5-2.4-15.899-2.4
		c-18.148,0-29.772,11.25-29.772,27.599c0,15.899,10.949,26.474,29.623,26.474c7.199,0,13.124-1.425,17.323-3.75
		c0-0.899-0.074-1.8-0.375-2.85c0.676-2.325,1.126-4.575,1.275-6.825h-1.649c-0.75,7.425-6.15,11.324-15.6,11.324
		c-13.424,0-22.424-9.449-22.424-25.572c0-15.524,8.175-24.674,21.524-24.674c9.824,0,14.924,4.649,15.299,13.949h1.5
		c0.074-1.95,0.149-3.3,0.149-3.9c0-1.05-0.075-2.625-0.149-4.875C1192.144,917.038,1192.668,915.463,1193.118,913.738"/>
	<path fill="#AD8E64" d="M1219.666,913.663v-1.2c-3.225,0.15-6.749,0.601-10.648,1.2c-3.825-0.6-7.35-1.05-10.65-1.2v1.2
		c6.825,0.225,7.2,3.825,7.2,14.1v19.724c0,17.698-0.225,26.773-9.675,30.298l0.525,1.125c4.574-1.35,8.324-3.825,10.799-6.825
		c4.95-5.999,5.25-13.124,5.25-22.948v-21.373C1212.467,917.488,1212.917,913.813,1219.666,913.663"/>
	<path fill="#AD8E64" d="M1251.689,941.637c-2.25,0.075-4.424,0.075-6.449,0.075c-0.825,0-4.199,0-9.675-0.075
		c2.625-7.2,5.4-14.175,8.175-20.849C1246.59,927.987,1249.29,934.962,1251.689,941.637 M1273.213,964.885v-1.2
		c-2.999-0.225-5.024-1.125-6.149-2.85c-1.5-2.175-4.649-9.899-9.824-23.099l-10.199-26.099h-2.325l-10.799,25.949
		c-5.625,13.349-8.85,21.299-10.875,23.474c-1.574,1.725-3.6,2.475-6.524,2.624v1.2c2.7-0.149,5.7-0.6,9.075-1.2
		c3.225,0.601,6.225,1.051,8.924,1.2v-1.2c-3.6-0.149-5.175-0.975-5.175-3.225c0-1.8,1.275-6.299,3.975-13.049l1.351-3.45
		c4.274-0.075,7.35-0.149,9.299-0.149c1.275,0,4.125,0.074,8.699,0.149l1.801,4.95c2.324,6.374,3.375,10.349,3.375,11.699
		c0,1.949-1.801,2.925-5.476,3.074v1.2c3.3-0.075,6.825-0.524,10.5-1.2C1266.613,964.285,1269.988,964.735,1273.213,964.885z"/>
	<path fill-rule="evenodd" clip-rule="evenodd" fill="#ECECEC" d="M673.436,698.529c4.861-124.235,202.684-187.669,274.789-329.596
		c44.402-108.922,36.354-213.586,33.216-240.843c3.138,27.257,11.187,131.92-33.216,240.843
		C876.119,510.859,678.297,574.294,673.436,698.529c-3.158,80.748,37.448,113.093,3.958,197.815
		C710.883,811.622,670.277,779.276,673.436,698.529"/>
	<path fill-rule="evenodd" clip-rule="evenodd" fill="#F2F2F4" d="M508.858,1016.205c76.78-8.15,417.168,17.203,464.014,118.128
		c24.088,51.904-3.151,69.557-23.192,106.464c-20.042,36.907-33.901,86.752-18.069,116.459
		c15.833,29.707,25.965,29.218,50.428,29.854c100.789,2.627,305.521-130.512,293.002-123.423
		c-20.659,20.556-300.288,205.207-350.788,114.249c-73.697-109.143,74.552-178.802,31.461-239.086
		c-72.967-81.181-361.583-112.587-440.029-105.795c-77.888,8.615-82.599,42.087-82.146,63.466
		C427.132,1085.934,397.551,1028.014,508.858,1016.205z M659.53,830.136c3.224,31.721,19.976,66.76-64.237,81.304
		c-84.213,14.543-188.457,33.791-127.68,105.569c-0.003-0.339,0.017-0.67,0.025-1.003c-1.874-5.419-2.752-10.372-2.77-14.921
		c-4.852-62.513,94.968-51.427,161.145-68.786c2.273-0.614,4.521-1.242,6.732-1.894c21.48-6.555,38.591-16.741,46.023-34.486
		c25.623-84.007-14.369-90.496-5.333-197.391c0.08-2.033,0.217-4.046,0.398-6.047c11.33-129.146,203.385-183.785,274.391-323.549
		c44.402-108.922,36.354-213.586,33.216-240.843l-0.116-0.525c1.705,44.26,0.164,165.366-55.78,247.666
		c-23.828,35.056-50.111,61.45-77.064,84.332c-68.58,58.224-141.5,93.706-189.402,191.272
		C634.971,710.214,656.307,798.415,659.53,830.136z"/>
	<path fill="none" stroke="#ECECEC" stroke-width="0.216" stroke-miterlimit="22.9256" d="M508.858,1016.205
		c76.78-8.15,417.168,17.203,464.014,118.128c24.088,51.904-3.151,69.557-23.192,106.464
		c-20.042,36.907-33.901,86.752-18.069,116.459c15.833,29.707,25.965,29.218,50.428,29.854
		c100.789,2.627,305.521-130.512,293.002-123.423c-20.659,20.556-300.288,205.207-350.788,114.249
		c-73.697-109.143,74.552-178.802,31.461-239.086c-72.967-81.181-361.583-112.587-440.029-105.795
		c-77.888,8.615-82.599,42.087-82.146,63.466C427.132,1085.934,397.551,1028.014,508.858,1016.205z M659.53,830.136
		c3.224,31.721,19.976,66.76-64.237,81.304c-84.213,14.543-188.457,33.791-127.68,105.569c-0.003-0.339,0.017-0.67,0.025-1.003
		c-1.874-5.419-2.752-10.372-2.77-14.921c-4.852-62.513,94.968-51.427,161.145-68.786c2.273-0.614,4.521-1.242,6.732-1.894
		c21.48-6.555,38.591-16.741,46.023-34.486c25.623-84.007-14.369-90.496-5.333-197.391c0.08-2.033,0.217-4.046,0.398-6.047
		c11.33-129.146,203.385-183.785,274.391-323.549c44.402-108.922,36.354-213.586,33.216-240.843l-0.116-0.525
		c1.705,44.26,0.164,165.366-55.78,247.666c-23.828,35.056-50.111,61.45-77.064,84.332c-68.58,58.224-141.5,93.706-189.402,191.272
		C634.971,710.214,656.307,798.415,659.53,830.136z"/>
	<g>
		<defs>
			<path id="SVGID_1_" d="M1161.891,1328.381l2.631,6.558c-8.83,4.894-17.913,9.767-27.152,14.533l-3.039-7.657
				C1143.687,1337.424,1152.907,1332.913,1161.891,1328.381"/>
		</defs>
		<clipPath id="SVGID_2_">
			<use xlink:href="#SVGID_1_"  overflow="visible"/>
		</clipPath>
		<linearGradient id="SVGID_3_" gradientUnits="userSpaceOnUse" x1="1134.9521" y1="1343.3955" x2="1164.2922" y2="1334.3354">
			<stop  offset="0" style="stop-color:#F4F4F4"/>
			<stop  offset="0.5" style="stop-color:#DFDDE1"/>
			<stop  offset="1" style="stop-color:#F3F3F4"/>
		</linearGradient>
		<rect x="1134.33" y="1328.381" clip-path="url(#SVGID_2_)" fill="url(#SVGID_3_)" width="30.191" height="21.091"/>
	</g>
	<g>
		<defs>
			<path id="SVGID_4_" d="M659.53,830.136c2.754,27.095,15.365,56.605-33.493,73.702l10.059,25.502
				c19.902-6.583,35.631-16.608,42.672-33.42c8.951-29.35,9.888-49.234,7.711-67.248c-19.065-48.372-32.993-93.218-37.74-131.757
				C644.093,748.953,657.073,805.954,659.53,830.136 M783.499,1040.47c4.041,8.353,8.069,16.698,12.073,25.024
				c-35.036-8.692-71.97-15.609-107.479-20.836l-10.248-21.177C712.404,1027.536,748.634,1033.126,783.499,1040.47z"/>
		</defs>
		<clipPath id="SVGID_5_">
			<use xlink:href="#SVGID_4_"  overflow="visible"/>
		</clipPath>
		<linearGradient id="SVGID_6_" gradientUnits="userSpaceOnUse" x1="627.522" y1="906.915" x2="722.012" y2="877.7451">
			<stop  offset="0" style="stop-color:#F4F4F4"/>
			<stop  offset="0.5" style="stop-color:#DFDDE1"/>
			<stop  offset="1" style="stop-color:#F3F3F4"/>
		</linearGradient>
		<rect x="626.037" y="696.915" clip-path="url(#SVGID_5_)" fill="url(#SVGID_6_)" width="169.535" height="368.579"/>
	</g>
	<g>
		<defs>
			<path id="SVGID_7_" d="M454.555,1051.835l-7.012-18.59c12.771-7.717,32.226-13.954,61.315-17.04
				c1.358-0.145,2.821-0.277,4.341-0.4l7.319,16.902c-1.679,0.103-3.311,0.216-4.835,0.349
				C485.831,1036.357,466.736,1043.311,454.555,1051.835"/>
		</defs>
		<clipPath id="SVGID_8_">
			<use xlink:href="#SVGID_7_"  overflow="visible"/>
		</clipPath>
		<linearGradient id="SVGID_9_" gradientUnits="userSpaceOnUse" x1="451.2798" y1="1043.9307" x2="516.8098" y2="1023.7007">
			<stop  offset="0" style="stop-color:#F4F4F4"/>
			<stop  offset="0.5" style="stop-color:#DFDDE1"/>
			<stop  offset="1" style="stop-color:#F3F3F4"/>
		</linearGradient>
		<rect x="447.543" y="1015.805" clip-path="url(#SVGID_8_)" fill="url(#SVGID_9_)" width="72.976" height="36.03"/>
	</g>
	<g>
		<defs>
			<path id="SVGID_10_" d="M426.265,1059.609c3.102,5.808,6.278,11.664,9.454,17.421c-2.037,6.897-2.305,13.647-2.182,19.491
				C430.507,1091.513,422.3,1075.911,426.265,1059.609"/>
		</defs>
		<clipPath id="SVGID_11_">
			<use xlink:href="#SVGID_10_"  overflow="visible"/>
		</clipPath>
		<linearGradient id="SVGID_12_" gradientUnits="userSpaceOnUse" x1="425.7817" y1="1079.0605" x2="435.3718" y2="1076.1005">
			<stop  offset="0" style="stop-color:#F4F4F4"/>
			<stop  offset="0.5" style="stop-color:#DFDDE1"/>
			<stop  offset="1" style="stop-color:#F3F3F4"/>
		</linearGradient>
		<rect x="422.3" y="1059.609" clip-path="url(#SVGID_11_)" fill="url(#SVGID_12_)" width="13.418" height="36.912"/>
	</g>
	<g>
		<defs>
			<path id="SVGID_13_" d="M980.926,236.956c1.746-16.082,2.641-31.072,2.986-44.577l-3.309-7.462
				c-0.801,13.256-2.112,27.671-4.168,42.72C977.926,230.722,979.424,233.831,980.926,236.956"/>
		</defs>
		<clipPath id="SVGID_14_">
			<use xlink:href="#SVGID_13_"  overflow="visible"/>
		</clipPath>
		<linearGradient id="SVGID_15_" gradientUnits="userSpaceOnUse" x1="970.998" y1="213.7666" x2="990.0281" y2="207.8966">
			<stop  offset="0" style="stop-color:#F4F4F4"/>
			<stop  offset="0.5" style="stop-color:#DFDDE1"/>
			<stop  offset="1" style="stop-color:#F3F3F4"/>
		</linearGradient>
		<rect x="976.436" y="184.917" clip-path="url(#SVGID_14_)" fill="url(#SVGID_15_)" width="7.477" height="52.04"/>
	</g>
	<g>
		<defs>
			<path id="SVGID_16_" d="M909.825,425.762c2.916-3.438,5.766-6.931,8.545-10.476l-8.155-19.058
				c-2.596,3.314-5.215,6.547-7.854,9.701C904.764,412.361,907.253,418.976,909.825,425.762"/>
		</defs>
		<clipPath id="SVGID_17_">
			<use xlink:href="#SVGID_16_"  overflow="visible"/>
		</clipPath>
		<linearGradient id="SVGID_18_" gradientUnits="userSpaceOnUse" x1="904.7021" y1="412.7451" x2="915.9922" y2="409.2551">
			<stop  offset="0" style="stop-color:#F4F4F4"/>
			<stop  offset="0.5" style="stop-color:#DFDDE1"/>
			<stop  offset="1" style="stop-color:#F3F3F4"/>
		</linearGradient>
		<rect x="902.36" y="396.228" clip-path="url(#SVGID_17_)" fill="url(#SVGID_18_)" width="16.01" height="29.534"/>
	</g>
	<g>
		<defs>
			<path id="SVGID_19_" d="M807.85,519.225c7.352-5.909,14.753-11.871,22.137-17.924l-8.116-20.226
				c-7.465,5.8-14.937,11.464-22.378,17.095L807.85,519.225z"/>
		</defs>
		<clipPath id="SVGID_20_">
			<use xlink:href="#SVGID_19_"  overflow="visible"/>
		</clipPath>
		<linearGradient id="SVGID_21_" gradientUnits="userSpaceOnUse" x1="801.8389" y1="504.1289" x2="827.9389" y2="496.0789">
			<stop  offset="0" style="stop-color:#F4F4F4"/>
			<stop  offset="0.5" style="stop-color:#DFDDE1"/>
			<stop  offset="1" style="stop-color:#F3F3F4"/>
		</linearGradient>
		<rect x="799.493" y="481.075" clip-path="url(#SVGID_20_)" fill="url(#SVGID_21_)" width="30.494" height="38.149"/>
	</g>
	<g>
		<defs>
			<path id="SVGID_22_" d="M480.751,940.88c-31.687,15.643-44.773,38.769-13.138,76.13c-0.003-0.339,0.017-0.67,0.025-1.003
				c-1.874-5.419-2.752-10.372-2.77-14.921c-1.589-20.474,8.053-33.054,24.061-41.323L480.751,940.88z"/>
		</defs>
		<clipPath id="SVGID_23_">
			<use xlink:href="#SVGID_22_"  overflow="visible"/>
		</clipPath>
		<linearGradient id="SVGID_24_" gradientUnits="userSpaceOnUse" x1="448.8301" y1="983.1514" x2="493.0401" y2="969.5013">
			<stop  offset="0" style="stop-color:#F4F4F4"/>
			<stop  offset="0.5" style="stop-color:#DFDDE1"/>
			<stop  offset="1" style="stop-color:#F3F3F4"/>
		</linearGradient>
		<rect x="435.978" y="940.88" clip-path="url(#SVGID_23_)" fill="url(#SVGID_24_)" width="52.951" height="76.13"/>
	</g>
	<path fill-rule="evenodd" clip-rule="evenodd" fill="#E30613" d="M467.638,1016.007c-30.21-106.673,179.289-44.06,211.13-120.087
		c25.623-84.007-14.369-90.496-5.333-197.391c5.752-133.524,202.684-187.669,274.789-329.596
		c44.402-108.922,36.354-213.586,33.216-240.843c1.966,8.912,28.238,134.322-21.827,255.459
		c-33.972,66.073-91.865,114.951-144.288,160.942c-59.287,52.013-111.577,100.334-114.359,165.668
		c-1.465,34.413,5.933,67.563,10.93,99.285c6.621,42.032,7.465,89.639-19.021,118.189c-26.485,28.55-31.931,26.461-78.832,35.244
		c-46.901,8.781-43.963,5.154-65.846,8.75C505.499,978.643,468.333,990,467.638,1016.007 M921.472,1370.866
		c-5.949-7.774-9.941-16.55-12.065-24.128c-25.073-89.438,86.03-152.313,46.307-207.888
		c-72.967-81.181-361.583-112.587-440.029-105.795c-82.192,9.091-82.898,45.865-82.038,66.896
		c68.712-91.969,327.86-21.426,405.278,2.94c77.701,24.458,115.003,53.119,96.885,98.543c-11.844,29.688-30.752,56.345-41.95,84.413
		c-5.936,14.879-10.469,33.073-9.106,46.492c1.362,13.418,5.297,19.566,9.41,27.53c57.634,111.586,296.402-18.939,380.878-96.184
		c-26.992,18.576-227.681,162.704-327.476,123.836C937.786,1383.715,927.42,1378.641,921.472,1370.866z"/>
	<path fill-rule="evenodd" clip-rule="evenodd" fill="#009640" d="M983.923,191.964c0.752-30.334-1.245-53.126-2.482-63.874
		c0.925,4.19,7.22,34.143,8.43,77.292L983.923,191.964z"/>
	<path fill-rule="evenodd" clip-rule="evenodd" fill="#C01213" d="M988.798,255.251c-0.071,1.003-0.147,2.01-0.227,3.019
		C988.65,257.261,988.726,256.253,988.798,255.251"/>
	<g>
		<defs>
			<path id="SVGID_25_" d="M980.963,236.611c5.648-52.291,2.267-92.983,0.478-108.521c1.235,5.603,12.072,57.253,7.515,124.933
				c-2.672-5.604-5.326-11.155-7.965-16.651L980.963,236.611z"/>
		</defs>
		<clipPath id="SVGID_26_">
			<use xlink:href="#SVGID_25_"  overflow="visible"/>
		</clipPath>
		<linearGradient id="SVGID_27_" gradientUnits="userSpaceOnUse" x1="996.2373" y1="187.7778" x2="973.1473" y2="194.9078">
			<stop  offset="0" style="stop-color:#C01213"/>
			<stop  offset="1" style="stop-color:#E30613"/>
		</linearGradient>
		<rect x="980.963" y="128.09" clip-path="url(#SVGID_26_)" fill="url(#SVGID_27_)" width="12.55" height="124.933"/>
	</g>
	<g>
		<defs>
			<path id="SVGID_28_" d="M807.86,519.215c7.357-5.911,14.764-11.875,22.152-17.931l8.998,22.423l0,0.001
				c-7.951,7.022-15.88,13.935-23.686,20.784l1.905-1.669L807.86,519.215z"/>
		</defs>
		<clipPath id="SVGID_29_">
			<use xlink:href="#SVGID_28_"  overflow="visible"/>
		</clipPath>
		<linearGradient id="SVGID_30_" gradientUnits="userSpaceOnUse" x1="808.6167" y1="527.4697" x2="837.0167" y2="518.6897">
			<stop  offset="0" style="stop-color:#E30613"/>
			<stop  offset="0.5" style="stop-color:#B71211"/>
			<stop  offset="1" style="stop-color:#E30613"/>
		</linearGradient>
		<rect x="807.86" y="501.284" clip-path="url(#SVGID_29_)" fill="url(#SVGID_30_)" width="31.151" height="43.208"/>
	</g>
	<path fill-rule="evenodd" clip-rule="evenodd" fill="#C01213" d="M673.811,692.824c0.021-0.25,0.039-0.502,0.062-0.75
		C673.85,692.322,673.833,692.574,673.811,692.824"/>
	<path fill-rule="evenodd" clip-rule="evenodd" fill="#C01213" d="M500.711,983.119c-0.374,0.138-0.744,0.278-1.112,0.42
		C499.966,983.397,500.337,983.257,500.711,983.119"/>
	<g>
		<defs>
			<path id="SVGID_31_" d="M636.102,929.339c19.899-6.582,35.626-16.61,42.667-33.419c8.973-29.417,9.898-49.325,7.701-67.372
				l0.01,0.08c7.835,19.675,16.495,39.915,25.709,60.536c-3.398,14.612-9.466,27.856-19.312,38.47
				c-18.486,19.928-26.724,24.929-45.961,29.118L636.102,929.339z"/>
		</defs>
		<clipPath id="SVGID_32_">
			<use xlink:href="#SVGID_31_"  overflow="visible"/>
		</clipPath>
		<linearGradient id="SVGID_33_" gradientUnits="userSpaceOnUse" x1="627.208" y1="907.1367" x2="709.148" y2="881.8467">
			<stop  offset="0" style="stop-color:#E30613"/>
			<stop  offset="0.2" style="stop-color:#BF1212"/>
			<stop  offset="0.5" style="stop-color:#BE1212"/>
			<stop  offset="0.8" style="stop-color:#BF1212"/>
			<stop  offset="1" style="stop-color:#E30613"/>
		</linearGradient>
		<rect x="636.102" y="828.548" clip-path="url(#SVGID_32_)" fill="url(#SVGID_33_)" width="76.086" height="128.204"/>
	</g>
	<path fill-rule="evenodd" clip-rule="evenodd" fill="#C01213" d="M491.406,958.545c23.54-11.087,59.314-13.923,93.596-18.639
		C550.724,944.623,514.945,947.458,491.406,958.545"/>
	<path fill-rule="evenodd" clip-rule="evenodd" fill="#C01213" d="M489.057,959.693c0.535-0.274,1.078-0.543,1.627-0.809
		C490.135,959.149,489.591,959.419,489.057,959.693"/>
	<g>
		<defs>
			<path id="SVGID_34_" d="M467.638,1016.007c-8.396-29.647,1.741-46.207,21.417-56.313l10.357,23.915
				C480.623,990.842,468.042,1000.979,467.638,1016.007"/>
		</defs>
		<clipPath id="SVGID_35_">
			<use xlink:href="#SVGID_34_"  overflow="visible"/>
		</clipPath>
		<linearGradient id="SVGID_36_" gradientUnits="userSpaceOnUse" x1="459.0054" y1="994.1211" x2="498.7054" y2="981.8711">
			<stop  offset="0" style="stop-color:#E30613"/>
			<stop  offset="0.2" style="stop-color:#BF1212"/>
			<stop  offset="0.5" style="stop-color:#BE1212"/>
			<stop  offset="0.8" style="stop-color:#BF1212"/>
			<stop  offset="1" style="stop-color:#E30613"/>
		</linearGradient>
		<rect x="459.242" y="959.694" clip-path="url(#SVGID_35_)" fill="url(#SVGID_36_)" width="40.17" height="56.313"/>
	</g>
	<g>
		<defs>
			<path id="SVGID_37_" d="M435.943,1076.303c-2.683,8.547-2.572,16.907-2.297,23.649c2.871-3.842,6.077-7.396,9.585-10.686
				C440.838,1085.067,438.396,1080.724,435.943,1076.303"/>
		</defs>
		<clipPath id="SVGID_38_">
			<use xlink:href="#SVGID_37_"  overflow="visible"/>
		</clipPath>
		<linearGradient id="SVGID_39_" gradientUnits="userSpaceOnUse" x1="434.2329" y1="1089.3701" x2="437.9129" y2="1088.2301">
			<stop  offset="0" style="stop-color:#C01213"/>
			<stop  offset="1" style="stop-color:#E30613"/>
		</linearGradient>
		<rect x="433.26" y="1076.303" clip-path="url(#SVGID_38_)" fill="url(#SVGID_39_)" width="9.971" height="23.649"/>
	</g>
	<path fill-rule="evenodd" clip-rule="evenodd" fill="#C01213" d="M451.11,1054.439c-8.342,6.786-12.813,14.379-15.157,21.831
		C438.295,1068.818,442.77,1061.226,451.11,1054.439"/>
	<path fill-rule="evenodd" clip-rule="evenodd" fill="#C01213" d="M452.496,1053.347c-0.401,0.307-0.794,0.615-1.179,0.924
		C451.703,1053.961,452.095,1053.653,452.496,1053.347"/>
	<path fill-rule="evenodd" clip-rule="evenodd" fill="#C01213" d="M454.002,1052.232c-0.445,0.318-0.879,0.64-1.305,0.962
		C453.123,1052.872,453.557,1052.551,454.002,1052.232"/>
	<g>
		<defs>
			<path id="SVGID_40_" d="M520.858,1032.689c-1.801,0.108-3.549,0.226-5.174,0.366c-29.893,3.307-48.996,10.276-61.177,18.817
				l8.712,23.099c18.614-10.184,41.772-16.119,67.488-18.923L520.858,1032.689z"/>
		</defs>
		<clipPath id="SVGID_41_">
			<use xlink:href="#SVGID_40_"  overflow="visible"/>
		</clipPath>
		<linearGradient id="SVGID_42_" gradientUnits="userSpaceOnUse" x1="458.855" y1="1064.252" x2="525.675" y2="1043.6219">
			<stop  offset="0" style="stop-color:#E30613"/>
			<stop  offset="0.2" style="stop-color:#BF1212"/>
			<stop  offset="0.5" style="stop-color:#BE1212"/>
			<stop  offset="0.8" style="stop-color:#BF1212"/>
			<stop  offset="1" style="stop-color:#E30613"/>
		</linearGradient>
		<rect x="454.507" y="1032.689" clip-path="url(#SVGID_41_)" fill="url(#SVGID_42_)" width="76.2" height="42.282"/>
	</g>
	<g>
		<defs>
			<path id="SVGID_43_" d="M1138.992,1354.278c8.551-4.338,18.009-9.277,27.224-14.167l-2.465-6.269
				c-8.944,4.833-19.394,10.398-26.935,14.2l2.425,6.11L1138.992,1354.278z"/>
		</defs>
		<clipPath id="SVGID_44_">
			<use xlink:href="#SVGID_43_"  overflow="visible"/>
		</clipPath>
		<linearGradient id="SVGID_45_" gradientUnits="userSpaceOnUse" x1="1136.7627" y1="1348.6152" x2="1166.0127" y2="1339.5852">
			<stop  offset="0" style="stop-color:#E30613"/>
			<stop  offset="0.2" style="stop-color:#BF1212"/>
			<stop  offset="0.5" style="stop-color:#BE1212"/>
			<stop  offset="0.8" style="stop-color:#BF1212"/>
			<stop  offset="1" style="stop-color:#E30613"/>
		</linearGradient>
		<rect x="1136.816" y="1333.843" clip-path="url(#SVGID_44_)" fill="url(#SVGID_45_)" width="29.399" height="20.436"/>
	</g>
	<g>
		<defs>
			<path id="SVGID_46_" d="M795.967,1065.597c-34.905-8.679-71.706-15.592-107.12-20.823l10.574,23.101
				c42.092,7.93,81.046,17.929,110.144,26.233C805.087,1084.642,800.546,1075.133,795.967,1065.597"/>
		</defs>
		<clipPath id="SVGID_47_">
			<use xlink:href="#SVGID_46_"  overflow="visible"/>
		</clipPath>
		<linearGradient id="SVGID_48_" gradientUnits="userSpaceOnUse" x1="704.0313" y1="1083.3857" x2="794.3812" y2="1055.4957">
			<stop  offset="0" style="stop-color:#E30613"/>
			<stop  offset="0.2" style="stop-color:#BF1212"/>
			<stop  offset="0.5" style="stop-color:#BE1212"/>
			<stop  offset="0.8" style="stop-color:#BF1212"/>
			<stop  offset="1" style="stop-color:#E30613"/>
		</linearGradient>
		<rect x="688.848" y="1044.773" clip-path="url(#SVGID_47_)" fill="url(#SVGID_48_)" width="120.718" height="49.334"/>
	</g>
	<g>
		<defs>
			<path id="SVGID_49_" d="M946.663,1130.006l20.049-6.188c2.396,3.414,4.486,6.912,6.16,10.517
				c21.462,46.243,2.177,65.297-16.457,95.005l-26.394,8.147c22.103-37.461,46.754-69.17,25.691-98.636
				C952.999,1135.831,949.951,1132.889,946.663,1130.006"/>
		</defs>
		<clipPath id="SVGID_50_">
			<use xlink:href="#SVGID_49_"  overflow="visible"/>
		</clipPath>
		<linearGradient id="SVGID_51_" gradientUnits="userSpaceOnUse" x1="974.8291" y1="1212.8311" x2="945.8891" y2="1139.2211">
			<stop  offset="0" style="stop-color:#F4F4F4"/>
			<stop  offset="0.5" style="stop-color:#DFDDE1"/>
			<stop  offset="1" style="stop-color:#F3F3F4"/>
		</linearGradient>
		<rect x="930.021" y="1123.817" clip-path="url(#SVGID_50_)" fill="url(#SVGID_51_)" width="64.313" height="113.669"/>
	</g>
	<g>
		<defs>
			<path id="SVGID_52_" d="M934.592,1236.076c20.923-36.356,42.144-67.815,21.121-97.226c-2.714-3.02-5.762-5.961-9.051-8.844
				l-29.42,9.082c21.58,17.043,28.635,37.105,18.566,62.346c-5.58,13.987-12.729,27.304-19.9,40.409L934.592,1236.076z"/>
		</defs>
		<clipPath id="SVGID_53_">
			<use xlink:href="#SVGID_52_"  overflow="visible"/>
		</clipPath>
		<linearGradient id="SVGID_54_" gradientUnits="userSpaceOnUse" x1="958.5664" y1="1217.0654" x2="930.2364" y2="1145.0155">
			<stop  offset="0" style="stop-color:#E30613"/>
			<stop  offset="0.2" style="stop-color:#BF1212"/>
			<stop  offset="0.5" style="stop-color:#BE1212"/>
			<stop  offset="0.8" style="stop-color:#BF1212"/>
			<stop  offset="1" style="stop-color:#E30613"/>
		</linearGradient>
		<rect x="915.908" y="1130.007" clip-path="url(#SVGID_53_)" fill="url(#SVGID_54_)" width="60.827" height="111.837"/>
	</g>
	<g>
		<defs>
			<path id="SVGID_55_" d="M909.799,425.816c2.958-3.487,5.849-7.027,8.666-10.625l8.265,19.313
				c-0.393-1.457,0.52,0.96-9.777,12.074l0.536-0.637C914.858,439.095,912.293,432.381,909.799,425.816"/>
		</defs>
		<clipPath id="SVGID_56_">
			<use xlink:href="#SVGID_55_"  overflow="visible"/>
		</clipPath>
		<linearGradient id="SVGID_57_" gradientUnits="userSpaceOnUse" x1="911.6016" y1="433.0234" x2="924.5815" y2="429.0134">
			<stop  offset="0" style="stop-color:#E30613"/>
			<stop  offset="0.5" style="stop-color:#B71211"/>
			<stop  offset="1" style="stop-color:#E30613"/>
		</linearGradient>
		<rect x="909.799" y="415.191" clip-path="url(#SVGID_56_)" fill="url(#SVGID_57_)" width="17.45" height="31.387"/>
	</g>
	<path fill="none" stroke="#DADADA" stroke-width="0.2835" stroke-miterlimit="22.9256" d="M508.858,1016.205
		c76.78-8.15,417.168,17.203,464.014,118.128c24.088,51.904-3.151,69.557-23.192,106.464
		c-20.042,36.907-33.901,86.752-18.069,116.459c15.833,29.707,25.965,29.218,50.428,29.854
		c100.789,2.627,305.521-130.512,293.002-123.423c-20.659,20.556-300.288,205.207-350.788,114.249
		c-73.697-109.143,74.552-178.802,31.461-239.086c-72.967-81.181-361.583-112.587-440.029-105.795
		c-77.888,8.615-82.599,42.087-82.146,63.466C427.132,1085.934,397.551,1028.014,508.858,1016.205z M659.53,830.136
		c3.224,31.721,19.976,66.76-64.237,81.304c-84.213,14.543-188.457,33.791-127.68,105.569c-0.003-0.339,0.017-0.67,0.025-1.003
		c-1.874-5.419-2.752-10.372-2.77-14.921c-4.852-62.513,94.968-51.427,161.145-68.786c2.273-0.614,4.521-1.242,6.732-1.894
		c21.48-6.555,38.591-16.741,46.023-34.486c25.623-84.007-14.369-90.496-5.333-197.391c0.08-2.033,0.217-4.046,0.398-6.047
		c11.33-129.146,203.385-183.785,274.391-323.549c44.402-108.922,36.354-213.586,33.216-240.843l-0.116-0.525
		c1.705,44.26,0.164,165.366-55.78,247.666c-23.828,35.056-50.111,61.45-77.064,84.332c-68.58,58.224-141.5,93.706-189.402,191.272
		C634.971,710.214,656.307,798.415,659.53,830.136z"/>
</g>
</svg>
