<?xml version="1.0" encoding="iso-8859-1"?>
<!-- Generator: Adobe Illustrator 22.0.1, SVG Export Plug-In . SVG Version: 6.00 Build 0)  -->
<svg version="1.1" id="Warstwa_1" xmlns="http://www.w3.org/2000/svg" xmlns:xlink="http://www.w3.org/1999/xlink" x="0px" y="0px"
	 viewBox="0 0 112.311 146.39" style="enable-background:new 0 0 112.311 146.39;" xml:space="preserve">
<path style="fill-rule:evenodd;clip-rule:evenodd;fill:#ECECEC;" d="M30.327,65.279c0.54-13.804,22.52-20.852,30.532-36.622
	c4.934-12.102,4.039-23.732,3.691-26.76c0.349,3.029,1.243,14.658-3.691,26.76C52.847,44.427,30.867,51.475,30.327,65.279
	c-0.351,8.972,4.161,12.566,0.44,21.98C34.488,77.845,29.976,74.251,30.327,65.279"/>
<path style="fill-rule:evenodd;clip-rule:evenodd;fill:#F2F2F4;" d="M12.04,100.577c8.531-0.905,46.352,1.912,51.557,13.125
	c2.676,5.767-0.35,7.729-2.577,11.829c-2.227,4.101-3.767,9.639-2.008,12.94c1.759,3.301,2.885,3.246,5.603,3.317
	c11.199,0.292,33.947-14.501,32.556-13.714c-2.296,2.284-33.365,22.801-38.976,12.694c-8.188-12.127,8.284-19.867,3.496-26.565
	c-8.107-9.02-40.176-12.51-48.892-11.755c-8.654,0.957-9.178,4.676-9.127,7.052C2.96,108.325-0.327,101.889,12.04,100.577z
	 M28.782,79.902c0.358,3.525,2.219,7.418-7.137,9.034c-9.357,1.616-20.939,3.755-14.187,11.73c0-0.038,0.002-0.074,0.003-0.111
	c-0.208-0.602-0.306-1.153-0.307-1.658c-0.539-6.946,10.552-5.714,17.905-7.643c0.253-0.068,0.502-0.138,0.748-0.211
	c2.387-0.728,4.288-1.86,5.114-3.832c2.847-9.334-1.596-10.055-0.592-21.932c0.009-0.226,0.024-0.45,0.044-0.672
	c1.259-14.35,22.598-20.421,30.488-35.95c4.934-12.102,4.039-23.732,3.691-26.76l-0.013-0.058c0.19,4.918,0.018,18.374-6.198,27.518
	c-2.647,3.895-5.568,6.828-8.563,9.37c-7.62,6.469-15.722,10.412-21.045,21.253C26.053,66.578,28.423,76.378,28.782,79.902z"/>
<path style="fill:none;stroke:#DADADA;stroke-width:0.216;stroke-miterlimit:22.9256;" d="M12.04,100.577
	c8.531-0.905,46.352,1.912,51.557,13.125c2.676,5.767-0.35,7.729-2.577,11.829c-2.227,4.101-3.767,9.639-2.008,12.94
	c1.759,3.301,2.885,3.246,5.603,3.317c11.199,0.292,33.947-14.501,32.556-13.714c-2.296,2.284-33.365,22.801-38.976,12.694
	c-8.188-12.127,8.284-19.867,3.496-26.565c-8.107-9.02-40.176-12.51-48.892-11.755c-8.654,0.957-9.178,4.676-9.127,7.052
	C2.96,108.325-0.327,101.889,12.04,100.577z M28.782,79.902c0.358,3.525,2.219,7.418-7.137,9.034
	c-9.357,1.616-20.939,3.755-14.187,11.73c0-0.038,0.002-0.074,0.003-0.111c-0.208-0.602-0.306-1.153-0.307-1.658
	c-0.539-6.946,10.552-5.714,17.905-7.643c0.253-0.068,0.502-0.138,0.748-0.211c2.387-0.728,4.288-1.86,5.114-3.832
	c2.847-9.334-1.596-10.055-0.592-21.932c0.009-0.226,0.024-0.45,0.044-0.672c1.259-14.35,22.598-20.421,30.488-35.95
	c4.934-12.102,4.039-23.732,3.691-26.76l-0.013-0.058c0.19,4.918,0.018,18.374-6.198,27.518c-2.647,3.895-5.568,6.828-8.563,9.37
	c-7.62,6.469-15.722,10.412-21.045,21.253C26.053,66.578,28.423,76.378,28.782,79.902z"/>
<g>
	<defs>
		<path id="SVGID_1_" d="M84.599,135.263l0.293,0.729c-0.981,0.544-1.991,1.085-3.017,1.615l-0.338-0.851
			C82.577,136.268,83.601,135.767,84.599,135.263"/>
	</defs>
	<clipPath id="SVGID_2_">
		<use xlink:href="#SVGID_1_"  style="overflow:visible;"/>
	</clipPath>
	<linearGradient id="SVGID_3_" gradientUnits="userSpaceOnUse" x1="81.6061" y1="136.9331" x2="84.8662" y2="135.9231">
		<stop  offset="0" style="stop-color:#F4F4F4"/>
		<stop  offset="0.5" style="stop-color:#DFDDE1"/>
		<stop  offset="1" style="stop-color:#F3F3F4"/>
	</linearGradient>
	<rect x="81.537" y="135.263" style="clip-path:url(#SVGID_2_);fill:url(#SVGID_3_);" width="3.355" height="2.344"/>
</g>
<g>
	<defs>
		<path id="SVGID_4_" d="M28.782,79.902c0.306,3.01,1.707,6.289-3.721,8.189l1.118,2.833c2.211-0.731,3.959-1.845,4.741-3.713
			c0.994-3.261,1.099-5.471,0.857-7.472c-2.118-5.375-3.666-10.357-4.193-14.64C27.066,70.882,28.509,77.215,28.782,79.902
			 M42.556,103.273c0.449,0.928,0.897,1.855,1.341,2.781c-3.893-0.966-7.996-1.734-11.942-2.315l-1.139-2.353
			C34.656,101.836,38.682,102.457,42.556,103.273z"/>
	</defs>
	<clipPath id="SVGID_5_">
		<use xlink:href="#SVGID_4_"  style="overflow:visible;"/>
	</clipPath>
	<linearGradient id="SVGID_6_" gradientUnits="userSpaceOnUse" x1="25.2276" y1="88.4314" x2="35.7276" y2="85.1914">
		<stop  offset="0" style="stop-color:#F4F4F4"/>
		<stop  offset="0.5" style="stop-color:#DFDDE1"/>
		<stop  offset="1" style="stop-color:#F3F3F4"/>
	</linearGradient>
	<rect x="25.06" y="65.1" style="clip-path:url(#SVGID_5_);fill:url(#SVGID_6_);" width="18.837" height="40.953"/>
</g>
<g>
	<defs>
		<path id="SVGID_7_" d="M6.007,104.536l-0.779-2.066c1.419-0.857,3.58-1.55,6.813-1.893c0.151-0.016,0.314-0.031,0.482-0.044
			l0.813,1.878c-0.186,0.011-0.368,0.024-0.537,0.039C9.482,102.816,7.36,103.589,6.007,104.536"/>
	</defs>
	<clipPath id="SVGID_8_">
		<use xlink:href="#SVGID_7_"  style="overflow:visible;"/>
	</clipPath>
	<linearGradient id="SVGID_9_" gradientUnits="userSpaceOnUse" x1="5.6468" y1="103.6526" x2="12.9268" y2="101.4126">
		<stop  offset="0" style="stop-color:#F4F4F4"/>
		<stop  offset="0.5" style="stop-color:#DFDDE1"/>
		<stop  offset="1" style="stop-color:#F3F3F4"/>
	</linearGradient>
	<rect x="5.228" y="100.532" style="clip-path:url(#SVGID_8_);fill:url(#SVGID_9_);" width="8.108" height="4.003"/>
</g>
<g>
	<defs>
		<path id="SVGID_10_" d="M2.863,105.4c0.345,0.645,0.698,1.296,1.051,1.936c-0.227,0.766-0.256,1.516-0.242,2.166
			C3.335,108.945,2.423,107.211,2.863,105.4"/>
	</defs>
	<clipPath id="SVGID_11_">
		<use xlink:href="#SVGID_10_"  style="overflow:visible;"/>
	</clipPath>
	<linearGradient id="SVGID_12_" gradientUnits="userSpaceOnUse" x1="2.8093" y1="107.561" x2="3.8793" y2="107.231">
		<stop  offset="0" style="stop-color:#F4F4F4"/>
		<stop  offset="0.5" style="stop-color:#DFDDE1"/>
		<stop  offset="1" style="stop-color:#F3F3F4"/>
	</linearGradient>
	<rect x="2.423" y="105.4" style="clip-path:url(#SVGID_11_);fill:url(#SVGID_12_);" width="1.491" height="4.101"/>
</g>
<g>
	<defs>
		<path id="SVGID_13_" d="M64.492,13.993c0.194-1.787,0.293-3.453,0.332-4.953l-0.367-0.829c-0.089,1.473-0.235,3.075-0.463,4.747
			C64.159,13.3,64.325,13.646,64.492,13.993"/>
	</defs>
	<clipPath id="SVGID_14_">
		<use xlink:href="#SVGID_13_"  style="overflow:visible;"/>
	</clipPath>
	<linearGradient id="SVGID_15_" gradientUnits="userSpaceOnUse" x1="63.392" y1="11.42" x2="65.502" y2="10.7601">
		<stop  offset="0" style="stop-color:#F4F4F4"/>
		<stop  offset="0.5" style="stop-color:#DFDDE1"/>
		<stop  offset="1" style="stop-color:#F3F3F4"/>
	</linearGradient>
	<rect x="63.993" y="8.211" style="clip-path:url(#SVGID_14_);fill:url(#SVGID_15_);" width="0.831" height="5.782"/>
</g>
<g>
	<defs>
		<path id="SVGID_16_" d="M56.592,34.972c0.324-0.382,0.641-0.77,0.95-1.164l-0.906-2.118c-0.288,0.369-0.579,0.728-0.873,1.078
			C56.03,33.483,56.306,34.218,56.592,34.972"/>
	</defs>
	<clipPath id="SVGID_17_">
		<use xlink:href="#SVGID_16_"  style="overflow:visible;"/>
	</clipPath>
	<linearGradient id="SVGID_18_" gradientUnits="userSpaceOnUse" x1="56.0216" y1="33.521" x2="57.2816" y2="33.141">
		<stop  offset="0" style="stop-color:#F4F4F4"/>
		<stop  offset="0.5" style="stop-color:#DFDDE1"/>
		<stop  offset="1" style="stop-color:#F3F3F4"/>
	</linearGradient>
	<rect x="55.763" y="31.69" style="clip-path:url(#SVGID_17_);fill:url(#SVGID_18_);" width="1.779" height="3.282"/>
</g>
<g>
	<defs>
		<path id="SVGID_19_" d="M45.262,45.356c0.817-0.656,1.639-1.319,2.46-1.991l-0.902-2.247c-0.829,0.644-1.659,1.274-2.486,1.899
			L45.262,45.356z"/>
	</defs>
	<clipPath id="SVGID_20_">
		<use xlink:href="#SVGID_19_"  style="overflow:visible;"/>
	</clipPath>
	<linearGradient id="SVGID_21_" gradientUnits="userSpaceOnUse" x1="44.597" y1="43.6759" x2="47.497" y2="42.786">
		<stop  offset="0" style="stop-color:#F4F4F4"/>
		<stop  offset="0.5" style="stop-color:#DFDDE1"/>
		<stop  offset="1" style="stop-color:#F3F3F4"/>
	</linearGradient>
	<rect x="44.333" y="41.118" style="clip-path:url(#SVGID_20_);fill:url(#SVGID_21_);" width="3.388" height="4.239"/>
</g>
<g>
	<defs>
		<path id="SVGID_22_" d="M8.917,92.207c-3.521,1.738-4.975,4.307-1.46,8.459c0-0.038,0.002-0.074,0.003-0.111
			c-0.208-0.602-0.306-1.153-0.307-1.658c-0.177-2.275,0.895-3.673,2.673-4.592L8.917,92.207z"/>
	</defs>
	<clipPath id="SVGID_23_">
		<use xlink:href="#SVGID_22_"  style="overflow:visible;"/>
	</clipPath>
	<linearGradient id="SVGID_24_" gradientUnits="userSpaceOnUse" x1="5.3748" y1="96.901" x2="10.2848" y2="95.391">
		<stop  offset="0" style="stop-color:#F4F4F4"/>
		<stop  offset="0.5" style="stop-color:#DFDDE1"/>
		<stop  offset="1" style="stop-color:#F3F3F4"/>
	</linearGradient>
	<rect x="3.942" y="92.207" style="clip-path:url(#SVGID_23_);fill:url(#SVGID_24_);" width="5.884" height="8.459"/>
</g>
<path style="fill-rule:evenodd;clip-rule:evenodd;fill:#E30613;" d="M7.46,100.555c-3.357-11.852,19.921-4.896,23.459-13.343
	c2.847-9.334-1.596-10.055-0.592-21.932c0.639-14.836,22.52-20.852,30.532-36.622c4.934-12.102,4.039-23.732,3.691-26.76
	c0.218,0.99,3.137,14.925-2.425,28.385c-3.775,7.341-10.207,12.772-16.032,17.883c-6.587,5.779-12.398,11.148-12.707,18.408
	c-0.163,3.824,0.659,7.507,1.214,11.032c0.736,4.67,0.829,9.96-2.113,13.132c-2.943,3.172-3.548,2.94-8.759,3.916
	c-5.211,0.976-4.885,0.573-7.316,0.972C11.667,96.403,7.538,97.665,7.46,100.555 M57.886,139.984
	c-0.661-0.864-1.104-1.839-1.341-2.681c-2.786-9.937,9.559-16.924,5.145-23.099c-8.107-9.02-40.176-12.51-48.892-11.755
	c-9.132,1.01-9.211,5.096-9.115,7.433c7.635-10.219,36.429-2.381,45.031,0.326c8.633,2.718,12.778,5.902,10.765,10.949
	c-1.316,3.299-3.417,6.261-4.661,9.379c-0.66,1.653-1.163,3.675-1.012,5.166c0.151,1.491,0.589,2.174,1.046,3.059
	c6.404,12.398,32.934-2.104,42.32-10.687c-2.999,2.064-25.298,18.078-36.386,13.76C59.699,141.411,58.547,140.848,57.886,139.984z"
	/>
<path style="fill-rule:evenodd;clip-rule:evenodd;fill:#009640;" d="M64.825,8.994c0.084-3.371-0.138-5.903-0.276-7.097
	c0.103,0.466,0.802,3.794,0.937,8.588L64.825,8.994z"/>
<path style="fill-rule:evenodd;clip-rule:evenodd;fill:#C01213;" d="M65.367,16.026c-0.008,0.111-0.016,0.223-0.025,0.335
	C65.351,16.249,65.359,16.137,65.367,16.026"/>
<g>
	<defs>
		<path id="SVGID_25_" d="M64.496,13.955c0.628-5.81,0.252-10.331,0.053-12.058c0.137,0.623,1.341,6.362,0.835,13.882
			c-0.297-0.623-0.592-1.239-0.885-1.85L64.496,13.955z"/>
	</defs>
	<clipPath id="SVGID_26_">
		<use xlink:href="#SVGID_25_"  style="overflow:visible;"/>
	</clipPath>
	<linearGradient id="SVGID_27_" gradientUnits="userSpaceOnUse" x1="66.1965" y1="8.5292" x2="63.6265" y2="9.3192">
		<stop  offset="0" style="stop-color:#C01213"/>
		<stop  offset="1" style="stop-color:#E30613"/>
	</linearGradient>
	<rect x="64.496" y="1.897" style="clip-path:url(#SVGID_26_);fill:url(#SVGID_27_);" width="1.394" height="13.882"/>
</g>
<g>
	<defs>
		<path id="SVGID_28_" d="M45.263,45.355c0.817-0.657,1.64-1.32,2.461-1.992l1,2.492c-0.884,0.78-1.765,1.548-2.632,2.309
			l0.211-0.186L45.263,45.355z"/>
	</defs>
	<clipPath id="SVGID_29_">
		<use xlink:href="#SVGID_28_"  style="overflow:visible;"/>
	</clipPath>
	<linearGradient id="SVGID_30_" gradientUnits="userSpaceOnUse" x1="45.3459" y1="46.2745" x2="48.5059" y2="45.2945">
		<stop  offset="0" style="stop-color:#E30613"/>
		<stop  offset="0.5" style="stop-color:#B71211"/>
		<stop  offset="1" style="stop-color:#E30613"/>
	</linearGradient>
	<rect x="45.263" y="43.363" style="clip-path:url(#SVGID_29_);fill:url(#SVGID_30_);" width="3.461" height="4.801"/>
</g>
<path style="fill-rule:evenodd;clip-rule:evenodd;fill:#C01213;" d="M30.368,64.645c0.002-0.028,0.004-0.056,0.007-0.083
	C30.373,64.59,30.371,64.617,30.368,64.645"/>
<path style="fill-rule:evenodd;clip-rule:evenodd;fill:#C01213;" d="M11.135,96.9c-0.041,0.016-0.083,0.031-0.124,0.047
	C11.052,96.932,11.094,96.916,11.135,96.9"/>
<g>
	<defs>
		<path id="SVGID_31_" d="M26.178,90.925c2.211-0.731,3.958-1.846,4.741-3.713c0.997-3.269,1.1-5.481,0.856-7.486l0.001,0.009
			c0.871,2.186,1.833,4.435,2.857,6.726c-0.378,1.624-1.052,3.095-2.146,4.275c-2.054,2.214-2.969,2.77-5.107,3.235L26.178,90.925z"
			/>
	</defs>
	<clipPath id="SVGID_32_">
		<use xlink:href="#SVGID_31_"  style="overflow:visible;"/>
	</clipPath>
	<linearGradient id="SVGID_33_" gradientUnits="userSpaceOnUse" x1="25.1925" y1="88.458" x2="34.2925" y2="85.648">
		<stop  offset="0" style="stop-color:#E30613"/>
		<stop  offset="0.2" style="stop-color:#BF1212"/>
		<stop  offset="0.5" style="stop-color:#BE1212"/>
		<stop  offset="0.8" style="stop-color:#BF1212"/>
		<stop  offset="1" style="stop-color:#E30613"/>
	</linearGradient>
	<rect x="26.178" y="79.726" style="clip-path:url(#SVGID_32_);fill:url(#SVGID_33_);" width="8.454" height="14.245"/>
</g>
<path style="fill-rule:evenodd;clip-rule:evenodd;fill:#C01213;" d="M10.101,94.17c2.615-1.232,6.59-1.547,10.399-2.071
	C16.692,92.623,12.716,92.938,10.101,94.17"/>
<path style="fill-rule:evenodd;clip-rule:evenodd;fill:#C01213;" d="M9.84,94.298c0.06-0.03,0.12-0.06,0.181-0.09
	C9.96,94.237,9.899,94.267,9.84,94.298"/>
<g>
	<defs>
		<path id="SVGID_34_" d="M7.46,100.555c-0.933-3.294,0.194-5.134,2.38-6.257l1.151,2.657C8.903,97.759,7.505,98.885,7.46,100.555"
			/>
	</defs>
	<clipPath id="SVGID_35_">
		<use xlink:href="#SVGID_34_"  style="overflow:visible;"/>
	</clipPath>
	<linearGradient id="SVGID_36_" gradientUnits="userSpaceOnUse" x1="6.4986" y1="98.1235" x2="10.9086" y2="96.7635">
		<stop  offset="0" style="stop-color:#E30613"/>
		<stop  offset="0.2" style="stop-color:#BF1212"/>
		<stop  offset="0.5" style="stop-color:#BE1212"/>
		<stop  offset="0.8" style="stop-color:#BF1212"/>
		<stop  offset="1" style="stop-color:#E30613"/>
	</linearGradient>
	<rect x="6.527" y="94.298" style="clip-path:url(#SVGID_35_);fill:url(#SVGID_36_);" width="4.463" height="6.257"/>
</g>
<g>
	<defs>
		<path id="SVGID_37_" d="M3.938,107.255c-0.298,0.95-0.286,1.878-0.255,2.628c0.319-0.427,0.675-0.822,1.065-1.188
			C4.482,108.228,4.211,107.745,3.938,107.255"/>
	</defs>
	<clipPath id="SVGID_38_">
		<use xlink:href="#SVGID_37_"  style="overflow:visible;"/>
	</clipPath>
	<linearGradient id="SVGID_39_" gradientUnits="userSpaceOnUse" x1="3.7527" y1="108.7085" x2="4.1627" y2="108.5785">
		<stop  offset="0" style="stop-color:#C01213"/>
		<stop  offset="1" style="stop-color:#E30613"/>
	</linearGradient>
	<rect x="3.641" y="107.255" style="clip-path:url(#SVGID_38_);fill:url(#SVGID_39_);" width="1.108" height="2.628"/>
</g>
<path style="fill-rule:evenodd;clip-rule:evenodd;fill:#C01213;" d="M5.624,104.825c-0.927,0.754-1.424,1.598-1.684,2.426
	C4.2,106.423,4.697,105.579,5.624,104.825"/>
<path style="fill-rule:evenodd;clip-rule:evenodd;fill:#C01213;" d="M5.778,104.704c-0.044,0.034-0.088,0.068-0.131,0.103
	C5.69,104.772,5.733,104.738,5.778,104.704"/>
<path style="fill-rule:evenodd;clip-rule:evenodd;fill:#C01213;" d="M5.945,104.58c-0.049,0.035-0.098,0.071-0.145,0.107
	C5.848,104.651,5.896,104.615,5.945,104.58"/>
<g>
	<defs>
		<path id="SVGID_40_" d="M13.374,102.408c-0.2,0.012-0.394,0.025-0.575,0.041c-3.321,0.367-5.444,1.142-6.797,2.091l0.968,2.566
			c2.068-1.132,4.641-1.791,7.499-2.103L13.374,102.408z"/>
	</defs>
	<clipPath id="SVGID_41_">
		<use xlink:href="#SVGID_40_"  style="overflow:visible;"/>
	</clipPath>
	<linearGradient id="SVGID_42_" gradientUnits="userSpaceOnUse" x1="6.4869" y1="105.9192" x2="13.9069" y2="103.6192">
		<stop  offset="0" style="stop-color:#E30613"/>
		<stop  offset="0.2" style="stop-color:#BF1212"/>
		<stop  offset="0.5" style="stop-color:#BE1212"/>
		<stop  offset="0.8" style="stop-color:#BF1212"/>
		<stop  offset="1" style="stop-color:#E30613"/>
	</linearGradient>
	<rect x="6.001" y="102.408" style="clip-path:url(#SVGID_41_);fill:url(#SVGID_42_);" width="8.467" height="4.698"/>
</g>
<g>
	<defs>
		<path id="SVGID_43_" d="M82.055,138.141c0.95-0.482,2.001-1.031,3.025-1.574l-0.274-0.696c-0.994,0.537-2.155,1.155-2.993,1.578
			l0.27,0.679L82.055,138.141z"/>
	</defs>
	<clipPath id="SVGID_44_">
		<use xlink:href="#SVGID_43_"  style="overflow:visible;"/>
	</clipPath>
	<linearGradient id="SVGID_45_" gradientUnits="userSpaceOnUse" x1="81.8096" y1="137.5142" x2="85.0596" y2="136.5042">
		<stop  offset="0" style="stop-color:#E30613"/>
		<stop  offset="0.2" style="stop-color:#BF1212"/>
		<stop  offset="0.5" style="stop-color:#BE1212"/>
		<stop  offset="0.8" style="stop-color:#BF1212"/>
		<stop  offset="1" style="stop-color:#E30613"/>
	</linearGradient>
	<rect x="81.813" y="135.87" style="clip-path:url(#SVGID_44_);fill:url(#SVGID_45_);" width="3.267" height="2.271"/>
</g>
<g>
	<defs>
		<path id="SVGID_46_" d="M43.941,106.065c-3.878-0.964-7.967-1.732-11.902-2.314l1.175,2.567c4.677,0.881,9.005,1.992,12.238,2.915
			C44.955,108.181,44.45,107.124,43.941,106.065"/>
	</defs>
	<clipPath id="SVGID_47_">
		<use xlink:href="#SVGID_46_"  style="overflow:visible;"/>
	</clipPath>
	<linearGradient id="SVGID_48_" gradientUnits="userSpaceOnUse" x1="33.7286" y1="108.0411" x2="43.7686" y2="104.9411">
		<stop  offset="0" style="stop-color:#E30613"/>
		<stop  offset="0.2" style="stop-color:#BF1212"/>
		<stop  offset="0.5" style="stop-color:#BE1212"/>
		<stop  offset="0.8" style="stop-color:#BF1212"/>
		<stop  offset="1" style="stop-color:#E30613"/>
	</linearGradient>
	<rect x="32.039" y="103.751" style="clip-path:url(#SVGID_47_);fill:url(#SVGID_48_);" width="13.413" height="5.482"/>
</g>
<g>
	<defs>
		<path id="SVGID_49_" d="M60.685,113.221l2.227-0.688c0.266,0.379,0.499,0.768,0.685,1.168c2.384,5.138,0.242,7.255-1.829,10.556
			l-2.932,0.905c2.456-4.162,5.195-7.685,2.854-10.959C61.389,113.869,61.051,113.542,60.685,113.221"/>
	</defs>
	<clipPath id="SVGID_50_">
		<use xlink:href="#SVGID_49_"  style="overflow:visible;"/>
	</clipPath>
	<linearGradient id="SVGID_51_" gradientUnits="userSpaceOnUse" x1="63.8151" y1="122.4208" x2="60.5951" y2="114.2408">
		<stop  offset="0" style="stop-color:#F4F4F4"/>
		<stop  offset="0.5" style="stop-color:#DFDDE1"/>
		<stop  offset="1" style="stop-color:#F3F3F4"/>
	</linearGradient>
	<rect x="58.836" y="112.534" style="clip-path:url(#SVGID_50_);fill:url(#SVGID_51_);" width="7.146" height="12.63"/>
</g>
<g>
	<defs>
		<path id="SVGID_52_" d="M59.344,125.007c2.325-4.04,4.683-7.535,2.347-10.803c-0.302-0.336-0.64-0.663-1.006-0.983l-3.269,1.009
			c2.398,1.894,3.182,4.123,2.063,6.928c-0.62,1.554-1.414,3.034-2.211,4.49L59.344,125.007z"/>
	</defs>
	<clipPath id="SVGID_53_">
		<use xlink:href="#SVGID_52_"  style="overflow:visible;"/>
	</clipPath>
	<linearGradient id="SVGID_54_" gradientUnits="userSpaceOnUse" x1="62.0088" y1="122.8969" x2="58.8588" y2="114.8869">
		<stop  offset="0" style="stop-color:#E30613"/>
		<stop  offset="0.2" style="stop-color:#BF1212"/>
		<stop  offset="0.5" style="stop-color:#BE1212"/>
		<stop  offset="0.8" style="stop-color:#BF1212"/>
		<stop  offset="1" style="stop-color:#E30613"/>
	</linearGradient>
	<rect x="57.268" y="113.221" style="clip-path:url(#SVGID_53_);fill:url(#SVGID_54_);" width="6.758" height="12.426"/>
</g>
<g>
	<defs>
		<path id="SVGID_55_" d="M56.589,34.978c0.329-0.387,0.65-0.781,0.963-1.181l0.918,2.146c-0.044-0.162,0.058,0.107-1.086,1.342
			l0.06-0.071C57.151,36.453,56.866,35.707,56.589,34.978"/>
	</defs>
	<clipPath id="SVGID_56_">
		<use xlink:href="#SVGID_55_"  style="overflow:visible;"/>
	</clipPath>
	<linearGradient id="SVGID_57_" gradientUnits="userSpaceOnUse" x1="56.786" y1="35.7754" x2="58.236" y2="35.3354">
		<stop  offset="0" style="stop-color:#E30613"/>
		<stop  offset="0.5" style="stop-color:#B71211"/>
		<stop  offset="1" style="stop-color:#E30613"/>
	</linearGradient>
	<rect x="56.589" y="33.797" style="clip-path:url(#SVGID_56_);fill:url(#SVGID_57_);" width="1.939" height="3.487"/>
</g>
<path style="fill:#AD8E64;" d="M47.338,84.131c0,2.376-1.296,3.756-3.672,3.756c-0.912,0-1.476-0.204-1.572-0.54
	c-0.048-0.18-0.084-1.032-0.084-2.58v-1.692c0-0.984,0-1.98,0.072-2.952c0.372-0.084,0.792-0.132,1.236-0.132
	C45.946,79.991,47.338,81.491,47.338,84.131 M48.634,83.999c0-2.664-1.788-4.308-5.088-4.308c-0.672,0-1.38,0.072-2.1,0.228
	c-0.588-0.096-1.14-0.168-1.692-0.192v0.192c1.092,0.024,1.152,0.6,1.152,2.244v3.516c0,1.644-0.06,2.22-1.152,2.244v0.192
	c0.528-0.024,1.092-0.096,1.692-0.192c0.72,0.132,1.488,0.276,2.376,0.276C46.786,88.199,48.634,86.519,48.634,83.999z"/>
<path style="fill:#AD8E64;" d="M58.546,79.919v-0.192c-0.312,0.012-0.744,0.06-1.32,0.18c-0.48-0.096-0.948-0.156-1.392-0.18v0.192
	c1.056,0.06,1.164,0.588,1.164,2.232v1.356c0,2.772-0.588,4.176-2.76,4.176c-1.032,0-1.764-0.396-2.184-1.152
	c-0.372-0.66-0.468-1.764-0.468-3.36c0-1.5,0.06-2.424,0.204-2.784c0.096-0.264,0.384-0.408,0.876-0.468v-0.192
	c-0.468,0.036-1.008,0.108-1.62,0.192c-0.612-0.096-1.164-0.168-1.68-0.192v0.192c1.08,0.06,1.128,0.6,1.128,2.148v1.92
	c0,1.248,0.084,2.208,0.528,2.952c0.516,0.864,1.524,1.32,2.964,1.32c2.532,0,3.516-1.536,3.516-4.644v-1.464
	C57.502,80.495,57.538,79.967,58.546,79.919"/>
<path style="fill:#AD8E64;" d="M70.366,88.115v-0.192H70.33c-0.972,0-1.02-0.696-1.092-2.7l-0.096-2.904
	c-0.012-0.312-0.012-0.636-0.012-0.948c0-1.116,0-1.416,0.912-1.452v-0.192c-0.372,0.024-0.78,0.072-1.224,0.144
	c-0.228-0.072-0.384-0.096-0.444-0.096c-0.264,0-0.324,0.144-0.528,0.576c-0.636,1.38-1.524,3.444-2.832,6.084
	c-1.032-1.824-2.088-3.912-3.192-6.216c-0.168-0.336-0.252-0.516-0.444-0.516c-0.144,0-0.348,0.072-0.648,0.168
	c-0.468-0.084-0.912-0.132-1.32-0.144v0.192c1.116,0.072,1.152,0.324,1.152,1.512v0.216c0,0.768-0.084,2.076-0.24,3.888
	c-0.06,0.756-0.096,1.32-0.204,1.68c-0.132,0.492-0.324,0.636-0.984,0.708v0.192c0.444-0.036,0.912-0.096,1.404-0.18
	c0.492,0.096,0.96,0.168,1.428,0.18v-0.192c-1.032-0.024-1.128-0.42-1.128-1.656c0-0.54,0.036-2.268,0.228-5.172
	c1.284,2.412,2.448,4.74,3.504,7.02h0.228c0.336-0.816,1.38-3.204,3.252-7.116c0.048,1.044,0.072,1.62,0.072,1.764l0.06,2.316
	c0.012,0.348,0.012,0.78,0.012,1.296c0,1.14-0.072,1.548-0.912,1.548v0.192c0.48-0.024,0.984-0.084,1.524-0.168
	C69.358,88.031,69.874,88.091,70.366,88.115"/>
<path style="fill:#AD8E64;" d="M80.794,80.147v-0.192c-0.372,0.036-0.804,0.108-1.26,0.192c-0.492-0.096-0.948-0.168-1.356-0.192
	v0.192c0.42,0.06,0.696,0.156,0.852,0.396c0.24,0.372,0.252,1.694,0.252,4.002v2.02c-3.924-4.172-5.508-6.598-6.012-6.598
	c-0.096,0-0.276,0.048-0.528,0.132c-0.42-0.084-0.864-0.132-1.284-0.144v0.192c1.212,0.024,1.272,0.6,1.272,2.126v2.79
	c0,2.26-0.036,3.088-1.104,3.1v0.192c0.408-0.024,0.84-0.096,1.344-0.192c0.516,0.108,0.996,0.18,1.464,0.192v-0.192
	c-0.588-0.036-0.924-0.24-1.032-0.612c-0.132-0.47-0.18-1.684-0.18-3.642v-2.5c1.896,1.97,3.924,4.338,6.168,7.03l0.396,0.06
	c-0.012-0.3-0.036-0.468-0.036-0.516v-2.848c0-2.44,0.12-3.906,0.228-4.376C80.086,80.351,80.23,80.219,80.794,80.147"/>
<path style="fill:#AD8E64;" d="M85.834,84.395c-0.36,0.012-0.708,0.012-1.032,0.012c-0.132,0-0.672,0-1.548-0.012
	c0.42-1.152,0.864-2.268,1.308-3.336C85.018,82.211,85.45,83.327,85.834,84.395 M89.278,88.115v-0.192
	c-0.48-0.036-0.804-0.18-0.984-0.456c-0.24-0.348-0.744-1.584-1.572-3.696l-1.632-4.176h-0.372l-1.728,4.152
	c-0.9,2.136-1.416,3.408-1.74,3.756c-0.252,0.276-0.576,0.396-1.044,0.42v0.192c0.432-0.024,0.912-0.096,1.452-0.192
	c0.516,0.096,0.996,0.168,1.428,0.192v-0.192c-0.576-0.024-0.828-0.156-0.828-0.516c0-0.288,0.204-1.008,0.636-2.088l0.216-0.552
	c0.684-0.012,1.176-0.024,1.488-0.024c0.204,0,0.66,0.012,1.392,0.024l0.288,0.792c0.372,1.02,0.54,1.656,0.54,1.872
	c0,0.312-0.288,0.468-0.876,0.492v0.192c0.528-0.012,1.092-0.084,1.68-0.192C88.222,88.019,88.762,88.091,89.278,88.115z"/>
<path style="fill:#AD8E64;" d="M91.738,87.623c0-0.348-0.288-0.624-0.624-0.624c-0.36,0-0.624,0.288-0.624,0.624
	c0,0.336,0.288,0.636,0.624,0.636C91.437,88.259,91.738,87.971,91.738,87.623"/>
<path style="fill:#AD8E64;" d="M99.67,81.815c0-1.332-1.008-2.124-2.94-2.124c-0.9,0-1.596,0.12-2.112,0.216
	c-0.504-0.096-0.984-0.156-1.488-0.18v0.192c1.092,0.036,1.152,0.612,1.152,2.256v3.504c0,1.644-0.06,2.22-1.152,2.244v0.192
	c0.552-0.024,1.116-0.096,1.704-0.192c0.636,0.108,1.248,0.168,1.848,0.192v-0.192c-0.636-0.06-0.984-0.168-1.104-0.444
	c-0.18-0.372-0.192-1.032-0.192-2.016v-3.54c0-0.96,0.012-1.584,0.024-1.848c0.252-0.036,0.504-0.06,0.72-0.06
	c1.548,0,2.316,0.72,2.316,2.088c0,1.152-0.672,1.884-1.788,1.884c-0.192,0-0.384-0.024-0.576-0.06l-0.108,0.252
	c0.288,0.084,0.564,0.096,0.864,0.096C98.434,84.275,99.67,83.255,99.67,81.815"/>
<path style="fill:#AD8E64;" d="M106.917,86.027h-0.24c-0.276,1.44-0.96,1.62-2.688,1.62c-1.344,0-1.356-0.168-1.356-1.752v-3.864
	c0-1.548,0.084-2.088,1.14-2.112v-0.192c-0.528,0.024-1.092,0.096-1.692,0.192c-0.612-0.096-1.176-0.168-1.704-0.192v0.192
	c1.116,0.024,1.14,0.636,1.14,2.376c0,0.348,0.012,0.6,0.012,0.78v1.692c0,0.264-0.012,0.444-0.012,0.54v0.216
	c0,1.764-0.024,2.388-1.14,2.4v0.192c0.504-0.024,1.02-0.084,1.56-0.18c0.768,0.144,1.692,0.18,2.796,0.18
	c0.384,0,0.708,0.012,0.972,0.012c0.696,0,0.972-0.048,0.972-0.348c0-0.084-0.048-0.192-0.108-0.336
	C106.773,87.023,106.87,86.555,106.917,86.027"/>
<g>
	<defs>
		<path id="SVGID_58_" d="M106.917,86.027h-0.24c-0.276,1.44-0.96,1.62-2.688,1.62c-1.344,0-1.356-0.168-1.356-1.752v-3.864
			c0-1.548,0.084-2.088,1.14-2.112v-0.192c-0.528,0.024-1.092,0.096-1.692,0.192c-0.612-0.096-1.176-0.168-1.704-0.192v0.192
			c1.116,0.024,1.14,0.636,1.14,2.376c0,0.348,0.012,0.6,0.012,0.78v1.692c0,0.264-0.012,0.444-0.012,0.54v0.216
			c0,1.764-0.024,2.388-1.14,2.4v0.192c0.504-0.024,1.02-0.084,1.56-0.18c0.768,0.144,1.692,0.18,2.796,0.18
			c0.384,0,0.708,0.012,0.972,0.012c0.696,0,0.972-0.048,0.972-0.348c0-0.084-0.048-0.192-0.108-0.336
			C106.773,87.023,106.87,86.555,106.917,86.027 M99.67,81.815c0-1.332-1.008-2.124-2.94-2.124c-0.9,0-1.596,0.12-2.112,0.216
			c-0.504-0.096-0.984-0.156-1.488-0.18v0.192c1.092,0.036,1.152,0.612,1.152,2.256v3.504c0,1.644-0.06,2.22-1.152,2.244v0.192
			c0.552-0.024,1.116-0.096,1.704-0.192c0.636,0.108,1.248,0.168,1.848,0.192v-0.192c-0.636-0.06-0.984-0.168-1.104-0.444
			c-0.18-0.372-0.192-1.032-0.192-2.016v-3.54c0-0.96,0.012-1.584,0.024-1.848c0.252-0.036,0.504-0.06,0.72-0.06
			c1.548,0,2.316,0.72,2.316,2.088c0,1.152-0.672,1.884-1.788,1.884c-0.192,0-0.384-0.024-0.576-0.06l-0.108,0.252
			c0.288,0.084,0.564,0.096,0.864,0.096C98.434,84.275,99.67,83.255,99.67,81.815z M91.738,87.623c0-0.348-0.288-0.624-0.624-0.624
			c-0.36,0-0.624,0.288-0.624,0.624c0,0.336,0.288,0.636,0.624,0.636C91.437,88.259,91.738,87.971,91.738,87.623z M85.834,84.395
			c-0.36,0.012-0.708,0.012-1.032,0.012c-0.132,0-0.672,0-1.548-0.012c0.42-1.152,0.864-2.268,1.308-3.336
			C85.018,82.211,85.45,83.327,85.834,84.395z M89.278,88.115v-0.192c-0.48-0.036-0.804-0.18-0.984-0.456
			c-0.24-0.348-0.744-1.584-1.572-3.696l-1.632-4.176h-0.372l-1.728,4.152c-0.9,2.136-1.416,3.408-1.74,3.756
			c-0.252,0.276-0.576,0.396-1.044,0.42v0.192c0.432-0.024,0.912-0.096,1.452-0.192c0.516,0.096,0.996,0.168,1.428,0.192v-0.192
			c-0.576-0.024-0.828-0.156-0.828-0.516c0-0.288,0.204-1.008,0.636-2.088l0.216-0.552c0.684-0.012,1.176-0.024,1.488-0.024
			c0.204,0,0.66,0.012,1.392,0.024l0.288,0.792c0.372,1.02,0.54,1.656,0.54,1.872c0,0.312-0.288,0.468-0.876,0.492v0.192
			c0.528-0.012,1.092-0.084,1.68-0.192C88.222,88.019,88.762,88.091,89.278,88.115z M80.794,80.147v-0.192
			c-0.372,0.036-0.804,0.108-1.26,0.192c-0.492-0.096-0.948-0.168-1.356-0.192v0.192c0.42,0.06,0.696,0.156,0.852,0.396
			c0.24,0.372,0.252,1.694,0.252,4.002v2.02c-3.924-4.172-5.508-6.598-6.012-6.598c-0.096,0-0.276,0.048-0.528,0.132
			c-0.42-0.084-0.864-0.132-1.284-0.144v0.192c1.212,0.024,1.272,0.6,1.272,2.126v2.79c0,2.26-0.036,3.088-1.104,3.1v0.192
			c0.408-0.024,0.84-0.096,1.344-0.192c0.516,0.108,0.996,0.18,1.464,0.192v-0.192c-0.588-0.036-0.924-0.24-1.032-0.612
			c-0.132-0.47-0.18-1.684-0.18-3.642v-2.5c1.896,1.97,3.924,4.338,6.168,7.03l0.396,0.06c-0.012-0.3-0.036-0.468-0.036-0.516
			v-2.848c0-2.44,0.12-3.906,0.228-4.376C80.086,80.351,80.23,80.219,80.794,80.147z M70.366,88.115v-0.192H70.33
			c-0.972,0-1.02-0.696-1.092-2.7l-0.096-2.904c-0.012-0.312-0.012-0.636-0.012-0.948c0-1.116,0-1.416,0.912-1.452v-0.192
			c-0.372,0.024-0.78,0.072-1.224,0.144c-0.228-0.072-0.384-0.096-0.444-0.096c-0.264,0-0.324,0.144-0.528,0.576
			c-0.636,1.38-1.524,3.444-2.832,6.084c-1.032-1.824-2.088-3.912-3.192-6.216c-0.168-0.336-0.252-0.516-0.444-0.516
			c-0.144,0-0.348,0.072-0.648,0.168c-0.468-0.084-0.912-0.132-1.32-0.144v0.192c1.116,0.072,1.152,0.324,1.152,1.512v0.216
			c0,0.768-0.084,2.076-0.24,3.888c-0.06,0.756-0.096,1.32-0.204,1.68c-0.132,0.492-0.324,0.636-0.984,0.708v0.192
			c0.444-0.036,0.912-0.096,1.404-0.18c0.492,0.096,0.96,0.168,1.428,0.18v-0.192c-1.032-0.024-1.128-0.42-1.128-1.656
			c0-0.54,0.036-2.268,0.228-5.172c1.284,2.412,2.448,4.74,3.504,7.02h0.228c0.336-0.816,1.38-3.204,3.252-7.116
			c0.048,1.044,0.072,1.62,0.072,1.764l0.06,2.316c0.012,0.348,0.012,0.78,0.012,1.296c0,1.14-0.072,1.548-0.912,1.548v0.192
			c0.48-0.024,0.984-0.084,1.524-0.168C69.358,88.031,69.874,88.091,70.366,88.115z M58.546,79.919v-0.192
			c-0.312,0.012-0.744,0.06-1.32,0.18c-0.48-0.096-0.948-0.156-1.392-0.18v0.192c1.056,0.06,1.164,0.588,1.164,2.232v1.356
			c0,2.772-0.588,4.176-2.76,4.176c-1.032,0-1.764-0.396-2.184-1.152c-0.372-0.66-0.468-1.764-0.468-3.36
			c0-1.5,0.06-2.424,0.204-2.784c0.096-0.264,0.384-0.408,0.876-0.468v-0.192c-0.468,0.036-1.008,0.108-1.62,0.192
			c-0.612-0.096-1.164-0.168-1.68-0.192v0.192c1.08,0.06,1.128,0.6,1.128,2.148v1.92c0,1.248,0.084,2.208,0.528,2.952
			c0.516,0.864,1.524,1.32,2.964,1.32c2.532,0,3.516-1.536,3.516-4.644v-1.464C57.502,80.495,57.538,79.967,58.546,79.919z
			 M47.338,84.131c0,2.376-1.296,3.756-3.672,3.756c-0.912,0-1.476-0.204-1.572-0.54c-0.048-0.18-0.084-1.032-0.084-2.58v-1.692
			c0-0.984,0-1.98,0.072-2.952c0.372-0.084,0.792-0.132,1.236-0.132C45.946,79.991,47.338,81.491,47.338,84.131z M48.634,83.999
			c0-2.664-1.788-4.308-5.088-4.308c-0.672,0-1.38,0.072-2.1,0.228c-0.588-0.096-1.14-0.168-1.692-0.192v0.192
			c1.092,0.024,1.152,0.6,1.152,2.244v3.516c0,1.644-0.06,2.22-1.152,2.244v0.192c0.528-0.024,1.092-0.096,1.692-0.192
			c0.72,0.132,1.488,0.276,2.376,0.276C46.786,88.199,48.634,86.519,48.634,83.999z"/>
	</defs>
	<clipPath id="SVGID_59_">
		<use xlink:href="#SVGID_58_"  style="overflow:visible;"/>
	</clipPath>
	<g style="clip-path:url(#SVGID_59_);">
		<defs>
			<rect id="SVGID_60_" x="39.755" y="79.595" width="67.163" height="8.904"/>
		</defs>
		<clipPath id="SVGID_61_">
			<use xlink:href="#SVGID_60_"  style="overflow:visible;"/>
		</clipPath>
		<g transform="matrix(1 0 0 1 0 0)" style="clip-path:url(#SVGID_61_);">
			
				<image style="overflow:visible;" width="335" height="44" xlink:href="B5895B00.png"  transform="matrix(0.2005 0 0 0.2024 39.7547 79.5952)">
			</image>
		</g>
	</g>
</g>
</svg>
