<?xml version="1.0" encoding="utf-8"?>
<!-- Generator: Adobe Illustrator 15.1.0, SVG Export Plug-In . SVG Version: 6.00 Build 0)  -->
<!DOCTYPE svg PUBLIC "-//W3C//DTD SVG 1.1//EN" "http://www.w3.org/Graphics/SVG/1.1/DTD/svg11.dtd">
<svg version="1.1" xmlns="http://www.w3.org/2000/svg" xmlns:xlink="http://www.w3.org/1999/xlink" x="0px" y="0px" width="370px"
	 height="300px" viewBox="0 0 370 300" enable-background="new 0 0 370 300" xml:space="preserve">
<g id="Layer_1">
</g>
<g id="Layer_2">
	<g>
		<defs>
			<rect id="SVGID_1_" x="-113.333" width="1980" height="300"/>
		</defs>
		<clipPath id="SVGID_2_">
			<use xlink:href="#SVGID_1_"  overflow="visible"/>
		</clipPath>
		<g clip-path="url(#SVGID_2_)">
			<path fill="#AC8D64" d="M168.348,134.084c0,7.885-4.302,12.463-12.187,12.463c-3.028,0-4.899-0.677-5.217-1.791
				c-0.16-0.6-0.278-3.424-0.278-8.564v-5.615c0-3.264,0-6.569,0.238-9.796c1.236-0.278,2.626-0.437,4.102-0.437
				C163.727,120.344,168.348,125.322,168.348,134.084 M172.649,133.645c0-8.842-5.936-14.297-16.887-14.297
				c-2.231,0-4.58,0.238-6.971,0.756c-1.95-0.318-3.782-0.557-5.612-0.638v0.638c3.62,0.08,3.821,1.99,3.821,7.449v11.667
				c0,5.456-0.201,7.368-3.821,7.448v0.637c1.752-0.08,3.62-0.319,5.612-0.637c2.391,0.438,4.94,0.916,7.888,0.916
				C166.517,147.584,172.649,142.008,172.649,133.645z"/>
			<path fill="#AC8D64" d="M205.542,120.104v-0.638c-1.033,0.042-2.467,0.198-4.378,0.599c-1.594-0.317-3.145-0.518-4.621-0.599
				v0.638c3.506,0.2,3.861,1.953,3.861,7.406v4.502c0,9.2-1.949,13.858-9.161,13.858c-3.422,0-5.851-1.313-7.244-3.822
				c-1.236-2.19-1.555-5.856-1.555-11.149c0-4.98,0.2-8.047,0.677-9.24c0.316-0.878,1.274-1.354,2.909-1.555v-0.638
				c-1.556,0.12-3.346,0.36-5.376,0.638c-2.033-0.318-3.864-0.557-5.576-0.638v0.638c3.584,0.2,3.742,1.99,3.742,7.129v6.372
				c0,4.142,0.281,7.329,1.754,9.796c1.712,2.868,5.058,4.383,9.837,4.383c8.402,0,11.668-5.099,11.668-15.414v-4.859
				C202.08,122.015,202.196,120.263,205.542,120.104"/>
			<path fill="#AC8D64" d="M244.772,147.305v-0.637h-0.119c-3.226,0-3.388-2.311-3.625-8.963l-0.316-9.637
				c-0.042-1.033-0.042-2.111-0.042-3.146c0-3.704,0-4.7,3.024-4.819v-0.638c-1.233,0.081-2.587,0.24-4.059,0.479
				c-0.757-0.239-1.275-0.318-1.476-0.318c-0.875,0-1.076,0.477-1.752,1.91c-2.109,4.58-5.057,11.43-9.398,20.193
				c-3.423-6.055-6.928-12.984-10.593-20.631c-0.557-1.113-0.836-1.713-1.475-1.713c-0.477,0-1.151,0.24-2.15,0.559
				c-1.553-0.281-3.025-0.438-4.383-0.479v0.638c3.706,0.24,3.826,1.074,3.826,5.017v0.718c0,2.549-0.281,6.893-0.798,12.904
				c-0.199,2.508-0.317,4.381-0.677,5.576c-0.438,1.632-1.075,2.109-3.264,2.35v0.637c1.471-0.12,3.026-0.319,4.656-0.597
				c1.638,0.317,3.188,0.557,4.743,0.597v-0.637c-3.428-0.08-3.744-1.395-3.744-5.498c0-1.791,0.12-7.525,0.757-17.163
				c4.259,8.005,8.124,15.731,11.628,23.298h0.756c1.116-2.709,4.578-10.633,10.791-23.616c0.161,3.463,0.24,5.376,0.24,5.854
				l0.2,7.686c0.04,1.154,0.04,2.588,0.04,4.301c0,3.785-0.239,5.139-3.024,5.139v0.637c1.594-0.08,3.265-0.279,5.056-0.557
				C241.428,147.025,243.137,147.225,244.772,147.305"/>
			<path fill="#AC8D64" d="M279.38,120.859v-0.637c-1.236,0.121-2.666,0.359-4.183,0.637c-1.63-0.316-3.145-0.556-4.498-0.637v0.637
				c1.393,0.201,2.309,0.52,2.827,1.316c0.797,1.232,0.836,5.62,0.836,13.281v6.703c-13.022-13.846-18.281-21.897-19.952-21.897
				c-0.318,0-0.914,0.159-1.752,0.438c-1.394-0.279-2.87-0.438-4.259-0.479v0.637c4.02,0.082,4.219,1.992,4.219,7.058v9.259
				c0,7.5-0.118,10.249-3.664,10.288v0.638c1.355-0.079,2.791-0.318,4.461-0.638c1.713,0.358,3.304,0.598,4.859,0.638v-0.638
				c-1.951-0.119-3.067-0.796-3.425-2.032c-0.439-1.56-0.598-5.587-0.598-12.086v-8.297c6.291,6.537,13.024,14.397,20.471,23.33
				l1.312,0.199c-0.04-0.994-0.117-1.553-0.117-1.712v-9.451c0-8.099,0.398-12.964,0.754-14.524
				C277.03,121.537,277.508,121.1,279.38,120.859"/>
			<path fill="#AC8D64" d="M296.108,134.959C294.912,135,293.757,135,292.681,135c-0.438,0-2.231,0-5.137-0.041
				c1.392-3.824,2.868-7.525,4.34-11.071C293.399,127.711,294.832,131.414,296.108,134.959 M307.537,147.305v-0.637
				c-1.593-0.121-2.671-0.598-3.267-1.514c-0.797-1.156-2.47-5.258-5.215-12.266l-5.418-13.859h-1.234l-5.735,13.779
				c-2.988,7.088-4.699,11.311-5.775,12.465c-0.835,0.916-1.911,1.314-3.464,1.395v0.637c1.432-0.08,3.026-0.319,4.818-0.637
				c1.712,0.317,3.306,0.557,4.74,0.637v-0.637c-1.911-0.08-2.75-0.518-2.75-1.713c0-0.957,0.679-3.346,2.112-6.93l0.718-1.834
				c2.269-0.039,3.901-0.078,4.938-0.078c0.676,0,2.189,0.039,4.621,0.078l0.953,2.629c1.233,3.388,1.795,5.498,1.795,6.215
				c0,1.035-0.958,1.553-2.909,1.633v0.637c1.753-0.04,3.625-0.279,5.575-0.637C304.031,146.985,305.825,147.225,307.537,147.305z"
				/>
			<path fill="#AC8D64" d="M315.701,145.672c0-1.156-0.957-2.071-2.072-2.071c-1.195,0-2.073,0.957-2.073,2.071
				c0,1.115,0.958,2.111,2.073,2.111C314.703,147.783,315.701,146.828,315.701,145.672"/>
			<path fill="#AC8D64" d="M342.024,126.396c0-4.422-3.346-7.049-9.756-7.049c-2.987,0-5.299,0.399-7.01,0.717
				c-1.673-0.317-3.265-0.518-4.937-0.599v0.638c3.624,0.119,3.821,2.031,3.821,7.487v11.629c0,5.456-0.197,7.368-3.821,7.448v0.637
				c1.832-0.08,3.701-0.319,5.653-0.637c2.111,0.357,4.143,0.557,6.135,0.637v-0.637c-2.111-0.199-3.267-0.557-3.666-1.475
				c-0.595-1.234-0.634-3.424-0.634-6.69v-11.749c0-3.185,0.039-5.256,0.08-6.131c0.833-0.121,1.673-0.201,2.386-0.201
				c5.139,0,7.688,2.39,7.688,6.931c0,3.823-2.232,6.252-5.934,6.252c-0.639,0-1.272-0.079-1.913-0.198l-0.358,0.836
				c0.957,0.277,1.873,0.317,2.868,0.317C337.924,134.56,342.024,131.176,342.024,126.396"/>
			<path fill="#AC8D64" d="M366.08,140.375h-0.798c-0.914,4.779-3.185,5.377-8.92,5.377c-4.46,0-4.501-0.559-4.501-5.816v-12.822
				c0-5.139,0.278-6.93,3.784-7.01v-0.638c-1.752,0.081-3.625,0.319-5.616,0.638c-2.032-0.318-3.903-0.557-5.657-0.638v0.638
				c3.706,0.08,3.788,2.111,3.788,7.886c0,1.153,0.038,1.992,0.038,2.587v5.615c0,0.879-0.038,1.476-0.038,1.795v0.717
				c0,5.854-0.082,7.924-3.788,7.965v0.637c1.674-0.08,3.387-0.279,5.18-0.597c2.548,0.477,5.616,0.597,9.278,0.597
				c1.274,0,2.35,0.04,3.228,0.04c2.31,0,3.224-0.16,3.224-1.155c0-0.277-0.161-0.638-0.358-1.115
				C365.6,143.682,365.918,142.129,366.08,140.375"/>
			<path fill="#AC8D64" d="M245.044,172.993c0-0.479-0.58-0.505-1.81-0.505h-0.679c-2.719,0-4.932,0.102-6.689,0.379
				c-1.134-0.201-2.19-0.354-3.195-0.379v0.405c2.34,0.048,2.39,1.331,2.39,4.979c0,0.729,0.024,1.257,0.024,1.636v3.545
				c0,0.554-0.024,0.932-0.024,1.132v0.454c0,3.696-0.05,5.006-2.39,5.029v0.402c1.106-0.049,2.313-0.201,3.573-0.402
				c1.38,0.227,2.639,0.378,3.796,0.402v-0.402h-0.174c-2.34,0-2.466-1.283-2.466-4.854v-3.246h2.941
				c2.214,0,3.093,0.027,3.219,1.586h0.502c0-0.629-0.124-1.309-0.275-2.037c0.178-0.679,0.302-1.307,0.352-1.887h-0.478
				c-0.199,1.434-1.055,1.459-3.522,1.459h-2.741v-4.378c0-0.779,0-1.735,0.05-2.866h2.867c2.791,0,3.823,0.277,4.051,2.817h0.476
				c0-0.303,0.023-0.529,0.023-0.73c0-0.576-0.072-1.207-0.174-1.887C244.917,173.396,245.044,173.243,245.044,172.993"/>
			<path fill="#AC8D64" d="M265.62,172.894v-0.405c-0.653,0.025-1.56,0.126-2.766,0.379c-1.005-0.201-1.988-0.328-2.916-0.379v0.405
				c2.21,0.124,2.437,1.231,2.437,4.675v2.846c0,5.809-1.23,8.751-5.783,8.751c-2.165,0-3.7-0.83-4.579-2.415
				c-0.778-1.383-0.983-3.697-0.983-7.043c0-3.142,0.127-5.079,0.432-5.834c0.2-0.555,0.802-0.855,1.835-0.979v-0.405
				c-0.983,0.077-2.116,0.227-3.396,0.405c-1.284-0.204-2.441-0.354-3.521-0.405v0.405c2.263,0.124,2.364,1.255,2.364,4.501v4.023
				c0,2.615,0.176,4.629,1.106,6.188c1.084,1.811,3.193,2.767,6.213,2.767c5.308,0,7.368-3.22,7.368-9.733v-3.07
				C263.429,174.098,263.507,172.993,265.62,172.894"/>
			<path fill="#AC8D64" d="M286.294,172.867v-0.404c-0.78,0.076-1.686,0.227-2.642,0.404c-1.03-0.201-1.986-0.354-2.843-0.404v0.404
				c0.882,0.126,1.458,0.326,1.788,0.831c0.502,0.778,0.53,3.551,0.53,8.388v4.234c-8.225-8.745-11.546-13.832-12.604-13.832
				c-0.199,0-0.579,0.102-1.105,0.277c-0.882-0.176-1.811-0.277-2.691-0.303v0.404c2.541,0.049,2.665,1.258,2.665,4.456v5.849
				c0,4.736-0.074,6.473-2.312,6.496v0.402c0.855-0.049,1.76-0.201,2.815-0.402c1.081,0.227,2.087,0.378,3.068,0.402v-0.402
				c-1.232-0.074-1.936-0.503-2.165-1.283c-0.275-0.984-0.374-3.529-0.374-7.633v-5.241c3.973,4.131,8.223,9.093,12.927,14.736
				l0.833,0.125c-0.027-0.629-0.076-0.979-0.076-1.079v-5.973c0-5.114,0.25-8.186,0.478-9.172
				C284.81,173.294,285.113,173.018,286.294,172.867"/>
			<path fill="#AC8D64" d="M303.725,181.721c0,4.98-2.715,7.873-7.695,7.873c-1.913,0-3.095-0.429-3.298-1.133
				c-0.098-0.377-0.174-2.162-0.174-5.408v-3.545c0-2.063,0-4.15,0.152-6.189c0.779-0.175,1.659-0.275,2.591-0.275
				C300.809,173.043,303.725,176.186,303.725,181.721 M306.44,181.443c0-5.584-3.749-9.029-10.664-9.029
				c-1.409,0-2.892,0.151-4.399,0.479c-1.234-0.204-2.392-0.354-3.547-0.405v0.405c2.286,0.048,2.413,1.255,2.413,4.702v7.369
				c0,3.445-0.127,4.654-2.413,4.703v0.402c1.104-0.049,2.286-0.201,3.547-0.402c1.507,0.276,3.118,0.579,4.979,0.579
				C302.569,190.247,306.44,186.725,306.44,181.443z"/>
			<path fill="#AC8D64" d="M317.634,182.273c-0.753,0.027-1.484,0.027-2.164,0.027c-0.277,0-1.405,0-3.244-0.027
				c0.878-2.414,1.811-4.755,2.741-6.993C315.925,177.695,316.831,180.034,317.634,182.273 M324.855,190.07v-0.402
				c-1.008-0.074-1.689-0.375-2.064-0.955c-0.502-0.729-1.559-3.319-3.295-7.746l-3.42-8.753h-0.78l-3.622,8.701
				c-1.887,4.479-2.969,7.144-3.647,7.874c-0.528,0.576-1.207,0.83-2.189,0.879v0.402c0.91-0.049,1.911-0.201,3.046-0.402
				c1.078,0.201,2.085,0.354,2.99,0.402v-0.402c-1.206-0.049-1.733-0.327-1.733-1.082c0-0.602,0.428-2.111,1.333-4.377l0.452-1.156
				c1.434-0.025,2.465-0.05,3.118-0.05c0.427,0,1.384,0.024,2.917,0.05l0.605,1.66c0.78,2.139,1.131,3.471,1.131,3.925
				c0,0.655-0.603,0.981-1.833,1.03v0.402c1.104-0.024,2.288-0.176,3.518-0.402C322.641,189.869,323.77,190.021,324.855,190.07z"/>
			<path fill="#AC8D64" d="M340.649,172.916l-0.428-0.15c-0.101,0.201-0.201,0.277-0.427,0.277c-0.655,0-2.516-0.805-5.333-0.805
				c-6.088,0-9.985,3.771-9.985,9.254c0,5.335,3.671,8.88,9.936,8.88c2.414,0,4.402-0.478,5.81-1.257
				c0-0.302-0.025-0.604-0.126-0.957c0.227-0.778,0.377-1.531,0.429-2.287h-0.552c-0.253,2.49-2.063,3.797-5.236,3.797
				c-4.5,0-7.518-3.168-7.518-8.576c0-5.207,2.741-8.275,7.217-8.275c3.297,0,5.005,1.561,5.132,4.677h0.504
				c0.024-0.653,0.049-1.105,0.049-1.308c0-0.35-0.025-0.879-0.049-1.635C340.322,174.023,340.496,173.495,340.649,172.916"/>
			<path fill="#AC8D64" d="M349.552,172.894v-0.405c-1.08,0.051-2.263,0.201-3.57,0.405c-1.28-0.204-2.464-0.354-3.57-0.405v0.405
				c2.29,0.073,2.414,1.28,2.414,4.728v6.613c0,5.938-0.073,8.98-3.246,10.161l0.178,0.38c1.532-0.453,2.793-1.283,3.621-2.291
				c1.66-2.011,1.76-4.4,1.76-7.695v-7.168C347.138,174.174,347.289,172.941,349.552,172.894"/>
			<path fill="#AC8D64" d="M360.293,182.273c-0.754,0.027-1.481,0.027-2.165,0.027c-0.277,0-1.406,0-3.244-0.027
				c0.878-2.414,1.812-4.755,2.741-6.993C358.584,177.695,359.489,180.034,360.293,182.273 M367.512,190.07v-0.402
				c-1.006-0.074-1.687-0.375-2.063-0.955c-0.503-0.729-1.559-3.319-3.295-7.746l-3.42-8.753h-0.779l-3.622,8.701
				c-1.887,4.479-2.969,7.144-3.646,7.874c-0.53,0.576-1.21,0.83-2.192,0.879v0.402c0.909-0.049,1.911-0.201,3.047-0.402
				c1.078,0.201,2.086,0.354,2.987,0.402v-0.402c-1.203-0.049-1.733-0.327-1.733-1.082c0-0.602,0.428-2.111,1.335-4.377l0.453-1.156
				c1.432-0.025,2.464-0.05,3.117-0.05c0.427,0,1.385,0.024,2.916,0.05l0.606,1.66c0.78,2.139,1.131,3.471,1.131,3.925
				c0,0.655-0.604,0.981-1.833,1.03v0.402c1.104-0.024,2.288-0.176,3.521-0.402C365.299,189.869,366.431,190.021,367.512,190.07z"/>
			<path fill-rule="evenodd" clip-rule="evenodd" fill="#F1F1F3" d="M38.605,198.586c32.187-3.417,174.882,7.212,194.521,49.521
				c10.098,21.76-1.324,29.159-9.721,44.629c-8.403,15.473-14.214,36.371-7.578,48.823c6.638,12.452,10.885,12.248,21.142,12.517
				c42.25,1.1,128.079-54.715,122.829-51.742c-8.659,8.617-125.883,86.025-147.053,47.895
				c-30.896-45.754,31.252-74.955,13.19-100.229c-30.59-34.031-151.583-47.197-184.469-44.35
				C8.815,209.262,6.84,223.293,7.032,232.255C4.345,227.816-8.057,203.535,38.605,198.586z M101.771,120.582
				c1.349,13.299,8.373,27.988-26.932,34.085c-35.301,6.097-79.002,14.167-53.524,44.257c-0.002-0.145,0.005-0.281,0.011-0.421
				c-0.787-2.271-1.155-4.348-1.165-6.255c-2.03-26.206,39.814-21.559,67.555-28.836c0.955-0.257,1.895-0.521,2.824-0.795
				c9.005-2.747,16.177-7.018,19.294-14.455c10.74-35.219-6.024-37.938-2.235-82.75c0.032-0.854,0.089-1.695,0.166-2.535
				c4.748-54.14,85.263-77.043,115.029-135.636c18.614-45.663,15.241-89.538,13.923-100.966l-0.048-0.219
				c0.716,18.555,0.07,69.324-23.383,103.824c-9.991,14.698-21.008,25.76-32.308,35.354c-28.748,24.407-59.316,39.283-79.397,80.182
				C91.475,70.311,100.418,107.285,101.771,120.582z"/>
			<path fill-rule="evenodd" clip-rule="evenodd" fill="#E20613" d="M21.327,198.503c-12.667-44.72,75.159-18.472,88.508-50.341
				c10.74-35.219-6.024-37.938-2.235-82.75c2.409-55.975,84.967-78.672,115.194-138.171c18.614-45.663,15.241-89.538,13.923-100.966
				c0.824,3.738,11.839,56.311-9.15,107.094c-14.24,27.696-38.511,48.189-60.487,67.469c-24.853,21.804-46.774,42.062-47.942,69.448
				c-0.611,14.428,2.487,28.324,4.583,41.623c2.777,17.622,3.131,37.578-7.972,49.546c-11.103,11.969-13.385,11.096-33.045,14.775
				c-19.664,3.682-18.432,2.162-27.605,3.668C37.198,182.84,21.618,187.602,21.327,198.503 M211.577,347.266
				c-2.492-3.261-4.167-6.939-5.055-10.115c-10.513-37.493,36.062-63.852,19.413-87.15c-30.59-34.031-151.583-47.197-184.469-44.35
				c-34.457,3.812-34.75,19.227-34.391,28.044c28.806-38.555,137.442-8.983,169.896,1.233
				c32.574,10.252,48.214,22.268,40.617,41.309c-4.966,12.445-12.891,23.621-17.584,35.389c-2.488,6.236-4.39,13.865-3.816,19.489
				c0.57,5.624,2.218,8.202,3.943,11.54c24.162,46.78,124.258-7.939,159.669-40.32c-11.315,7.787-95.448,68.207-137.283,51.914
				C218.417,352.65,214.073,350.523,211.577,347.266z"/>
		</g>
	</g>
</g>
</svg>
