<?xml version="1.0" encoding="utf-8"?>
<!-- Generator: Adobe Illustrator 15.1.0, SVG Export Plug-In . SVG Version: 6.00 Build 0)  -->
<!DOCTYPE svg PUBLIC "-//W3C//DTD SVG 1.1//EN" "http://www.w3.org/Graphics/SVG/1.1/DTD/svg11.dtd">
<svg version="1.1" id="Layer_1" xmlns="http://www.w3.org/2000/svg" xmlns:xlink="http://www.w3.org/1999/xlink" x="0px" y="0px"
	 width="880px" height="1283.334px" viewBox="0 0 880 1283.334" enable-background="new 0 0 880 1283.334" xml:space="preserve">
<path fill="#AD8E64" d="M399.014,739.203c0,18.81-10.26,29.734-29.07,29.734c-7.22,0-11.685-1.615-12.445-4.274
	c-0.38-1.426-0.665-8.171-0.665-20.426v-13.395c0-7.79,0-15.675,0.57-23.37c2.945-0.665,6.27-1.045,9.785-1.045
	C387.994,706.428,399.014,718.303,399.014,739.203 M409.274,738.158c0-21.09-14.155-34.105-40.28-34.105
	c-5.32,0-10.925,0.57-16.625,1.805c-4.655-0.76-9.025-1.33-13.395-1.52v1.52c8.645,0.19,9.12,4.75,9.12,17.765v27.835
	c0,13.015-0.476,17.575-9.12,17.765v1.52c4.18-0.189,8.645-0.76,13.395-1.52c5.7,1.045,11.78,2.186,18.811,2.186
	C394.644,771.408,409.274,758.107,409.274,738.158z"/>
<path fill="#AD8E64" d="M487.744,705.858v-1.52c-2.471,0.095-5.891,0.475-10.45,1.425c-3.8-0.76-7.505-1.235-11.02-1.425v1.52
	c8.36,0.475,9.214,4.655,9.214,17.669v10.735c0,21.945-4.654,33.06-21.849,33.06c-8.17,0-13.965-3.135-17.29-9.119
	c-2.945-5.226-3.705-13.966-3.705-26.601c0-11.875,0.475-19.19,1.615-22.04c0.76-2.09,3.04-3.23,6.935-3.705v-1.52
	c-3.705,0.285-7.98,0.855-12.825,1.52c-4.845-0.76-9.215-1.33-13.3-1.52v1.52c8.55,0.475,8.93,4.75,8.93,17.004v15.2
	c0,9.88,0.665,17.48,4.18,23.37c4.085,6.84,12.065,10.45,23.465,10.45c20.045,0,27.834-12.16,27.834-36.765v-11.591
	C479.478,710.418,479.763,706.238,487.744,705.858"/>
<path fill="#AD8E64" d="M581.318,770.742v-1.52h-0.285c-7.694,0-8.074-5.51-8.645-21.375l-0.76-22.99
	c-0.096-2.47-0.096-5.035-0.096-7.505c0-8.834,0-11.209,7.221-11.495v-1.52c-2.945,0.19-6.175,0.57-9.69,1.14
	c-1.805-0.57-3.04-0.76-3.515-0.76c-2.09,0-2.565,1.14-4.18,4.56c-5.035,10.925-12.065,27.265-22.42,48.166
	c-8.17-14.44-16.53-30.971-25.271-49.21c-1.33-2.66-1.995-4.085-3.515-4.085c-1.141,0-2.755,0.57-5.13,1.33
	c-3.705-0.665-7.221-1.045-10.45-1.14v1.52c8.835,0.57,9.12,2.565,9.12,11.97v1.71c0,6.079-0.665,16.435-1.9,30.779
	c-0.475,5.985-0.76,10.45-1.615,13.301c-1.045,3.895-2.564,5.034-7.79,5.604v1.52c3.516-0.284,7.221-0.76,11.115-1.425
	c3.896,0.761,7.6,1.33,11.306,1.425v-1.52c-8.171-0.189-8.931-3.325-8.931-13.109c0-4.275,0.285-17.955,1.805-40.945
	c10.165,19.095,19.381,37.525,27.74,55.574h1.805c2.66-6.459,10.926-25.364,25.745-56.334c0.38,8.265,0.57,12.825,0.57,13.965
	l0.475,18.335c0.096,2.755,0.096,6.175,0.096,10.26c0,9.024-0.57,12.255-7.221,12.255v1.52c3.801-0.189,7.79-0.664,12.065-1.329
	C573.338,770.078,577.423,770.553,581.318,770.742"/>
<path fill="#AD8E64" d="M663.874,707.663v-1.52c-2.945,0.285-6.365,0.855-9.976,1.52c-3.895-0.76-7.505-1.33-10.734-1.52v1.52
	c3.324,0.475,5.51,1.235,6.745,3.135c1.899,2.945,1.994,13.411,1.994,31.683v15.991c-31.064-33.028-43.604-52.233-47.595-52.233
	c-0.76,0-2.185,0.38-4.18,1.045c-3.325-0.665-6.84-1.045-10.165-1.14v1.52c9.595,0.19,10.07,4.75,10.07,16.831v22.087
	c0,17.892-0.285,24.447-8.74,24.542v1.52c3.229-0.189,6.649-0.76,10.64-1.52c4.085,0.854,7.885,1.425,11.59,1.52v-1.52
	c-4.654-0.285-7.314-1.9-8.17-4.845c-1.045-3.722-1.425-13.332-1.425-28.833v-19.792c15.01,15.595,31.065,34.342,48.83,55.654
	l3.135,0.476c-0.095-2.375-0.285-3.705-0.285-4.085v-22.547c0-19.316,0.95-30.922,1.805-34.643
	C658.268,709.278,659.408,708.233,663.874,707.663"/>
<path fill="#AD8E64" d="M703.773,741.293c-2.851,0.095-5.605,0.095-8.17,0.095c-1.045,0-5.32,0-12.256-0.095
	c3.325-9.12,6.84-17.955,10.355-26.41C697.313,724.003,700.732,732.838,703.773,741.293 M731.038,770.742v-1.52
	c-3.8-0.285-6.365-1.425-7.79-3.609c-1.9-2.756-5.89-12.541-12.445-29.261l-12.92-33.06h-2.945l-13.68,32.87
	c-7.125,16.909-11.209,26.979-13.774,29.734c-1.995,2.186-4.56,3.136-8.265,3.325v1.52c3.42-0.189,7.22-0.76,11.494-1.52
	c4.085,0.76,7.885,1.33,11.305,1.52v-1.52c-4.56-0.189-6.555-1.235-6.555-4.085c0-2.28,1.615-7.979,5.035-16.53l1.71-4.37
	c5.415-0.095,9.31-0.189,11.78-0.189c1.615,0,5.225,0.095,11.02,0.189l2.28,6.271c2.944,8.075,4.274,13.11,4.274,14.82
	c0,2.47-2.279,3.705-6.935,3.895v1.52c4.18-0.095,8.646-0.664,13.3-1.52C722.677,769.982,726.953,770.553,731.038,770.742z"/>
<path fill="#AD8E64" d="M750.512,766.848c0-2.755-2.28-4.939-4.94-4.939c-2.85,0-4.939,2.279-4.939,4.939s2.28,5.035,4.939,5.035
	C748.137,771.883,750.512,769.603,750.512,766.848"/>
<path fill="#AD8E64" d="M813.307,720.868c0-10.545-7.98-16.815-23.274-16.815c-7.125,0-12.636,0.95-16.721,1.71
	c-3.99-0.76-7.789-1.235-11.779-1.425v1.52c8.645,0.285,9.119,4.845,9.119,17.86v27.74c0,13.015-0.475,17.575-9.119,17.765v1.52
	c4.369-0.189,8.835-0.76,13.489-1.52c5.035,0.855,9.88,1.33,14.63,1.52v-1.52c-5.035-0.475-7.79-1.33-8.739-3.515
	c-1.425-2.945-1.521-8.17-1.521-15.96v-28.025c0-7.6,0.096-12.54,0.19-14.63c1.995-0.285,3.99-0.475,5.7-0.475
	c12.255,0,18.335,5.7,18.335,16.529c0,9.12-5.32,14.915-14.155,14.915c-1.521,0-3.04-0.189-4.561-0.475l-0.854,1.995
	c2.28,0.665,4.465,0.76,6.84,0.76C803.522,740.343,813.307,732.268,813.307,720.868"/>
<path fill="#AD8E64" d="M870.687,754.213h-1.9c-2.185,11.4-7.6,12.825-21.279,12.825c-10.641,0-10.735-1.33-10.735-13.87v-30.59
	c0-12.255,0.665-16.53,9.025-16.72v-1.52c-4.181,0.19-8.646,0.76-13.396,1.52c-4.845-0.76-9.31-1.33-13.489-1.52v1.52
	c8.835,0.19,9.024,5.035,9.024,18.81c0,2.755,0.095,4.75,0.095,6.175v13.395c0,2.091-0.095,3.516-0.095,4.275v1.71
	c0,13.965-0.189,18.905-9.024,19v1.52c3.989-0.189,8.074-0.664,12.35-1.425c6.08,1.141,13.395,1.425,22.135,1.425
	c3.04,0,5.604,0.096,7.695,0.096c5.51,0,7.694-0.38,7.694-2.755c0-0.665-0.38-1.521-0.854-2.66
	C869.546,762.098,870.307,758.393,870.687,754.213"/>
<path fill="#AD8E64" d="M581.968,832.019c0-1.14-1.38-1.2-4.319-1.2h-1.62c-6.479,0-11.76,0.24-15.96,0.9
	c-2.7-0.479-5.22-0.84-7.62-0.9v0.961c5.58,0.119,5.7,3.18,5.7,11.879c0,1.74,0.06,3.001,0.06,3.9v8.46c0,1.32-0.06,2.22-0.06,2.7
	v1.08c0,8.819-0.12,11.939-5.7,12v0.96c2.641-0.12,5.521-0.48,8.521-0.96c3.3,0.539,6.3,0.899,9.06,0.96v-0.96h-0.42
	c-5.58,0-5.88-3.061-5.88-11.58v-7.74h7.02c5.28,0,7.38,0.061,7.681,3.78h1.199c0-1.5-0.3-3.12-0.66-4.86
	c0.421-1.62,0.721-3.119,0.841-4.5h-1.141c-0.479,3.42-2.52,3.48-8.399,3.48h-6.54v-10.44c0-1.859,0-4.14,0.12-6.84h6.84
	c6.66,0,9.12,0.66,9.66,6.72h1.14c0-0.72,0.061-1.26,0.061-1.739c0-1.38-0.181-2.88-0.421-4.5
	C581.668,832.979,581.968,832.619,581.968,832.019"/>
<path fill="#AD8E64" d="M631.048,831.779v-0.961c-1.56,0.061-3.72,0.301-6.6,0.9c-2.4-0.479-4.74-0.78-6.96-0.9v0.961
	c5.279,0.3,5.819,2.939,5.819,11.159v6.78c0,13.859-2.939,20.88-13.8,20.88c-5.16,0-8.819-1.98-10.92-5.76
	c-1.859-3.3-2.34-8.82-2.34-16.8c0-7.5,0.3-12.12,1.021-13.92c0.479-1.32,1.92-2.04,4.38-2.34v-0.961
	c-2.341,0.181-5.04,0.54-8.101,0.961c-3.06-0.48-5.819-0.841-8.399-0.961v0.961c5.399,0.3,5.64,3,5.64,10.739v9.6
	c0,6.24,0.42,11.04,2.64,14.761c2.58,4.319,7.62,6.6,14.82,6.6c12.66,0,17.58-7.68,17.58-23.22v-7.32
	C625.829,834.659,626.008,832.019,631.048,831.779"/>
<path fill="#AD8E64" d="M680.368,831.719v-0.96c-1.859,0.18-4.02,0.54-6.3,0.96c-2.46-0.479-4.74-0.84-6.779-0.96v0.96
	c2.1,0.3,3.479,0.78,4.26,1.98c1.2,1.859,1.26,8.47,1.26,20.01v10.1c-19.62-20.859-27.54-32.99-30.06-32.99
	c-0.48,0-1.38,0.24-2.64,0.66c-2.101-0.42-4.32-0.66-6.42-0.72v0.96c6.06,0.12,6.359,3,6.359,10.63v13.95
	c0,11.3-0.18,15.439-5.52,15.5v0.96c2.04-0.12,4.199-0.48,6.72-0.96c2.58,0.539,4.979,0.899,7.319,0.96v-0.96
	c-2.939-0.181-4.62-1.2-5.16-3.061c-0.659-2.35-0.899-8.42-0.899-18.21v-12.5c9.479,9.851,19.62,21.69,30.84,35.15l1.979,0.3
	c-0.06-1.5-0.18-2.34-0.18-2.58v-14.24c0-12.199,0.6-19.529,1.141-21.879C676.828,832.738,677.548,832.079,680.368,831.719"/>
<path fill="#AD8E64" d="M721.948,852.839c0,11.88-6.48,18.779-18.36,18.779c-4.56,0-7.38-1.02-7.859-2.7
	c-0.24-0.899-0.42-5.159-0.42-12.899v-8.46c0-4.92,0-9.899,0.359-14.76c1.86-0.42,3.96-0.66,6.181-0.66
	C714.988,832.139,721.948,839.639,721.948,852.839 M728.427,852.179c0-13.32-8.939-21.54-25.439-21.54c-3.36,0-6.9,0.36-10.5,1.141
	c-2.94-0.48-5.7-0.841-8.46-0.961v0.961c5.46,0.119,5.76,3,5.76,11.22v17.579c0,8.221-0.3,11.101-5.76,11.221v0.96
	c2.64-0.12,5.46-0.48,8.46-0.96c3.6,0.66,7.439,1.38,11.88,1.38C719.188,873.179,728.427,864.778,728.427,852.179z"/>
<path fill="#AD8E64" d="M755.127,854.158c-1.8,0.061-3.54,0.061-5.16,0.061c-0.66,0-3.36,0-7.74-0.061
	c2.101-5.76,4.32-11.34,6.54-16.68C751.047,843.238,753.207,848.818,755.127,854.158 M772.347,872.759v-0.96
	c-2.4-0.181-4.021-0.9-4.92-2.28c-1.2-1.74-3.72-7.92-7.86-18.479l-8.16-20.88h-1.859l-8.64,20.76c-4.5,10.68-7.08,17.04-8.7,18.779
	c-1.26,1.38-2.88,1.98-5.22,2.101v0.96c2.16-0.12,4.56-0.48,7.26-0.96c2.58,0.479,4.979,0.84,7.14,0.96v-0.96
	c-2.88-0.12-4.14-0.78-4.14-2.58c0-1.44,1.02-5.04,3.18-10.44l1.08-2.76c3.42-0.06,5.88-0.12,7.439-0.12
	c1.021,0,3.301,0.061,6.96,0.12l1.44,3.96c1.86,5.1,2.7,8.28,2.7,9.36c0,1.56-1.44,2.34-4.38,2.46v0.96
	c2.64-0.061,5.46-0.421,8.399-0.96C767.067,872.278,769.767,872.639,772.347,872.759z"/>
<path fill="#AD8E64" d="M810.027,831.839l-1.02-0.36c-0.24,0.48-0.48,0.66-1.021,0.66c-1.561,0-6-1.92-12.72-1.92
	c-14.52,0-23.82,9-23.82,22.08c0,12.72,8.76,21.18,23.7,21.18c5.76,0,10.5-1.141,13.86-3c0-0.72-0.061-1.439-0.301-2.28
	c0.54-1.859,0.9-3.659,1.021-5.46h-1.32c-0.6,5.94-4.92,9.061-12.479,9.061c-10.74,0-17.94-7.561-17.94-20.46
	c0-12.42,6.54-19.74,17.22-19.74c7.86,0,11.94,3.72,12.24,11.16h1.2c0.06-1.56,0.12-2.64,0.12-3.12c0-0.84-0.061-2.1-0.12-3.899
	C809.247,834.479,809.667,833.219,810.027,831.839"/>
<path fill="#AD8E64" d="M831.267,831.779v-0.961c-2.58,0.12-5.4,0.48-8.521,0.961c-3.06-0.48-5.88-0.841-8.52-0.961v0.961
	c5.46,0.18,5.76,3.06,5.76,11.279v15.78c0,14.16-0.18,21.42-7.74,24.239l0.42,0.9c3.66-1.08,6.66-3.061,8.64-5.46
	c3.961-4.8,4.2-10.5,4.2-18.36v-17.1C825.506,834.839,825.867,831.898,831.267,831.779"/>
<path fill="#AD8E64" d="M856.886,854.158c-1.8,0.061-3.54,0.061-5.16,0.061c-0.66,0-3.359,0-7.739-0.061
	c2.1-5.76,4.319-11.34,6.54-16.68C852.806,843.238,854.966,848.818,856.886,854.158 M874.106,872.759v-0.96
	c-2.399-0.181-4.02-0.9-4.92-2.28c-1.2-1.74-3.72-7.92-7.859-18.479l-8.16-20.88h-1.86l-8.64,20.76
	c-4.5,10.68-7.08,17.04-8.7,18.779c-1.26,1.38-2.88,1.98-5.22,2.101v0.96c2.16-0.12,4.56-0.48,7.26-0.96
	c2.58,0.479,4.979,0.84,7.14,0.96v-0.96c-2.88-0.12-4.14-0.78-4.14-2.58c0-1.44,1.021-5.04,3.181-10.44l1.08-2.76
	c3.42-0.06,5.879-0.12,7.439-0.12c1.02,0,3.3,0.061,6.96,0.12l1.439,3.96c1.86,5.1,2.7,8.28,2.7,9.36c0,1.56-1.439,2.34-4.38,2.46
	v0.96c2.64-0.061,5.46-0.421,8.4-0.96C868.827,872.278,871.526,872.639,874.106,872.759z"/>
<path fill-rule="evenodd" clip-rule="evenodd" fill="#F2F2F4" d="M89.526,893.07c76.78-8.15,417.167,17.204,464.013,118.128
	c24.089,51.904-3.151,69.557-23.192,106.464c-20.042,36.907-33.901,86.752-18.069,116.459
	c15.833,29.707,25.965,29.218,50.428,29.854c100.789,2.627,305.521-130.512,293.002-123.423
	c-20.659,20.557-300.287,205.207-350.788,114.249c-73.697-109.143,74.552-178.802,31.461-239.086
	c-72.966-81.18-361.583-112.587-440.028-105.795c-77.888,8.615-82.599,42.087-82.146,63.466C7.8,962.8-21.781,904.879,89.526,893.07
	z M240.198,707.002c3.224,31.721,19.976,66.76-64.237,81.304c-84.213,14.543-188.457,33.792-127.68,105.569
	c-0.003-0.339,0.016-0.669,0.025-1.003c-1.874-5.419-2.752-10.371-2.77-14.921c-4.852-62.512,94.968-51.427,161.144-68.785
	c2.273-0.615,4.521-1.243,6.732-1.895c21.48-6.554,38.592-16.741,46.023-34.485c25.623-84.008-14.369-90.497-5.332-197.392
	c0.08-2.033,0.216-4.046,0.397-6.047c11.33-129.146,203.385-183.785,274.391-323.549c44.402-108.922,36.354-213.585,33.217-240.842
	l-0.117-0.525c1.705,44.26,0.164,165.366-55.78,247.665c-23.828,35.055-50.111,61.45-77.064,84.332
	c-68.58,58.224-141.5,93.706-189.402,191.271C215.64,587.081,236.974,675.281,240.198,707.002z"/>
<path fill-rule="evenodd" clip-rule="evenodd" fill="#E30613" d="M48.306,892.872c-30.21-106.672,179.288-44.06,211.13-120.086
	c25.623-84.008-14.369-90.497-5.332-197.392c5.751-133.523,202.683-187.669,274.788-329.596
	c44.402-108.922,36.354-213.585,33.217-240.842c1.965,8.912,28.237,134.322-21.828,255.459
	c-33.972,66.072-91.864,114.951-144.287,160.942c-59.287,52.014-111.577,100.335-114.359,165.668
	c-1.464,34.413,5.933,67.563,10.93,99.285c6.621,42.032,7.464,89.639-19.021,118.189c-26.486,28.551-31.931,26.462-78.832,35.244
	c-46.901,8.782-43.963,5.154-65.846,8.75C86.167,855.508,49.001,866.866,48.306,892.872 M502.139,1247.731
	c-5.948-7.774-9.941-16.55-12.065-24.128c-25.073-89.438,86.031-152.313,46.307-207.888
	c-72.966-81.18-361.583-112.587-440.028-105.795c-82.192,9.091-82.898,45.866-82.038,66.897
	c68.712-91.97,327.86-21.427,405.278,2.94c77.701,24.457,115.002,53.118,96.884,98.542c-11.844,29.688-30.752,56.346-41.95,84.413
	c-5.936,14.879-10.469,33.073-9.106,46.492c1.363,13.419,5.297,19.567,9.41,27.53c57.634,111.587,296.402-18.939,380.878-96.184
	c-26.993,18.576-227.681,162.704-327.476,123.836C518.455,1260.58,508.087,1255.506,502.139,1247.731z"/>
</svg>
