<?xml version="1.0" encoding="utf-8"?>
<!-- Generator: Adobe Illustrator 15.1.0, SVG Export Plug-In . SVG Version: 6.00 Build 0)  -->
<!DOCTYPE svg PUBLIC "-//W3C//DTD SVG 1.1//EN" "http://www.w3.org/Graphics/SVG/1.1/DTD/svg11.dtd">
<svg version="1.1" id="Layer_1" xmlns="http://www.w3.org/2000/svg" xmlns:xlink="http://www.w3.org/1999/xlink" x="0px" y="0px"
	 width="1729.134px" height="1729.134px" viewBox="0 0 1729.134 1729.134" enable-background="new 0 0 1729.134 1729.134"
	 xml:space="preserve">
<g>
	<path fill="#FFFFFF" d="M503.465,1034.704c-0.639,0.103-1.28,0.205-1.907,0.311
		C502.186,1034.909,502.827,1034.807,503.465,1034.704z"/>
	<path fill="#FFFFFF" d="M898.356,438.704c0.383-0.413,0.766-0.826,1.146-1.24C899.122,437.878,898.739,438.291,898.356,438.704z"/>
	<path fill="#FFFFFF" d="M496.862,1035.87c-0.58,0.111-1.159,0.225-1.729,0.34C495.703,1036.095,496.283,1035.981,496.862,1035.87z"
		/>
	<path fill="#FFFFFF" d="M682.379,655.757c0.082-0.214,0.163-0.429,0.246-0.643C682.542,655.328,682.461,655.543,682.379,655.757z"
		/>
	<path fill="#FFFFFF" d="M893.334,444.031c0.384-0.4,0.767-0.799,1.148-1.201C894.101,443.231,893.718,443.631,893.334,444.031z"/>
	<path fill="#FFFFFF" d="M680.407,661.221c0.069-0.205,0.136-0.412,0.207-0.617C680.543,660.809,680.477,661.016,680.407,661.221z"
		/>
	<path fill="#FFFFFF" d="M681.366,658.477c0.075-0.208,0.148-0.418,0.225-0.626C681.514,658.059,681.441,658.268,681.366,658.477z"
		/>
	<path fill="#FFFFFF" d="M707.493,612.168c0.14-0.182,0.281-0.364,0.421-0.546C707.773,611.804,707.633,611.986,707.493,612.168z"/>
	<path fill="#FFFFFF" d="M493.736,1036.501c-0.558,0.117-1.113,0.235-1.661,0.356
		C492.623,1036.736,493.179,1036.618,493.736,1036.501z"/>
	<path fill="#FFFFFF" d="M490.72,1037.163c-0.538,0.124-1.073,0.248-1.601,0.374C489.647,1037.411,490.183,1037.287,490.72,1037.163
		z"/>
	<path fill="#FFFFFF" d="M895.863,441.371c0.38-0.403,0.761-0.807,1.139-1.211C896.624,440.564,896.243,440.968,895.863,441.371z"/>
	<path fill="#FFFFFF" d="M957.187,1141.046c-0.467-0.734-0.952-1.467-1.475-2.197
		C956.234,1139.579,956.716,1140.313,957.187,1141.046z"/>
	<path fill="#FFFFFF" d="M515.685,1033.054c-1.251,0.139-2.483,0.284-3.697,0.435
		C513.202,1033.338,514.433,1033.192,515.685,1033.054z"/>
	<path fill="#FFFFFF" d="M958.461,1143.156c-0.164-0.29-0.339-0.58-0.512-0.87C958.124,1142.576,958.294,1142.866,958.461,1143.156z
		"/>
	<path fill="#FFFFFF" d="M684.577,650.364c0.093-0.217,0.186-0.435,0.28-0.652C684.762,649.929,684.67,650.147,684.577,650.364z"/>
	<path fill="#FFFFFF" d="M506.993,1034.166c-0.692,0.1-1.386,0.199-2.065,0.304C505.607,1034.365,506.301,1034.266,506.993,1034.166
		z"/>
	<path fill="#FFFFFF" d="M705.644,614.606c0.141-0.188,0.282-0.376,0.423-0.564C705.925,614.229,705.784,614.418,705.644,614.606z"
		/>
	<path fill="#FFFFFF" d="M683.45,653.051c0.088-0.216,0.174-0.432,0.263-0.647C683.624,652.619,683.538,652.835,683.45,653.051z"/>
	<path fill="#FFFFFF" d="M510.773,1033.647c-0.795,0.104-1.592,0.205-2.371,0.313
		C509.182,1033.853,509.979,1033.751,510.773,1033.647z"/>
	<path fill="#FFFFFF" d="M500.102,1035.271c-0.606,0.107-1.212,0.214-1.808,0.325
		C498.889,1035.484,499.496,1035.378,500.102,1035.271z"/>
	<path fill="#FFFFFF" d="M470.13,1043.518c-0.473,0.193-0.933,0.39-1.395,0.587C469.197,1043.907,469.657,1043.711,470.13,1043.518z
		"/>
	<path fill="#FFFFFF" d="M677.168,672.344c0.039-0.16,0.076-0.32,0.115-0.479C677.244,672.023,677.207,672.184,677.168,672.344z"/>
	<path fill="#FFFFFF" d="M709.382,609.745c0.14-0.177,0.281-0.354,0.421-0.531C709.663,609.391,709.522,609.567,709.382,609.745z"/>
	<path fill="#FFFFFF" d="M677.888,669.539c0.047-0.174,0.091-0.35,0.139-0.524C677.979,669.188,677.935,669.364,677.888,669.539z"/>
	<path fill="#FFFFFF" d="M472.376,1042.63c-0.46,0.176-0.908,0.355-1.357,0.534C471.468,1042.985,471.916,1042.806,472.376,1042.63z
		"/>
	<path fill="#FFFFFF" d="M467.969,1044.43c-0.516,0.226-1.018,0.454-1.519,0.684C466.951,1044.884,467.453,1044.655,467.969,1044.43
		z"/>
	<path fill="#FFFFFF" d="M465.893,1045.366c-1.364,0.635-2.671,1.286-3.924,1.95
		C463.222,1046.652,464.529,1046.001,465.893,1045.366z"/>
	<path fill="#FFFFFF" d="M676.506,675.172c0.032-0.145,0.062-0.291,0.094-0.436C676.568,674.882,676.539,675.027,676.506,675.172z"
		/>
	<path fill="#FFFFFF" d="M883.021,454.457c0.388-0.38,0.774-0.76,1.16-1.142C883.796,453.697,883.409,454.077,883.021,454.457z"/>
	<path fill="#FFFFFF" d="M888.218,449.284c0.388-0.393,0.776-0.786,1.163-1.18C888.994,448.498,888.605,448.892,888.218,449.284z"/>
	<path fill="#FFFFFF" d="M461.535,1047.554c-0.471,0.254-0.939,0.508-1.395,0.766
		C460.596,1048.062,461.064,1047.808,461.535,1047.554z"/>
	<path fill="#FFFFFF" d="M890.779,446.674c0.39-0.4,0.778-0.799,1.166-1.2C891.558,445.875,891.169,446.274,890.779,446.674z"/>
	<path fill="#FFFFFF" d="M679.512,663.966c0.061-0.192,0.119-0.386,0.18-0.579C679.63,663.58,679.572,663.774,679.512,663.966z"/>
	<path fill="#FFFFFF" d="M484.992,1038.583c-0.504,0.135-1.003,0.271-1.498,0.41
		C483.989,1038.854,484.487,1038.718,484.992,1038.583z"/>
	<path fill="#FFFFFF" d="M477.145,1040.929c-0.468,0.156-0.928,0.314-1.386,0.474
		C476.217,1041.243,476.676,1041.085,477.145,1040.929z"/>
	<path fill="#FFFFFF" d="M479.661,1040.12c-0.475,0.147-0.942,0.297-1.408,0.447C478.718,1040.417,479.186,1040.268,479.661,1040.12
		z"/>
	<path fill="#FFFFFF" d="M474.715,1041.767c-0.459,0.164-0.908,0.33-1.356,0.497
		C473.807,1042.097,474.256,1041.931,474.715,1041.767z"/>
	<path fill="#FFFFFF" d="M487.8,1037.859c-0.517,0.128-1.029,0.257-1.535,0.389C486.771,1038.116,487.284,1037.987,487.8,1037.859z"
		/>
	<path fill="#FFFFFF" d="M678.668,666.751c0.054-0.188,0.106-0.376,0.162-0.563C678.775,666.375,678.723,666.563,678.668,666.751z"
		/>
	<path fill="#FFFFFF" d="M482.282,1039.336c-0.489,0.141-0.972,0.284-1.451,0.429
		C481.311,1039.62,481.793,1039.478,482.282,1039.336z"/>
	<path fill="#FFFFFF" d="M900.826,436.016c0.384-0.421,0.767-0.842,1.148-1.265C901.593,435.174,901.21,435.595,900.826,436.016z"/>
	<path fill="#FFFFFF" d="M691.002,637.216c0.119-0.218,0.237-0.436,0.357-0.653C691.239,636.78,691.121,636.998,691.002,637.216z"/>
	<path fill="#FFFFFF" d="M940.325,383.309c0.279-0.473,0.562-0.944,0.839-1.419C940.887,382.365,940.604,382.835,940.325,383.309z"
		/>
	<path fill="#FFFFFF" d="M944.049,376.794c0.243-0.441,0.49-0.879,0.732-1.322C944.539,375.915,944.292,376.353,944.049,376.794z"/>
	<path fill="#FFFFFF" d="M689.613,639.811c0.115-0.219,0.229-0.439,0.345-0.658C689.842,639.372,689.728,639.591,689.613,639.811z"
		/>
	<path fill="#FFFFFF" d="M942.203,380.077c0.263-0.46,0.529-0.917,0.79-1.379C942.732,379.159,942.466,379.617,942.203,380.077z"/>
	<path fill="#FFFFFF" d="M936.472,389.637c0.304-0.483,0.61-0.966,0.911-1.452C937.082,388.671,936.775,389.153,936.472,389.637z"/>
	<path fill="#FFFFFF" d="M692.442,634.637c0.123-0.215,0.244-0.43,0.368-0.645C692.686,634.207,692.564,634.422,692.442,634.637z"/>
	<path fill="#FFFFFF" d="M932.484,395.81c0.318-0.479,0.639-0.957,0.954-1.438C933.123,394.853,932.803,395.33,932.484,395.81z"/>
	<path fill="#FFFFFF" d="M934.505,392.725c0.308-0.477,0.618-0.952,0.924-1.43C935.123,391.773,934.813,392.249,934.505,392.725z"/>
	<path fill="#FFFFFF" d="M732.643,583.837c0.063-0.063,0.125-0.125,0.188-0.188C732.768,583.712,732.705,583.775,732.643,583.837z"
		/>
	<path fill="#FFFFFF" d="M583.424,940.118c-0.693,0.094-1.387,0.187-2.081,0.279C582.038,940.306,582.731,940.212,583.424,940.118z"
		/>
	<path fill="#FFFFFF" d="M668.959,910.623c-0.74,0.758-1.502,1.499-2.293,2.218C667.456,912.122,668.219,911.382,668.959,910.623z"
		/>
	<path fill="#FFFFFF" d="M583.474,940.111c23.58-3.2,46.543-7.223,64.441-15.349c-4.73,2.147-9.814,4.008-15.17,5.643
		c-2.211,0.651-4.458,1.279-6.732,1.894c-23.116,6.063-50.335,8.657-75.767,12.129c10.155-1.384,20.594-2.628,30.944-4.009
		C581.952,940.316,582.713,940.214,583.474,940.111z"/>
	<path fill="#FFFFFF" d="M930.427,398.863c0.328-0.481,0.659-0.96,0.984-1.444C931.086,397.902,930.755,398.382,930.427,398.863z"/>
	<path fill="#FFFFFF" d="M886.789,450.722c-0.385,0.386-0.771,0.77-1.156,1.155C886.019,451.492,886.404,451.108,886.789,450.722z"
		/>
	<path fill="#FFFFFF" d="M685.756,647.7c0.1-0.22,0.197-0.439,0.298-0.658C685.953,647.261,685.855,647.48,685.756,647.7z"/>
	<path fill="#FFFFFF" d="M945.91,373.365c0.204-0.383,0.412-0.763,0.614-1.147C946.322,372.602,946.114,372.982,945.91,373.365z"/>
	<path fill="#FFFFFF" d="M686.99,645.051c0.104-0.219,0.208-0.439,0.313-0.657C687.198,644.612,687.094,644.832,686.99,645.051z"/>
	<path fill="#FFFFFF" d="M688.276,642.42c0.109-0.219,0.218-0.438,0.329-0.656C688.494,641.982,688.386,642.201,688.276,642.42z"/>
	<path fill="#FFFFFF" d="M938.41,386.503c0.294-0.483,0.591-0.964,0.882-1.449C939.001,385.539,938.704,386.02,938.41,386.503z"/>
	<path fill="#FFFFFF" d="M700.356,621.999c0.135-0.199,0.271-0.397,0.407-0.595C700.627,621.602,700.491,621.8,700.356,621.999z"/>
	<path fill="#FFFFFF" d="M908.104,427.799c0.374-0.436,0.749-0.87,1.121-1.307C908.853,426.929,908.478,427.363,908.104,427.799z"/>
	<path fill="#FFFFFF" d="M910.473,425.018c0.371-0.441,0.744-0.881,1.113-1.324C911.217,424.137,910.844,424.577,910.473,425.018z"
		/>
	<path fill="#FFFFFF" d="M912.816,422.209c0.368-0.445,0.736-0.89,1.103-1.337C913.553,421.319,913.185,421.764,912.816,422.209z"/>
	<path fill="#FFFFFF" d="M915.125,419.386c0.366-0.453,0.732-0.905,1.097-1.359C915.857,418.481,915.491,418.933,915.125,419.386z"
		/>
	<path fill="#FFFFFF" d="M693.93,632.077c0.126-0.212,0.251-0.425,0.378-0.638C694.181,631.651,694.056,631.864,693.93,632.077z"/>
	<path fill="#FFFFFF" d="M702.077,619.518c0.137-0.194,0.273-0.389,0.411-0.582C702.35,619.129,702.213,619.323,702.077,619.518z"/>
	<path fill="#FFFFFF" d="M703.84,617.052c0.138-0.19,0.276-0.38,0.415-0.57C704.117,616.672,703.979,616.862,703.84,617.052z"/>
	<path fill="#FFFFFF" d="M905.706,430.558c0.377-0.43,0.754-0.859,1.129-1.29C906.46,429.699,906.083,430.128,905.706,430.558z"/>
	<path fill="#FFFFFF" d="M903.279,433.298c0.38-0.425,0.76-0.85,1.137-1.275C904.039,432.448,903.658,432.873,903.279,433.298z"/>
	<path fill="#FFFFFF" d="M924.077,407.805c0.343-0.465,0.688-0.93,1.027-1.396C924.765,406.875,924.42,407.339,924.077,407.805z"/>
	<path fill="#FFFFFF" d="M695.468,629.53c0.128-0.208,0.256-0.416,0.385-0.624C695.724,629.114,695.596,629.322,695.468,629.53z"/>
	<path fill="#FFFFFF" d="M926.235,404.841c0.336-0.466,0.673-0.931,1.005-1.399C926.908,403.91,926.571,404.375,926.235,404.841z"/>
	<path fill="#FFFFFF" d="M698.68,624.495c0.134-0.204,0.269-0.407,0.404-0.611C698.948,624.088,698.814,624.292,698.68,624.495z"/>
	<path fill="#FFFFFF" d="M928.354,401.857c0.331-0.472,0.663-0.942,0.991-1.416C929.018,400.915,928.686,401.386,928.354,401.857z"
		/>
	<path fill="#FFFFFF" d="M917.407,416.532c0.362-0.458,0.725-0.914,1.084-1.373C918.132,415.618,917.77,416.074,917.407,416.532z"/>
	<path fill="#FFFFFF" d="M919.665,413.646c0.354-0.458,0.71-0.916,1.063-1.376C920.375,412.729,920.02,413.187,919.665,413.646z"/>
	<path fill="#FFFFFF" d="M697.052,627.002c0.131-0.205,0.261-0.409,0.393-0.614C697.313,626.593,697.183,626.798,697.052,627.002z"
		/>
	<path fill="#FFFFFF" d="M921.889,410.737c0.349-0.461,0.698-0.922,1.045-1.386C922.587,409.814,922.237,410.275,921.889,410.737z"
		/>
	<path fill="#FFFFFF" d="M544.369,945.252c0.144-0.021,0.287-0.042,0.431-0.063C544.656,945.21,544.513,945.231,544.369,945.252z"/>
	<path fill="#FFFFFF" d="M434.491,1082.201c-0.02,0.109-0.038,0.218-0.057,0.327
		C434.453,1082.419,434.472,1082.311,434.491,1082.201z"/>
	<path fill="#FFFFFF" d="M719.424,597.806c0.121-0.136,0.243-0.272,0.364-0.408C719.667,597.534,719.545,597.67,719.424,597.806z"/>
	<path fill="#FFFFFF" d="M447.011,1058.129c0.218-0.219,0.438-0.438,0.664-0.655C447.449,1057.691,447.229,1057.91,447.011,1058.129
		z"/>
	<path fill="#FFFFFF" d="M434.991,1079.788c-0.033,0.143-0.065,0.285-0.097,0.428
		C434.926,1080.073,434.958,1079.931,434.991,1079.788z"/>
	<path fill="#FFFFFF" d="M547.644,944.786c0.58-0.08,1.161-0.16,1.742-0.24C548.805,944.626,548.224,944.706,547.644,944.786z"/>
	<path fill="#FFFFFF" d="M541.203,945.718c0.083-0.012,0.166-0.024,0.249-0.037C541.369,945.693,541.286,945.706,541.203,945.718z"
		/>
	<path fill="#FFFFFF" d="M858.866,476.855c0.32-0.283,0.641-0.566,0.96-0.849C859.507,476.289,859.187,476.572,858.866,476.855z"/>
	<path fill="#FFFFFF" d="M434.287,1083.399c-0.013,0.081-0.024,0.163-0.037,0.244
		C434.263,1083.563,434.274,1083.48,434.287,1083.399z"/>
	<path fill="#FFFFFF" d="M434.112,1084.583c-0.007,0.047-0.012,0.094-0.019,0.141C434.1,1084.677,434.105,1084.63,434.112,1084.583z
		"/>
	<path fill="#FFFFFF" d="M856.115,479.271c0.309-0.271,0.618-0.541,0.927-0.812C856.733,478.729,856.424,479,856.115,479.271z"/>
	<path fill="#FFFFFF" d="M434.725,1081c-0.026,0.127-0.051,0.254-0.076,0.381C434.674,1081.254,434.699,1081.127,434.725,1081z"/>
	<path fill="#FFFFFF" d="M436.402,1074.906c-0.062,0.176-0.124,0.353-0.183,0.528
		C436.278,1075.259,436.34,1075.082,436.402,1074.906z"/>
	<path fill="#FFFFFF" d="M651.514,923.037c1.091-0.553,2.162-1.122,3.209-1.711C653.675,921.915,652.605,922.484,651.514,923.037z"
		/>
	<path fill="#FFFFFF" d="M436.852,1073.677c-0.07,0.183-0.14,0.365-0.208,0.549C436.711,1074.042,436.782,1073.859,436.852,1073.677
		z"/>
	<path fill="#FFFFFF" d="M717.344,600.166c0.124-0.142,0.247-0.282,0.371-0.424C717.591,599.884,717.467,600.024,717.344,600.166z"
		/>
	<path fill="#FFFFFF" d="M861.601,474.432c0.337-0.3,0.674-0.602,1.01-0.902C862.274,473.83,861.938,474.131,861.601,474.432z"/>
	<path fill="#FFFFFF" d="M435.29,1078.572c-0.04,0.155-0.08,0.31-0.118,0.465C435.21,1078.882,435.249,1078.728,435.29,1078.572z"/>
	<path fill="#FFFFFF" d="M435.622,1077.357c-0.047,0.161-0.093,0.323-0.137,0.484
		C435.53,1077.681,435.575,1077.519,435.622,1077.357z"/>
	<path fill="#FFFFFF" d="M435.993,1076.133c-0.054,0.169-0.107,0.339-0.159,0.508
		C435.885,1076.472,435.939,1076.302,435.993,1076.133z"/>
	<path fill="#FFFFFF" d="M647.981,924.733c1.151-0.523,2.28-1.064,3.387-1.623C650.261,923.669,649.132,924.21,647.981,924.733z"/>
	<path fill="#FFFFFF" d="M864.324,471.993c0.347-0.312,0.693-0.625,1.039-0.937C865.018,471.368,864.671,471.681,864.324,471.993z"
		/>
	<path fill="#FFFFFF" d="M728.106,588.455c0.086-0.089,0.173-0.179,0.26-0.268C728.279,588.276,728.192,588.365,728.106,588.455z"/>
	<path fill="#FFFFFF" d="M833.94,498.053c0.012-0.01,0.025-0.021,0.037-0.03C833.965,498.032,833.952,498.043,833.94,498.053z"/>
	<path fill="#FFFFFF" d="M836.718,495.754c0.08-0.066,0.16-0.133,0.24-0.2C836.878,495.621,836.798,495.688,836.718,495.754z"/>
	<path fill="#FFFFFF" d="M467.638,1016.005c-1.484-5.242-2.382-10.069-2.758-14.53
		C464.944,1005.918,465.817,1010.74,467.638,1016.005z"/>
	<path fill="#FFFFFF" d="M839.485,493.451c0.146-0.122,0.292-0.244,0.438-0.366C839.777,493.207,839.631,493.33,839.485,493.451z"/>
	<path fill="#FFFFFF" d="M730.361,586.139c0.073-0.074,0.146-0.148,0.219-0.222C730.508,585.991,730.435,586.065,730.361,586.139z"
		/>
	<path fill="#FFFFFF" d="M737.312,579.241c0.016-0.016,0.032-0.031,0.048-0.047C737.344,579.21,737.328,579.226,737.312,579.241z"/>
	<path fill="#FFFFFF" d="M734.96,581.537c0.043-0.042,0.086-0.084,0.129-0.126C735.047,581.453,735.003,581.495,734.96,581.537z"/>
	<path fill="#FFFFFF" d="M725.884,590.779c0.098-0.104,0.197-0.207,0.295-0.311C726.081,590.572,725.982,590.675,725.884,590.779z"
		/>
	<path fill="#FFFFFF" d="M721.542,595.455c0.115-0.127,0.231-0.253,0.347-0.38C721.772,595.202,721.657,595.328,721.542,595.455z"/>
	<path fill="#FFFFFF" d="M853.353,481.673c0.296-0.256,0.591-0.513,0.887-0.77C853.944,481.16,853.649,481.417,853.353,481.673z"/>
	<path fill="#FFFFFF" d="M850.605,484.042c0.266-0.229,0.532-0.458,0.798-0.687C851.137,483.584,850.872,483.813,850.605,484.042z"
		/>
	<path fill="#FFFFFF" d="M845.045,488.78c0.222-0.188,0.444-0.376,0.667-0.564C845.49,488.404,845.268,488.592,845.045,488.78z"/>
	<path fill="#FFFFFF" d="M842.277,491.113c0.177-0.148,0.354-0.298,0.531-0.447C842.631,490.815,842.455,490.965,842.277,491.113z"
		/>
	<path fill="#FFFFFF" d="M723.695,593.112c0.108-0.116,0.216-0.232,0.324-0.348C723.912,592.88,723.803,592.996,723.695,593.112z"/>
	<path fill="#FFFFFF" d="M847.834,486.413c0.237-0.202,0.473-0.403,0.709-0.605C848.307,486.009,848.071,486.211,847.834,486.413z"
		/>
	<path fill="#FFFFFF" d="M869.751,467.056c0.356-0.328,0.713-0.657,1.068-0.986C870.464,466.398,870.107,466.728,869.751,467.056z"
		/>
	<path fill="#FFFFFF" d="M673.436,698.529c0.076-1.765,0.193-3.514,0.335-5.252C673.625,695.017,673.505,696.765,673.436,698.529z"
		/>
	<path fill="#FFFFFF" d="M445.424,1059.794c-0.201,0.223-0.396,0.444-0.591,0.668
		C445.028,1060.239,445.223,1060.017,445.424,1059.794z"/>
	<path fill="#FFFFFF" d="M674.913,683.599c0.004-0.028,0.008-0.056,0.012-0.084C674.921,683.542,674.917,683.571,674.913,683.599z"
		/>
	<path fill="#FFFFFF" d="M677.342,898.988c0.507-0.999,0.986-2.019,1.426-3.069C678.328,896.97,677.849,897.989,677.342,898.988z"/>
	<path fill="#FFFFFF" d="M451.542,1054.085c-0.265,0.211-0.527,0.422-0.784,0.635
		C451.015,1054.507,451.277,1054.296,451.542,1054.085z"/>
	<path fill="#FFFFFF" d="M452.971,1052.981c-0.279,0.209-0.558,0.418-0.829,0.629
		C452.413,1053.399,452.691,1053.19,452.971,1052.981z"/>
	<path fill="#FFFFFF" d="M675.662,902.005c0.548-0.903,1.071-1.825,1.56-2.774C676.733,900.18,676.21,901.102,675.662,902.005z"/>
	<path fill="#FFFFFF" d="M448.894,1056.333c-0.237,0.215-0.47,0.43-0.7,0.646C448.424,1056.763,448.657,1056.548,448.894,1056.333z"
		/>
	<path fill="#FFFFFF" d="M446.517,1058.629c-0.212,0.219-0.418,0.438-0.624,0.659
		C446.099,1059.067,446.305,1058.848,446.517,1058.629z"/>
	<path fill="#FFFFFF" d="M875.109,462.065c0.373-0.352,0.746-0.704,1.118-1.056C875.855,461.361,875.482,461.713,875.109,462.065z"
		/>
	<path fill="#FFFFFF" d="M450.184,1055.202c-0.25,0.212-0.498,0.426-0.74,0.64C449.686,1055.628,449.934,1055.414,450.184,1055.202z
		"/>
	<path fill="#FFFFFF" d="M459.55,1048.662c-0.391,0.226-0.782,0.452-1.162,0.681C458.768,1049.114,459.159,1048.888,459.55,1048.662
		z"/>
	<path fill="#FFFFFF" d="M457.76,1049.731c-0.352,0.217-0.703,0.434-1.044,0.652C457.057,1050.165,457.408,1049.948,457.76,1049.731
		z"/>
	<path fill="#FFFFFF" d="M675.909,678.001c0.024-0.121,0.046-0.244,0.071-0.365C675.955,677.757,675.934,677.88,675.909,678.001z"/>
	<path fill="#FFFFFF" d="M437.345,1072.445c-0.079,0.188-0.159,0.377-0.234,0.565
		C437.186,1072.822,437.266,1072.634,437.345,1072.445z"/>
	<path fill="#FFFFFF" d="M454.479,1051.889c-0.298,0.209-0.595,0.418-0.884,0.629
		C453.885,1052.307,454.182,1052.098,454.479,1051.889z"/>
	<path fill="#FFFFFF" d="M675.378,680.814c0.015-0.084,0.028-0.169,0.043-0.253C675.406,680.646,675.393,680.73,675.378,680.814z"/>
	<path fill="#FFFFFF" d="M711.311,607.336c0.14-0.172,0.28-0.344,0.42-0.516C711.59,606.992,711.45,607.164,711.311,607.336z"/>
	<path fill="#FFFFFF" d="M877.758,459.552c0.382-0.364,0.763-0.729,1.144-1.095C878.521,458.823,878.14,459.188,877.758,459.552z"/>
	<path fill="#FFFFFF" d="M456.075,1050.805c-0.322,0.212-0.644,0.424-0.957,0.638
		C455.431,1051.229,455.753,1051.017,456.075,1050.805z"/>
	<path fill="#FFFFFF" d="M671.597,907.7c0.651-0.783,1.277-1.585,1.877-2.407C672.874,906.115,672.248,906.917,671.597,907.7z"/>
	<path fill="#FFFFFF" d="M440.852,1065.745c-0.195,0.305-0.382,0.61-0.567,0.916C440.47,1066.355,440.657,1066.05,440.852,1065.745z
		"/>
	<path fill="#FFFFFF" d="M715.291,602.549c0.132-0.155,0.265-0.311,0.398-0.466C715.556,602.238,715.423,602.394,715.291,602.549z"
		/>
	<path fill="#FFFFFF" d="M440.087,1066.982c-0.232,0.39-0.456,0.78-0.673,1.172C439.631,1067.763,439.855,1067.372,440.087,1066.982
		z"/>
	<path fill="#FFFFFF" d="M669.233,910.342c0.715-0.744,1.404-1.509,2.069-2.293C670.638,908.832,669.949,909.598,669.233,910.342z"
		/>
	<path fill="#FFFFFF" d="M658.039,919.352c3.048-1.925,5.87-4.031,8.435-6.341C663.908,915.32,661.087,917.427,658.039,919.352z"/>
	<path fill="#FFFFFF" d="M439.144,1068.661c-0.126,0.235-0.254,0.47-0.375,0.705C438.89,1069.131,439.018,1068.896,439.144,1068.661
		z"/>
	<path fill="#FFFFFF" d="M654.874,921.24c1.05-0.594,2.078-1.203,3.08-1.835C656.952,920.036,655.924,920.647,654.874,921.24z"/>
	<path fill="#FFFFFF" d="M713.283,604.936c0.136-0.164,0.273-0.328,0.41-0.491C713.556,604.608,713.419,604.771,713.283,604.936z"/>
	<path fill="#FFFFFF" d="M867.045,469.532c0.354-0.322,0.707-0.644,1.06-0.967C867.752,468.888,867.398,469.21,867.045,469.532z"/>
	<path fill="#FFFFFF" d="M438.474,1069.962c-0.101,0.205-0.205,0.411-0.303,0.617
		C438.269,1070.373,438.373,1070.167,438.474,1069.962z"/>
	<path fill="#FFFFFF" d="M437.883,1071.211c-0.089,0.194-0.179,0.39-0.264,0.585
		C437.704,1071.601,437.794,1071.405,437.883,1071.211z"/>
	<path fill="#FFFFFF" d="M673.743,904.918c0.596-0.834,1.168-1.687,1.709-2.563C674.91,903.231,674.338,904.084,673.743,904.918z"/>
	<path fill="#FFFFFF" d="M880.401,457.012c0.385-0.373,0.769-0.745,1.151-1.118C881.17,456.267,880.786,456.639,880.401,457.012z"/>
	<path fill="#FFFFFF" d="M443.424,1062.15c-0.183,0.23-0.358,0.462-0.535,0.694C443.065,1062.612,443.241,1062.381,443.424,1062.15z
		"/>
	<path fill="#FFFFFF" d="M444.395,1060.968c-0.192,0.227-0.378,0.454-0.563,0.682
		C444.017,1061.422,444.203,1061.194,444.395,1060.968z"/>
	<path fill="#FFFFFF" d="M872.443,464.563c0.362-0.338,0.725-0.676,1.087-1.015C873.168,463.888,872.806,464.226,872.443,464.563z"
		/>
	<path fill="#FFFFFF" d="M441.655,1064.539c-0.175,0.254-0.342,0.509-0.509,0.764
		C441.313,1065.048,441.48,1064.793,441.655,1064.539z"/>
	<path fill="#FFFFFF" d="M442.51,1063.343c-0.176,0.238-0.345,0.478-0.514,0.717C442.166,1063.82,442.334,1063.581,442.51,1063.343z
		"/>
	<path fill="#FFFFFF" d="M982.002,130.769c0.007,0.038,0.015,0.073,0.022,0.111C982.017,130.841,982.01,130.807,982.002,130.769z"/>
	<path fill="#FFFFFF" d="M984.169,142.856c0.006,0.034,0.011,0.069,0.017,0.104c0.02,0.12,0.039,0.243,0.058,0.365
		C984.219,143.169,984.193,143.011,984.169,142.856z"/>
	<path fill="#FFFFFF" d="M984.859,147.314c0.005,0.039,0.011,0.08,0.017,0.118C984.87,147.394,984.864,147.353,984.859,147.314z"/>
	<path fill="#FFFFFF" d="M984.51,145.015c0.021,0.144,0.045,0.293,0.066,0.438C984.555,145.308,984.531,145.158,984.51,145.015z"/>
	<path fill="#FFFFFF" d="M987.229,165.937c0.007,0.06,0.013,0.119,0.02,0.179C987.241,166.055,987.235,165.997,987.229,165.937z"/>
	<path fill="#FFFFFF" d="M987.536,168.902c0.013,0.132,0.026,0.262,0.04,0.395C987.563,169.164,987.549,169.034,987.536,168.902z"/>
	<path fill="#FFFFFF" d="M983.836,140.817c0.021,0.133,0.044,0.271,0.066,0.405c0.009,0.055,0.018,0.108,0.027,0.164
		C983.898,141.196,983.867,141.004,983.836,140.817z"/>
	<path fill="#FFFFFF" d="M982.422,132.903c0.02,0.102,0.039,0.202,0.06,0.307C982.461,133.105,982.441,133.005,982.422,132.903z"/>
	<path fill="#FFFFFF" d="M982.924,135.58c0.029,0.163,0.06,0.326,0.09,0.494C982.983,135.906,982.953,135.743,982.924,135.58z"/>
	<path fill="#FFFFFF" d="M983.216,137.207c0.031,0.176,0.063,0.355,0.095,0.536C983.279,137.563,983.247,137.383,983.216,137.207z"
		/>
	<path fill="#FFFFFF" d="M983.515,138.918c0.001,0.008,0.003,0.018,0.005,0.026c0.025,0.148,0.051,0.295,0.076,0.446
		C983.568,139.231,983.541,139.075,983.515,138.918z"/>
	<path fill="#FFFFFF" d="M982.668,134.196c0.027,0.146,0.055,0.296,0.083,0.448C982.723,134.492,982.695,134.343,982.668,134.196z"
		/>
	<path fill="#FFFFFF" d="M982.193,131.73c0.021,0.109,0.044,0.22,0.065,0.333C982.236,131.95,982.215,131.839,982.193,131.73z"/>
	<path fill="#FFFFFF" d="M987.843,172.062c0.016,0.168,0.032,0.335,0.048,0.504C987.875,172.396,987.858,172.23,987.843,172.062z"/>
	<path fill="#FFFFFF" d="M981.807,129.815c0.01,0.048,0.021,0.1,0.031,0.15c0.004,0.021,0.008,0.039,0.012,0.06
		C981.835,129.952,981.821,129.885,981.807,129.815z"/>
	<path fill="#FFFFFF" d="M981.666,129.144c0.004,0.017,0.007,0.033,0.011,0.05C981.673,129.177,981.67,129.161,981.666,129.144z"/>
	<path fill="#FFFFFF" d="M988.142,175.359c0.017,0.191,0.034,0.382,0.051,0.574C988.176,175.741,988.159,175.551,988.142,175.359z"
		/>
	<path fill="#FFFFFF" d="M989.396,193.482c0.009,0.156,0.016,0.314,0.023,0.47C989.412,193.796,989.405,193.638,989.396,193.482z"/>
	<path fill="#FFFFFF" d="M981.526,128.49c0.003,0.015,0.007,0.031,0.01,0.045c0.004,0.019,0.007,0.031,0.011,0.05
		C981.539,128.55,981.533,128.523,981.526,128.49z"/>
	<path fill="#FFFFFF" d="M989.584,197.417c0.002,0.057,0.005,0.116,0.007,0.173C989.589,197.532,989.586,197.474,989.584,197.417z"
		/>
	<path fill="#FFFFFF" d="M988.699,182.297c0.016,0.212,0.031,0.426,0.047,0.64C988.73,182.723,988.715,182.51,988.699,182.297z"/>
	<path fill="#FFFFFF" d="M989.186,189.654c0.012,0.195,0.022,0.394,0.034,0.59C989.208,190.048,989.197,189.85,989.186,189.654z"/>
	<path fill="#FFFFFF" d="M988.428,178.769c0.017,0.208,0.033,0.417,0.05,0.626C988.461,179.185,988.444,178.977,988.428,178.769z"/>
	<path fill="#FFFFFF" d="M988.953,185.927c0.014,0.209,0.027,0.42,0.04,0.63C988.98,186.347,988.967,186.136,988.953,185.927z"/>
	<path fill="#FFFFFF" d="M982.422,132.903c-0.017-0.09-0.033-0.173-0.051-0.261c0.042,0.217,0.085,0.436,0.129,0.666
		c-0.006-0.032-0.013-0.067-0.019-0.099C982.461,133.105,982.441,133.005,982.422,132.903z"/>
	<path fill="#FFFFFF" d="M982.668,134.196c-0.013-0.067-0.024-0.128-0.037-0.194c0.042,0.22,0.084,0.444,0.127,0.675
		c-0.002-0.011-0.005-0.022-0.007-0.034C982.723,134.493,982.695,134.343,982.668,134.196z"/>
	<path fill="#FFFFFF" d="M984.186,142.96c0.023,0.147,0.048,0.301,0.071,0.45c-0.004-0.028-0.009-0.057-0.014-0.085
		C984.225,143.203,984.205,143.08,984.186,142.96z"/>
	<path fill="#FFFFFF" d="M981.666,129.144c-0.034-0.164-0.064-0.305-0.095-0.443c0.034,0.159,0.071,0.329,0.111,0.522
		c-0.002-0.009-0.004-0.021-0.006-0.029C981.673,129.177,981.67,129.161,981.666,129.144z"/>
	<path fill="#FFFFFF" d="M982.193,131.73c-0.02-0.099-0.037-0.189-0.057-0.285c0.04,0.203,0.081,0.408,0.124,0.626
		c-0.001-0.002-0.001-0.005-0.002-0.008C982.237,131.95,982.215,131.839,982.193,131.73z"/>
	<path fill="#FFFFFF" d="M981.526,128.49c-0.032-0.147-0.063-0.286-0.087-0.397c0.027,0.123,0.061,0.276,0.097,0.443
		C981.533,128.521,981.529,128.504,981.526,128.49z"/>
	<path fill="#FFFFFF" d="M983.902,141.223c0.012,0.073,0.024,0.148,0.037,0.222c-0.004-0.019-0.007-0.04-0.01-0.059
		C983.92,141.331,983.911,141.277,983.902,141.223z"/>
	<path fill="#FFFFFF" d="M983.216,137.207c-0.003-0.02-0.007-0.037-0.01-0.056c0.038,0.214,0.076,0.434,0.115,0.654
		c-0.004-0.021-0.007-0.042-0.011-0.063C983.279,137.563,983.247,137.383,983.216,137.207z"/>
	<path fill="#FFFFFF" d="M983.52,138.944c0.034,0.204,0.07,0.414,0.105,0.623c-0.01-0.058-0.02-0.119-0.029-0.177
		C983.57,139.24,983.545,139.093,983.52,138.944z"/>
	<path fill="#FFFFFF" d="M982.924,135.58c-0.005-0.026-0.01-0.051-0.015-0.077c0.041,0.221,0.082,0.446,0.123,0.676
		c-0.006-0.034-0.013-0.071-0.019-0.105C982.983,135.906,982.953,135.743,982.924,135.58z"/>
	<path fill="#FFFFFF" d="M982.002,130.769c-0.027-0.131-0.051-0.246-0.076-0.37c0.038,0.185,0.076,0.37,0.116,0.573
		c-0.006-0.029-0.012-0.063-0.018-0.092C982.017,130.841,982.009,130.807,982.002,130.769z"/>
	<path fill="#FFFFFF" d="M981.739,129.491c0.031,0.151,0.063,0.306,0.099,0.474c-0.011-0.05-0.021-0.102-0.031-0.15
		C981.783,129.7,981.761,129.598,981.739,129.491z"/>
	<path fill="#FFFFFF" d="M581.344,940.397c0.694-0.093,1.388-0.186,2.081-0.279c0.017-0.003,0.033-0.005,0.05-0.007
		c-0.761,0.103-1.522,0.205-2.284,0.308C581.241,940.411,581.292,940.404,581.344,940.397z"/>
	<path fill="#FFFFFF" d="M981.323,127.567c0.007,0.17,0.013,0.353,0.02,0.525h0.097L981.323,127.567z"/>
	<path fill="#FFFFFF" d="M980.926,236.958"/>
	<path fill="#FFFFFF" d="M980.963,236.612v-0.015c-0.013,0.121-0.023,0.239-0.037,0.36h0.001c0.012-0.113,0.024-0.226,0.036-0.338
		V236.612z"/>
	<path fill="#FFFFFF" d="M980.926,236.958c0.014-0.121,0.024-0.239,0.037-0.36"/>
	<path fill="#FFFFFF" d="M983.911,184.918v7.407c0.004-0.166,0.01-0.334,0.014-0.5c0.013-0.51,0.022-1.013,0.034-1.518
		c0.014-0.661,0.027-1.318,0.039-1.971c0.01-0.563,0.021-1.126,0.028-1.684c0.01-0.658,0.018-1.31,0.024-1.96
		c0.011-0.92,0.019-1.833,0.024-2.737c0.003-0.483,0.006-0.965,0.008-1.443c0.002-0.64,0.003-1.276,0.003-1.907
		c0-0.391-0.001-0.777-0.002-1.165c-0.003-1.183-0.01-2.35-0.021-3.502c-0.003-0.314-0.005-0.631-0.009-0.942
		c-0.007-0.66-0.016-1.313-0.025-1.962c-0.004-0.317-0.01-0.632-0.015-0.947c-0.022-1.373-0.05-2.725-0.082-4.049
		c-0.002-0.06-0.003-0.122-0.005-0.182c-0.016-0.661-0.034-1.313-0.053-1.961c-0.008-0.263-0.016-0.524-0.023-0.785
		c-0.06-1.994-0.13-3.928-0.209-5.798c-0.011-0.271-0.022-0.542-0.034-0.81c-0.025-0.568-0.05-1.134-0.076-1.69
		c-0.01-0.206-0.021-0.406-0.03-0.61c-0.048-0.996-0.099-1.972-0.15-2.928c-0.017-0.298-0.033-0.596-0.05-0.89
		c-0.027-0.483-0.055-0.961-0.083-1.433c-0.021-0.335-0.041-0.665-0.062-0.995c-0.021-0.356-0.044-0.717-0.066-1.067
		c-0.001-0.016-0.002-0.031-0.003-0.047c-0.02-0.311-0.041-0.612-0.061-0.918c-0.026-0.392-0.053-0.784-0.079-1.167
		c-0.025-0.368-0.052-0.731-0.077-1.092c-0.03-0.425-0.062-0.844-0.093-1.259c-0.021-0.278-0.041-0.561-0.062-0.834
		c-0.05-0.637-0.099-1.258-0.148-1.868c-0.019-0.224-0.036-0.442-0.055-0.663c-0.007-0.079-0.014-0.155-0.02-0.233
		c-0.035-0.422-0.071-0.84-0.106-1.248c-0.007-0.084-0.015-0.169-0.021-0.253c-0.021-0.233-0.041-0.46-0.062-0.688
		c-0.036-0.403-0.072-0.803-0.108-1.192c-0.024-0.271-0.05-0.536-0.075-0.799c-0.035-0.371-0.069-0.735-0.104-1.092
		c-0.024-0.252-0.05-0.504-0.074-0.749c-0.034-0.348-0.069-0.684-0.104-1.017c-0.023-0.229-0.047-0.462-0.07-0.685
		c-0.037-0.355-0.074-0.695-0.11-1.032c-0.016-0.141-0.031-0.289-0.047-0.427c-0.006-0.051-0.011-0.104-0.017-0.155
		c-0.053-0.478-0.104-0.941-0.155-1.379h-0.097"/>
	<path fill="#FFFFFF" d="M983.675,199.708c0.02-0.517,0.035-1.022,0.054-1.535c-0.046,1.263-0.097,2.538-0.152,3.823
		c0.03-0.7,0.063-1.406,0.091-2.1C983.669,199.834,983.672,199.771,983.675,199.708z"/>
	<path fill="#FFFFFF" d="M980.963,236.598v0.015c0.193-1.787,0.373-3.558,0.546-5.317
		C981.337,233.049,981.155,234.816,980.963,236.598z"/>
	<path fill="#FFFFFF" d="M983.773,196.918c0.045-1.336,0.086-2.657,0.12-3.966C983.859,194.26,983.818,195.583,983.773,196.918z"/>
	<path fill="#FFFFFF" d="M980.989,236.374l-0.026,0.239v0.007C980.972,236.538,980.98,236.456,980.989,236.374L980.989,236.374z"/>
	<path fill="#FFFFFF" d="M982.592,218.706c0.107-1.44,0.207-2.868,0.302-4.285C982.799,215.838,982.699,217.266,982.592,218.706z"/>
	<path fill="#FFFFFF" d="M983.91,192.378c0-0.018,0-0.035,0.001-0.052v-7.407"/>
	<path fill="#FFFFFF" d="M983.259,208.488c0.005-0.093,0.009-0.184,0.015-0.277c-0.096,1.744-0.202,3.509-0.317,5.292
		c0.108-1.674,0.21-3.336,0.301-4.977C983.258,208.513,983.258,208.5,983.259,208.488z"/>
	<path fill="#FFFFFF" d="M981.641,229.894c0.131-1.374,0.258-2.74,0.376-4.097C981.898,227.153,981.771,228.52,981.641,229.894z"/>
	<path fill="#FFFFFF" d="M982.161,224.107c0.108-1.283,0.212-2.557,0.31-3.822C982.373,221.551,982.27,222.825,982.161,224.107z"/>
	<path fill="#FFFFFF" d="M983.489,203.983c0.013-0.269,0.022-0.532,0.035-0.8c-0.072,1.592-0.152,3.2-0.241,4.826
		c0.07-1.272,0.136-2.538,0.195-3.79C983.482,204.141,983.486,204.062,983.489,203.983z"/>
	<path fill="#FFFFFF" d="M980.963,236.598c0.192-1.781,0.374-3.549,0.546-5.303c0.046-0.47,0.088-0.934,0.132-1.401
		c0.131-1.374,0.258-2.741,0.376-4.097c0.05-0.565,0.097-1.127,0.145-1.689c0.108-1.282,0.212-2.557,0.31-3.822
		c0.041-0.527,0.082-1.055,0.121-1.579c0.107-1.44,0.207-2.868,0.302-4.285c0.02-0.305,0.042-0.614,0.063-0.918
		c0.115-1.782,0.222-3.547,0.317-5.292c0.004-0.068,0.007-0.134,0.01-0.202c0.089-1.626,0.169-3.234,0.241-4.826
		c0.019-0.397,0.034-0.791,0.052-1.187c0.056-1.285,0.106-2.561,0.152-3.823c0.016-0.419,0.03-0.838,0.045-1.255
		c0.045-1.335,0.086-2.658,0.12-3.966c0.005-0.191,0.011-0.384,0.017-0.574"/>
	<path fill="#FFFFFF" d="M982.907,144.155c-0.012-0.167-0.024-0.325-0.036-0.49c0.025,0.36,0.052,0.724,0.077,1.092
		c-0.001-0.017-0.002-0.034-0.003-0.05C982.933,144.524,982.92,144.335,982.907,144.155z"/>
	<path fill="#FFFFFF" d="M983.091,146.889c0.022,0.35,0.045,0.71,0.066,1.067c-0.011-0.176-0.021-0.356-0.032-0.531
		C983.113,147.246,983.103,147.066,983.091,146.889z"/>
	<path fill="#FFFFFF" d="M983.027,145.924c0.02,0.306,0.041,0.607,0.061,0.918c-0.004-0.069-0.009-0.139-0.013-0.208
		C983.06,146.393,983.043,146.162,983.027,145.924z"/>
	<path fill="#FFFFFF" d="M984.043,171.869c-0.004-0.282-0.009-0.555-0.014-0.834c0.01,0.649,0.019,1.302,0.025,1.962
		c-0.002-0.168-0.002-0.341-0.004-0.508C984.048,172.282,984.046,172.075,984.043,171.869z"/>
	<path fill="#FFFFFF" d="M983.928,165.857c-0.016-0.661-0.034-1.312-0.053-1.961C983.894,164.544,983.912,165.196,983.928,165.857z"
		/>
	<path fill="#FFFFFF" d="M982.778,142.406c-0.021-0.278-0.041-0.561-0.062-0.834C982.737,141.845,982.758,142.128,982.778,142.406z"
		/>
	<path fill="#FFFFFF" d="M984.077,175.435c-0.003-0.504-0.009-0.997-0.014-1.495c0.011,1.152,0.018,2.319,0.021,3.502
		c-0.002-0.452-0.001-0.911-0.003-1.358C984.08,175.866,984.078,175.65,984.077,175.435z"/>
	<path fill="#FFFFFF" d="M984.087,179.216c0-0.206-0.001-0.405-0.001-0.61c0,0.631-0.001,1.268-0.003,1.907
		c0.001-0.268,0.003-0.542,0.004-0.808C984.087,179.542,984.087,179.38,984.087,179.216z"/>
	<path fill="#FFFFFF" d="M981.595,129.472c0.006,0.051,0.011,0.104,0.017,0.155c-0.004-0.033-0.007-0.069-0.011-0.103
		C981.599,129.506,981.597,129.49,981.595,129.472z"/>
	<path fill="#FFFFFF" d="M982.514,139.042c0.019,0.22,0.036,0.438,0.055,0.663c-0.005-0.054-0.009-0.111-0.013-0.165
		C982.541,139.37,982.527,139.209,982.514,139.042z"/>
	<path fill="#FFFFFF" d="M982.366,137.308c0.007,0.084,0.015,0.169,0.021,0.253c-0.004-0.045-0.008-0.094-0.012-0.14
		C982.373,137.383,982.369,137.346,982.366,137.308z"/>
	<path fill="#FFFFFF" d="M984.051,184.693c0.011-0.92,0.019-1.832,0.024-2.737C984.069,182.861,984.062,183.773,984.051,184.693z"/>
	<path fill="#FFFFFF" d="M983.392,152.004c-0.014-0.247-0.027-0.486-0.04-0.73c0.052,0.956,0.103,1.932,0.15,2.928
		c-0.021-0.442-0.042-0.889-0.064-1.323C983.422,152.585,983.407,152.294,983.392,152.004z"/>
	<path fill="#FFFFFF" d="M983.998,188.337c0.01-0.563,0.021-1.125,0.028-1.684C984.019,187.211,984.008,187.774,983.998,188.337z"/>
	<path fill="#FFFFFF" d="M983.236,149.247c-0.006-0.1-0.012-0.196-0.018-0.296c0.028,0.472,0.056,0.95,0.083,1.433
		c-0.005-0.087-0.01-0.177-0.015-0.264C983.271,149.828,983.254,149.535,983.236,149.247z"/>
	<path fill="#FFFFFF" d="M983.925,191.826c0.013-0.51,0.022-1.013,0.034-1.518C983.947,190.813,983.938,191.316,983.925,191.826z"/>
	<path fill="#FFFFFF" d="M983.987,168.438c-0.017-0.811-0.035-1.604-0.055-2.398c0.032,1.324,0.06,2.676,0.082,4.049
		c-0.007-0.394-0.012-0.794-0.019-1.184C983.992,168.75,983.99,168.592,983.987,168.438z"/>
	<path fill="#FFFFFF" d="M983.539,154.954c-0.002-0.047-0.005-0.093-0.007-0.141c0.026,0.557,0.051,1.122,0.076,1.69
		c-0.012-0.257-0.021-0.522-0.033-0.777C983.563,155.466,983.551,155.211,983.539,154.954z"/>
	<path fill="#FFFFFF" d="M983.68,158.174c-0.012-0.292-0.024-0.573-0.037-0.861c0.079,1.871,0.149,3.804,0.209,5.798
		c-0.045-1.507-0.095-2.991-0.151-4.429C983.693,158.511,983.687,158.345,983.68,158.174z"/>
	<path fill="#FFFFFF" d="M983.911,192.411c0.004-0.147,0.008-0.296,0.012-0.443l-0.001-0.002c0.001-0.047,0.002-0.093,0.003-0.139
		c-0.004,0.165-0.01,0.334-0.014,0.5v0.055V192.411z"/>
	<path fill="#FFFFFF" d="M981.579,129.334c-0.047-0.429-0.094-0.846-0.14-1.242c0.051,0.438,0.103,0.902,0.155,1.379
		C981.59,129.426,981.584,129.379,981.579,129.334z"/>
	<path fill="#FFFFFF" d="M982.217,135.643c-0.007-0.073-0.014-0.143-0.021-0.216c0.036,0.389,0.072,0.789,0.108,1.192
		c-0.011-0.122-0.021-0.246-0.032-0.367C982.254,136.048,982.235,135.843,982.217,135.643z"/>
	<path fill="#FFFFFF" d="M984.029,171.035c-0.004-0.317-0.01-0.632-0.015-0.947C984.02,170.403,984.025,170.718,984.029,171.035z"/>
	<path fill="#FFFFFF" d="M983.933,166.039c-0.002-0.06-0.003-0.122-0.005-0.182C983.93,165.917,983.931,165.979,983.933,166.039z"/>
	<path fill="#FFFFFF" d="M982.388,137.561c0.035,0.408,0.071,0.826,0.106,1.248c-0.021-0.251-0.042-0.505-0.063-0.751
		C982.417,137.89,982.402,137.727,982.388,137.561z"/>
	<path fill="#FFFFFF" d="M983.643,157.313c-0.011-0.271-0.022-0.542-0.034-0.81C983.62,156.771,983.632,157.042,983.643,157.313z"/>
	<path fill="#FFFFFF" d="M984.063,173.939c-0.003-0.314-0.005-0.631-0.009-0.942C984.059,173.309,984.061,173.625,984.063,173.939z"
		/>
	<path fill="#FFFFFF" d="M984.026,186.653c0.01-0.658,0.018-1.31,0.024-1.96C984.044,185.344,984.036,185.995,984.026,186.653z"/>
	<path fill="#FFFFFF" d="M984.075,181.957c0.003-0.483,0.006-0.965,0.008-1.443C984.081,180.991,984.078,181.474,984.075,181.957z"
		/>
	<path fill="#FFFFFF" d="M983.532,154.813c-0.01-0.206-0.021-0.406-0.03-0.61C983.512,154.406,983.522,154.607,983.532,154.813z"/>
	<path fill="#FFFFFF" d="M981.885,132.209c-0.016-0.15-0.03-0.292-0.046-0.439c0.034,0.333,0.069,0.669,0.104,1.017
		c-0.009-0.093-0.019-0.192-0.027-0.283C981.904,132.404,981.895,132.309,981.885,132.209z"/>
	<path fill="#FFFFFF" d="M982.067,134.05c-0.018-0.177-0.034-0.341-0.051-0.514c0.035,0.356,0.069,0.721,0.104,1.092
		c-0.01-0.103-0.02-0.21-0.029-0.312C982.084,134.228,982.075,134.136,982.067,134.05z"/>
	<path fill="#FFFFFF" d="M984.084,177.441c0.001,0.388,0.002,0.774,0.002,1.165C984.086,178.215,984.085,177.829,984.084,177.441z"
		/>
	<path fill="#FFFFFF" d="M983.959,190.308c0.014-0.66,0.027-1.318,0.039-1.971C983.986,188.99,983.973,189.647,983.959,190.308z"/>
	<path fill="#FFFFFF" d="M983.352,151.274c-0.017-0.298-0.033-0.596-0.05-0.89C983.318,150.678,983.335,150.977,983.352,151.274z"/>
	<path fill="#FFFFFF" d="M981.724,130.661c-0.022-0.208-0.044-0.406-0.065-0.608c0.036,0.337,0.073,0.677,0.11,1.032
		c-0.001-0.01-0.002-0.021-0.004-0.032C981.751,130.921,981.737,130.791,981.724,130.661z"/>
	<path fill="#FFFFFF" d="M983.219,148.951c-0.021-0.336-0.041-0.665-0.062-0.995C983.178,148.286,983.198,148.616,983.219,148.951z"
		/>
	<path fill="#FFFFFF" d="M983.875,163.896c-0.008-0.263-0.016-0.524-0.023-0.785C983.859,163.372,983.867,163.633,983.875,163.896z"
		/>
	<path fill="#FFFFFF" d="M982.95,144.78c-0.001-0.008-0.001-0.016-0.002-0.023c0.026,0.383,0.053,0.775,0.079,1.167
		c-0.015-0.209-0.028-0.421-0.042-0.628C982.974,145.123,982.962,144.951,982.95,144.78z"/>
	<path fill="#FFFFFF" d="M982.586,139.918c-0.006-0.073-0.012-0.142-0.018-0.214c0.05,0.61,0.099,1.231,0.148,1.868
		c-0.043-0.551-0.085-1.091-0.128-1.622C982.588,139.94,982.587,139.929,982.586,139.918z"/>
	<path fill="#FFFFFF" d="M982.809,142.806c-0.01-0.134-0.02-0.266-0.03-0.399c0.031,0.415,0.063,0.833,0.093,1.259
		c-0.006-0.083-0.012-0.169-0.018-0.252C982.839,143.208,982.823,143.008,982.809,142.806z"/>
	<path fill="#FFFFFF" d="M983.479,204.219c-0.06,1.251-0.125,2.517-0.195,3.79c-0.003,0.068-0.006,0.134-0.01,0.202
		c-0.006,0.093-0.01,0.184-0.015,0.277C983.339,207.052,983.411,205.629,983.479,204.219z"/>
	<path fill="#FFFFFF" d="M980.989,236.374c1.044-9.714,1.778-19.025,2.268-27.849c-0.091,1.641-0.192,3.303-0.301,4.977
		c-0.021,0.304-0.043,0.613-0.063,0.918c-0.095,1.417-0.194,2.845-0.302,4.285c-0.039,0.524-0.08,1.052-0.121,1.579
		c-0.098,1.266-0.201,2.54-0.31,3.822c-0.048,0.563-0.095,1.124-0.145,1.689c-0.118,1.356-0.245,2.723-0.376,4.097
		c-0.044,0.468-0.086,0.932-0.132,1.401c-0.173,1.76-0.353,3.53-0.546,5.317L980.989,236.374L980.989,236.374z"/>
	<path fill="#FFFFFF" d="M983.667,199.896c-0.027,0.693-0.061,1.399-0.091,2.1c-0.018,0.396-0.033,0.789-0.052,1.187
		c-0.013,0.269-0.022,0.531-0.035,0.8C983.555,202.608,983.613,201.246,983.667,199.896z"/>
	<path fill="#FFFFFF" d="M983.911,192.381v-0.055c-0.001,0.017-0.001,0.035-0.001,0.052L983.911,192.381z"/>
	<path fill="#FFFFFF" d="M983.911,192.411v-0.03c-0.005,0.188-0.013,0.383-0.018,0.571c-0.034,1.309-0.075,2.63-0.12,3.966
		c-0.015,0.417-0.029,0.835-0.045,1.255c-0.019,0.513-0.034,1.018-0.054,1.535C983.771,197.23,983.85,194.798,983.911,192.411z"/>
	<path fill="#FFFFFF" d="M982.894,214.421c0.02-0.306,0.042-0.614,0.063-0.918C982.936,213.807,982.913,214.116,982.894,214.421z"/>
	<path fill="#FFFFFF" d="M983.524,203.183c0.019-0.398,0.034-0.791,0.052-1.187C983.559,202.392,983.543,202.785,983.524,203.183z"
		/>
	<path fill="#FFFFFF" d="M983.273,208.211c0.004-0.068,0.007-0.134,0.01-0.202C983.28,208.077,983.277,208.143,983.273,208.211z"/>
	<path fill="#FFFFFF" d="M983.91,192.378c-0.006,0.19-0.012,0.383-0.017,0.574c0.005-0.188,0.013-0.383,0.018-0.571L983.91,192.378z
		"/>
	<path fill="#FFFFFF" d="M982.471,220.285c0.041-0.527,0.082-1.055,0.121-1.579C982.553,219.23,982.512,219.758,982.471,220.285z"/>
	<path fill="#FFFFFF" d="M982.017,225.797c0.05-0.565,0.097-1.127,0.145-1.689C982.113,224.67,982.066,225.231,982.017,225.797z"/>
	<path fill="#FFFFFF" d="M983.729,198.173c0.016-0.419,0.03-0.838,0.045-1.255C983.759,197.335,983.744,197.753,983.729,198.173z"/>
	<path fill="#FFFFFF" d="M981.509,231.295c0.046-0.47,0.088-0.934,0.132-1.401C981.597,230.361,981.555,230.825,981.509,231.295z"/>
	<path fill="#FFFFFF" d="M982.589,139.951c0.043,0.53,0.085,1.071,0.128,1.622c0.021,0.273,0.041,0.556,0.062,0.834
		c0.011,0.133,0.021,0.265,0.03,0.399C982.736,141.826,982.663,140.869,982.589,139.951z"/>
	<path fill="#FFFFFF" d="M982.556,139.54c0.004,0.053,0.008,0.111,0.013,0.165c0.006,0.072,0.012,0.142,0.018,0.214
		C982.576,139.792,982.565,139.665,982.556,139.54z"/>
	<path fill="#FFFFFF" d="M983.996,168.904c0.007,0.39,0.012,0.79,0.019,1.184c0.005,0.315,0.011,0.629,0.015,0.947
		c0.005,0.279,0.01,0.552,0.014,0.834C984.03,170.868,984.014,169.881,983.996,168.904z"/>
	<path fill="#FFFFFF" d="M983.7,158.683c0.057,1.438,0.106,2.921,0.151,4.429c0.008,0.261,0.016,0.521,0.023,0.785
		c0.019,0.649,0.037,1.3,0.053,1.961c0.002,0.06,0.003,0.122,0.005,0.182c0.02,0.794,0.038,1.587,0.055,2.398
		C983.92,165.029,983.822,161.773,983.7,158.683z"/>
	<path fill="#FFFFFF" d="M984.081,176.083c0.002,0.448,0.001,0.906,0.003,1.358c0.001,0.388,0.002,0.774,0.002,1.165
		c0,0.205,0.001,0.404,0.001,0.61C984.088,178.16,984.086,177.116,984.081,176.083z"/>
	<path fill="#FFFFFF" d="M984.051,172.489c0.002,0.167,0.002,0.34,0.004,0.508c0.004,0.312,0.006,0.628,0.009,0.942
		c0.005,0.499,0.011,0.991,0.014,1.495C984.071,174.441,984.063,173.46,984.051,172.489z"/>
	<path fill="#FFFFFF" d="M983.287,150.12c0.005,0.087,0.01,0.177,0.015,0.264c0.017,0.294,0.033,0.592,0.05,0.89
		c0.013,0.244,0.026,0.483,0.04,0.73C983.357,151.367,983.323,150.739,983.287,150.12z"/>
	<path fill="#FFFFFF" d="M982.945,144.707c0.001,0.016,0.002,0.034,0.003,0.05c0.001,0.008,0.001,0.016,0.002,0.023
		C982.948,144.756,982.946,144.731,982.945,144.707z"/>
	<path fill="#FFFFFF" d="M982.985,145.295c0.014,0.207,0.027,0.419,0.042,0.628c0.016,0.238,0.032,0.469,0.048,0.711
		C983.046,146.181,983.016,145.738,982.985,145.295z"/>
	<path fill="#FFFFFF" d="M983.125,147.425c0.011,0.175,0.021,0.355,0.032,0.531c0.021,0.331,0.041,0.659,0.062,0.995
		c0.006,0.1,0.012,0.196,0.018,0.296C983.2,148.63,983.163,148.024,983.125,147.425z"/>
	<path fill="#FFFFFF" d="M983.438,152.879c0.022,0.435,0.043,0.881,0.064,1.323c0.01,0.204,0.021,0.404,0.03,0.61
		c0.002,0.048,0.005,0.094,0.007,0.141C983.506,154.253,983.473,153.561,983.438,152.879z"/>
	<path fill="#FFFFFF" d="M983.575,155.726c0.012,0.255,0.021,0.52,0.033,0.777c0.012,0.269,0.023,0.539,0.034,0.81
		c0.013,0.288,0.025,0.57,0.037,0.861C983.646,157.347,983.611,156.529,983.575,155.726z"/>
	<path fill="#FFFFFF" d="M983.923,191.968c0.105-4.239,0.157-8.33,0.164-12.262c-0.001,0.266-0.003,0.54-0.004,0.808
		c-0.002,0.478-0.005,0.96-0.008,1.443c-0.006,0.905-0.014,1.816-0.024,2.737c-0.007,0.65-0.015,1.302-0.024,1.96
		c-0.008,0.559-0.019,1.121-0.028,1.684c-0.012,0.653-0.025,1.311-0.039,1.971c-0.012,0.505-0.021,1.008-0.034,1.518
		c-0.001,0.046-0.002,0.092-0.003,0.139L983.923,191.968z"/>
	<path fill="#FFFFFF" d="M982.854,143.413c0.006,0.083,0.012,0.168,0.018,0.252c0.012,0.166,0.024,0.323,0.036,0.49
		C982.89,143.904,982.871,143.66,982.854,143.413z"/>
	<path fill="#FFFFFF" d="M982.376,137.421c0.004,0.045,0.008,0.094,0.012,0.14c0.015,0.166,0.029,0.329,0.043,0.497
		C982.412,137.843,982.395,137.632,982.376,137.421z"/>
	<path fill="#FFFFFF" d="M981.885,132.209c0.01,0.099,0.02,0.194,0.03,0.294C981.904,132.403,981.895,132.309,981.885,132.209z"/>
	<path fill="#FFFFFF" d="M982.067,134.05c0.008,0.086,0.017,0.178,0.024,0.266C982.084,134.228,982.075,134.136,982.067,134.05z"/>
	<path fill="#FFFFFF" d="M981.579,129.334c0.005,0.045,0.011,0.092,0.016,0.138c0.002,0.018,0.004,0.034,0.006,0.052
		C981.594,129.46,981.586,129.397,981.579,129.334z"/>
	<path fill="#FFFFFF" d="M981.724,130.661c0.014,0.13,0.027,0.26,0.041,0.393C981.751,130.921,981.737,130.791,981.724,130.661z"/>
	<path fill="#FFFFFF" d="M982.217,135.643c0.019,0.201,0.037,0.406,0.056,0.61C982.254,136.048,982.235,135.843,982.217,135.643z"/>
	<g>
		<path fill="#FFFFFF" d="M1270.135,1267.088c-0.004,0.003-0.008,0.006-0.013,0.009c-40.682,28.284-227.444,157.469-322.559,120.424
			c-9.777-3.809-20.144-8.883-26.093-16.657c-5.948-7.774-9.94-16.55-12.065-24.128c-24.191-86.292,78.34-147.855,49.903-201.994
			c-0.271-0.529-0.551-1.058-0.848-1.585c-0.167-0.29-0.337-0.58-0.512-0.87c-0.245-0.414-0.5-0.828-0.763-1.24
			c-0.471-0.733-0.952-1.467-1.475-2.197c-72.967-81.18-361.582-112.587-440.027-105.795c-1.251,0.139-2.483,0.284-3.697,0.435
			c-0.411,0.052-0.808,0.106-1.214,0.159c-0.795,0.104-1.592,0.205-2.371,0.313c-0.476,0.066-0.939,0.137-1.409,0.205
			c-0.692,0.1-1.386,0.199-2.065,0.304c-0.494,0.076-0.975,0.156-1.462,0.234c-0.639,0.103-1.28,0.205-1.907,0.311
			c-0.491,0.084-0.972,0.171-1.457,0.256c-0.606,0.107-1.212,0.214-1.808,0.325c-0.482,0.089-0.956,0.182-1.432,0.274
			c-0.58,0.111-1.159,0.225-1.729,0.34c-0.47,0.096-0.934,0.193-1.397,0.291c-0.558,0.117-1.113,0.235-1.661,0.356
			c-0.456,0.101-0.906,0.203-1.355,0.306c-0.538,0.124-1.073,0.248-1.601,0.374c-0.443,0.106-0.882,0.214-1.319,0.322
			c-0.516,0.128-1.029,0.257-1.535,0.389c-0.428,0.11-0.853,0.222-1.273,0.335c-0.504,0.135-1.003,0.271-1.498,0.41
			c-0.407,0.113-0.812,0.228-1.212,0.343c-0.489,0.142-0.972,0.284-1.451,0.429c-0.393,0.117-0.785,0.235-1.171,0.355
			c-0.475,0.147-0.942,0.297-1.408,0.447c-0.372,0.12-0.744,0.24-1.108,0.361c-0.468,0.156-0.928,0.314-1.386,0.474
			c-0.35,0.121-0.701,0.241-1.044,0.364c-0.459,0.164-0.908,0.33-1.356,0.497c-0.328,0.122-0.66,0.243-0.982,0.366
			c-0.46,0.176-0.908,0.355-1.357,0.534c-0.296,0.117-0.597,0.234-0.888,0.354c-0.473,0.193-0.933,0.39-1.395,0.587
			c-0.255,0.108-0.516,0.216-0.767,0.325c-0.516,0.226-1.018,0.454-1.519,0.684c-0.184,0.085-0.375,0.167-0.557,0.253
			c-1.364,0.635-2.671,1.286-3.924,1.95c-0.147,0.079-0.288,0.159-0.434,0.237c-0.471,0.254-0.939,0.508-1.395,0.766
			c-0.201,0.113-0.393,0.229-0.59,0.343c-0.391,0.226-0.782,0.452-1.162,0.681c-0.213,0.129-0.419,0.259-0.628,0.389
			c-0.352,0.217-0.703,0.434-1.044,0.652c-0.217,0.14-0.427,0.28-0.64,0.421c-0.322,0.212-0.644,0.424-0.957,0.638
			c-0.216,0.148-0.427,0.297-0.639,0.446c-0.298,0.209-0.595,0.418-0.884,0.629c-0.211,0.153-0.418,0.309-0.625,0.464
			c-0.279,0.209-0.558,0.418-0.829,0.629c-0.203,0.157-0.401,0.315-0.6,0.475c-0.265,0.211-0.527,0.422-0.784,0.635
			c-0.194,0.16-0.384,0.321-0.574,0.482c-0.25,0.212-0.498,0.426-0.74,0.64c-0.186,0.163-0.368,0.327-0.549,0.491
			c-0.237,0.215-0.47,0.43-0.7,0.646c-0.175,0.164-0.349,0.329-0.52,0.494c-0.226,0.218-0.446,0.437-0.664,0.655
			c-0.166,0.167-0.332,0.333-0.494,0.5c-0.212,0.219-0.418,0.438-0.624,0.659c-0.157,0.168-0.315,0.337-0.469,0.506
			c-0.201,0.223-0.396,0.445-0.591,0.668c-0.147,0.168-0.295,0.337-0.439,0.506c-0.192,0.227-0.378,0.454-0.563,0.682
			c-0.136,0.167-0.275,0.333-0.408,0.501c-0.183,0.23-0.358,0.462-0.535,0.694c-0.126,0.166-0.256,0.331-0.379,0.498
			c-0.176,0.238-0.345,0.478-0.514,0.717c-0.113,0.16-0.23,0.319-0.341,0.479c-0.175,0.254-0.342,0.509-0.509,0.764
			c-0.097,0.147-0.199,0.294-0.293,0.442c-0.195,0.305-0.382,0.61-0.567,0.916c-0.065,0.106-0.134,0.214-0.198,0.321
			c-0.232,0.39-0.456,0.78-0.673,1.172c-0.093,0.169-0.18,0.338-0.271,0.507c-0.126,0.235-0.254,0.47-0.375,0.705
			c-0.102,0.198-0.196,0.397-0.294,0.596c-0.101,0.205-0.205,0.411-0.303,0.617c-0.1,0.211-0.193,0.421-0.289,0.632
			c-0.089,0.194-0.179,0.39-0.264,0.585c-0.095,0.217-0.184,0.433-0.274,0.649c-0.079,0.188-0.159,0.377-0.234,0.565
			c-0.089,0.222-0.174,0.444-0.259,0.666c-0.07,0.183-0.14,0.365-0.208,0.549c-0.083,0.227-0.163,0.453-0.242,0.681
			c-0.062,0.176-0.124,0.353-0.183,0.528c-0.078,0.233-0.153,0.466-0.227,0.698c-0.054,0.169-0.107,0.339-0.159,0.508
			c-0.073,0.239-0.143,0.479-0.211,0.717c-0.047,0.161-0.092,0.323-0.137,0.484c-0.067,0.243-0.132,0.487-0.195,0.73
			c-0.041,0.155-0.08,0.31-0.118,0.465c-0.062,0.251-0.123,0.501-0.181,0.751c-0.033,0.143-0.065,0.285-0.097,0.428
			c-0.059,0.262-0.115,0.523-0.169,0.784c-0.026,0.127-0.051,0.254-0.076,0.381c-0.054,0.274-0.107,0.548-0.157,0.82
			c-0.02,0.109-0.038,0.218-0.057,0.327c-0.051,0.291-0.101,0.581-0.147,0.871c-0.013,0.081-0.024,0.163-0.037,0.244
			c-0.048,0.314-0.095,0.628-0.138,0.939c-0.007,0.047-0.012,0.094-0.019,0.141c-0.559,4.161-0.634,8.152-0.557,11.795
			c0.025,1.182,0.065,2.329,0.11,3.432c68.712-91.969,327.859-21.426,405.277,2.941c77.701,24.457,115.002,53.118,96.884,98.541
			c-11.844,29.689-30.752,56.346-41.949,84.413c-5.937,14.879-10.47,33.073-9.106,46.492c1.362,13.419,5.296,19.567,9.409,27.53
			c57.163,110.672,292.503-16.817,378.771-94.273c0.007-0.007,0.015-0.014,0.021-0.02c0.452-0.406,0.896-0.81,1.34-1.213
			c0.001-0.001,0.002-0.002,0.003-0.004c0.247-0.224,0.499-0.449,0.743-0.673C1273.775,1264.555,1272.131,1265.7,1270.135,1267.088z
			"/>
		<path fill="#FFFFFF" d="M467.638,1016.005c0.695-26.006,37.861-37.363,80.561-44.379c21.883-3.595,18.945,0.032,65.846-8.75
			s52.346-6.693,78.832-35.243c26.485-28.551,25.642-76.158,19.021-118.189c-4.998-31.721-12.395-64.871-10.93-99.284
			c2.782-65.333,55.072-113.654,114.358-165.667c52.423-45.991,110.315-94.87,144.287-160.941
			c18.591-44.983,26.651-90.55,29.343-130.527c0,0,0-0.001,0-0.002c0.064-0.956,0.125-1.907,0.183-2.856
			c0.019-0.304,0.036-0.605,0.055-0.908c0.104-1.753,0.199-3.495,0.283-5.225c0.009-0.187,0.019-0.375,0.028-0.562
			c0.14-2.951,0.252-5.867,0.338-8.746c0.006-0.173,0.011-0.346,0.016-0.519c0.084-2.913,0.143-5.786,0.175-8.618
			c0.001-0.073,0.002-0.146,0.003-0.22c0.018-1.542,0.024-3.066,0.028-4.583c0.001-0.428,0.001-0.854,0.001-1.279
			c-0.001-1.282-0.006-2.554-0.016-3.817c-0.002-0.233-0.002-0.469-0.004-0.702c-0.015-1.554-0.036-3.091-0.063-4.615
			c-0.003-0.155-0.007-0.308-0.01-0.463c-0.027-1.448-0.062-2.881-0.1-4.301c-0.003-0.077-0.004-0.156-0.006-0.233l0.003,0.007
			c-0.007-0.252-0.016-0.5-0.023-0.749c-0.02-0.638-0.04-1.27-0.062-1.903c-0.003-0.084-0.005-0.168-0.008-0.252
			c-0.002-0.061-0.004-0.121-0.007-0.181c-0.054-1.586-0.111-3.161-0.179-4.708c-0.002-0.058-0.005-0.116-0.007-0.173
			c-0.02-0.439-0.042-0.868-0.062-1.304c-0.017-0.349-0.033-0.695-0.05-1.042c-0.018-0.371-0.034-0.749-0.053-1.118
			c-0.008-0.156-0.015-0.314-0.023-0.47c-0.02-0.373-0.041-0.737-0.061-1.108c-0.021-0.396-0.042-0.792-0.064-1.185
			c-0.018-0.314-0.034-0.633-0.052-0.945c-0.012-0.196-0.022-0.395-0.034-0.59c-0.021-0.365-0.045-0.721-0.066-1.083
			c-0.03-0.483-0.06-0.965-0.09-1.443c-0.013-0.189-0.023-0.383-0.036-0.571c-0.013-0.21-0.026-0.421-0.04-0.63
			c-0.067-1.008-0.137-2.003-0.207-2.99c-0.016-0.213-0.031-0.427-0.047-0.64c-0.03-0.417-0.063-0.823-0.095-1.236
			c-0.027-0.363-0.054-0.726-0.082-1.085c-0.016-0.192-0.029-0.39-0.045-0.581c-0.017-0.209-0.033-0.418-0.05-0.626
			c-0.009-0.116-0.02-0.229-0.028-0.345c-0.047-0.573-0.095-1.14-0.142-1.705c-0.022-0.261-0.044-0.527-0.065-0.786
			c-0.017-0.192-0.034-0.382-0.051-0.574c-0.021-0.245-0.043-0.482-0.064-0.726c-0.044-0.487-0.087-0.972-0.131-1.452
			c-0.019-0.204-0.037-0.414-0.056-0.616c-0.016-0.169-0.032-0.336-0.048-0.504c-0.088-0.933-0.177-1.856-0.267-2.765
			c-0.014-0.133-0.027-0.263-0.04-0.395c-0.095-0.941-0.19-1.873-0.288-2.787c-0.007-0.06-0.013-0.119-0.02-0.179
			c-0.016-0.149-0.032-0.292-0.048-0.44c-0.059-0.542-0.117-1.076-0.177-1.608c-0.063-0.572-0.127-1.137-0.191-1.698
			c-0.001-0.011-0.003-0.022-0.004-0.033c-0.031-0.271-0.063-0.537-0.094-0.806c-0.021-0.18-0.041-0.36-0.063-0.538
			c-0.046-0.39-0.092-0.778-0.138-1.162c-0.058-0.48-0.116-0.953-0.174-1.423c-0.031-0.255-0.063-0.504-0.095-0.757
			c-0.036-0.288-0.072-0.577-0.108-0.861c-0.057-0.451-0.114-0.899-0.172-1.342c-0.041-0.319-0.083-0.635-0.124-0.949
			c-0.005-0.039-0.01-0.078-0.016-0.117c-0.068-0.515-0.137-1.022-0.205-1.525c-0.055-0.406-0.11-0.806-0.165-1.203
			c-0.033-0.236-0.065-0.474-0.099-0.707c-0.016-0.113-0.031-0.227-0.048-0.339c-0.013-0.091-0.025-0.179-0.038-0.27
			c-0.043-0.303-0.086-0.604-0.129-0.902c-0.073-0.505-0.146-1.002-0.218-1.491c-0.017-0.109-0.032-0.224-0.049-0.332
			c-0.006-0.039-0.012-0.08-0.017-0.118c-0.063-0.418-0.125-0.824-0.187-1.229c-0.023-0.153-0.046-0.305-0.069-0.456
			c-0.005-0.028-0.009-0.056-0.013-0.083c-0.013-0.082-0.024-0.162-0.037-0.243c-0.015-0.097-0.03-0.194-0.044-0.288
			c-0.016-0.096-0.029-0.185-0.044-0.28c-0.07-0.45-0.14-0.891-0.209-1.325c-0.023-0.149-0.048-0.303-0.071-0.45
			c-0.006-0.034-0.011-0.07-0.017-0.104c-0.055-0.338-0.108-0.669-0.161-0.997c-0.023-0.141-0.046-0.276-0.068-0.415
			c-0.013-0.074-0.025-0.149-0.037-0.222c-0.022-0.135-0.045-0.272-0.066-0.405c-0.066-0.398-0.132-0.784-0.196-1.165
			c-0.005-0.028-0.01-0.056-0.015-0.085c-0.035-0.209-0.071-0.419-0.105-0.623c-0.004-0.02-0.007-0.04-0.011-0.06
			c-0.045-0.262-0.09-0.521-0.134-0.775c-0.019-0.104-0.035-0.202-0.054-0.304c-0.039-0.221-0.077-0.44-0.115-0.654
			c-0.014-0.079-0.028-0.162-0.042-0.24c-0.042-0.236-0.083-0.463-0.124-0.691c-0.003-0.014-0.005-0.027-0.008-0.041
			c-0.041-0.229-0.082-0.455-0.123-0.676c-0.003-0.017-0.006-0.035-0.009-0.051c-0.039-0.213-0.078-0.426-0.116-0.631
			c-0.009-0.047-0.018-0.097-0.026-0.144c-0.043-0.231-0.085-0.455-0.127-0.675c-0.014-0.071-0.027-0.147-0.04-0.217
			c-0.029-0.152-0.058-0.3-0.085-0.447c-0.002-0.01-0.004-0.019-0.006-0.029c-0.044-0.23-0.087-0.449-0.129-0.666
			c-0.02-0.101-0.04-0.211-0.059-0.309c-0.017-0.084-0.032-0.162-0.048-0.244c-0.002-0.007-0.003-0.012-0.004-0.019
			c-0.043-0.218-0.084-0.423-0.124-0.626c-0.012-0.062-0.025-0.129-0.037-0.189c-0.018-0.088-0.036-0.178-0.053-0.264
			c-0.002-0.007-0.003-0.014-0.005-0.021c-0.04-0.203-0.078-0.388-0.116-0.573c-0.015-0.075-0.032-0.16-0.047-0.232
			c-0.007-0.035-0.014-0.065-0.021-0.1c-0.007-0.035-0.014-0.068-0.021-0.102c-0.035-0.168-0.067-0.323-0.099-0.474
			c-0.012-0.055-0.023-0.111-0.035-0.168c-0.007-0.031-0.014-0.064-0.02-0.094c-0.001-0.002-0.001-0.004-0.002-0.006
			c-0.04-0.193-0.077-0.363-0.111-0.522c-0.004-0.019-0.009-0.044-0.013-0.063c-0.004-0.017-0.008-0.037-0.012-0.054
			c-0.004-0.019-0.007-0.031-0.011-0.05c-0.036-0.167-0.069-0.32-0.097-0.443c0.046,0.396,0.093,0.813,0.14,1.242
			c0.007,0.063,0.015,0.126,0.021,0.19c0.004,0.033,0.007,0.069,0.011,0.103c0.016,0.138,0.031,0.286,0.047,0.427
			c0.021,0.202,0.043,0.4,0.065,0.608c0.014,0.13,0.027,0.26,0.041,0.393c0.004,0.033,0.008,0.065,0.011,0.099
			c0.001,0.005,0.001,0.01,0.002,0.015c0.021,0.198,0.041,0.401,0.062,0.604c0.016,0.147,0.03,0.289,0.046,0.439
			c0.01,0.099,0.02,0.194,0.03,0.294c0.009,0.091,0.019,0.19,0.027,0.283c0.024,0.245,0.05,0.496,0.074,0.749
			c0.017,0.173,0.033,0.337,0.051,0.514c0.008,0.086,0.017,0.178,0.024,0.266c0.01,0.102,0.02,0.209,0.029,0.312
			c0.025,0.263,0.051,0.529,0.075,0.799c0.007,0.073,0.014,0.143,0.021,0.216c0.019,0.201,0.037,0.406,0.056,0.61
			c0.011,0.121,0.021,0.245,0.032,0.367c0.02,0.221,0.039,0.439,0.06,0.664c0.004,0.046,0.008,0.092,0.012,0.138
			c0.019,0.21,0.036,0.422,0.055,0.636c0.024,0.285,0.049,0.576,0.073,0.868c0.018,0.206,0.034,0.405,0.052,0.614
			c0.01,0.125,0.021,0.252,0.03,0.379c0.001,0.01,0.002,0.021,0.003,0.032c0.074,0.918,0.147,1.875,0.22,2.855
			c0.015,0.202,0.03,0.402,0.045,0.607c0.018,0.247,0.036,0.491,0.054,0.742c0.013,0.18,0.025,0.369,0.038,0.551
			c0.001,0.024,0.003,0.049,0.005,0.074c0.012,0.171,0.023,0.343,0.035,0.515c0.03,0.443,0.061,0.885,0.09,1.339
			c0.004,0.068,0.009,0.139,0.013,0.208c0.001,0.016,0.002,0.031,0.003,0.047c0.012,0.177,0.022,0.357,0.034,0.536
			c0.038,0.6,0.075,1.205,0.111,1.822c0.018,0.288,0.034,0.581,0.051,0.873c0.036,0.619,0.07,1.247,0.104,1.884
			c0.016,0.29,0.03,0.581,0.046,0.875c0.035,0.682,0.068,1.374,0.102,2.075c0.012,0.257,0.024,0.512,0.036,0.772
			c0.036,0.804,0.071,1.621,0.104,2.449c0.007,0.17,0.014,0.337,0.021,0.508c0.122,3.09,0.22,6.346,0.287,9.755
			c0.003,0.154,0.005,0.312,0.009,0.467c0.018,0.977,0.034,1.964,0.047,2.965c0.003,0.206,0.005,0.413,0.008,0.62
			c0.012,0.971,0.021,1.952,0.026,2.945c0.001,0.216,0.003,0.432,0.004,0.648c0.005,1.033,0.007,2.077,0.006,3.133
			c0,0.164,0,0.326,0,0.49c-0.007,3.932-0.059,8.022-0.164,12.262c-0.004,0.147-0.008,0.296-0.012,0.443
			c-0.062,2.387-0.14,4.819-0.236,7.296c-0.003,0.063-0.006,0.126-0.008,0.189c-0.054,1.349-0.112,2.711-0.178,4.086
			c-0.003,0.079-0.007,0.158-0.011,0.236c-0.067,1.41-0.14,2.833-0.22,4.269c-0.001,0.013-0.001,0.025-0.002,0.038
			c-0.489,8.823-1.224,18.135-2.268,27.849c-0.009,0.082-0.018,0.164-0.026,0.246c-0.012,0.113-0.024,0.226-0.036,0.338
			c-4.275,39.368-13.666,85.277-32.703,131.976c-0.559,1.1-1.125,2.195-1.699,3.284c-0.202,0.384-0.41,0.765-0.614,1.147
			c-0.375,0.703-0.748,1.408-1.129,2.106c-0.242,0.443-0.489,0.881-0.732,1.322c-0.352,0.635-0.7,1.271-1.056,1.903
			c-0.261,0.462-0.527,0.919-0.79,1.379c-0.346,0.605-0.689,1.211-1.039,1.813c-0.277,0.475-0.56,0.946-0.839,1.419
			c-0.344,0.582-0.685,1.166-1.033,1.745c-0.291,0.485-0.588,0.966-0.882,1.449c-0.342,0.561-0.682,1.124-1.027,1.682
			c-0.301,0.486-0.607,0.968-0.911,1.452c-0.347,0.553-0.692,1.108-1.043,1.658c-0.306,0.479-0.616,0.954-0.924,1.43
			c-0.354,0.549-0.708,1.1-1.066,1.647c-0.315,0.481-0.636,0.958-0.954,1.438c-0.357,0.537-0.713,1.075-1.073,1.609
			c-0.325,0.483-0.656,0.963-0.984,1.444c-0.36,0.527-0.718,1.054-1.081,1.579c-0.328,0.474-0.66,0.944-0.991,1.416
			c-0.371,0.528-0.74,1.058-1.114,1.584c-0.332,0.468-0.669,0.933-1.005,1.399c-0.376,0.523-0.751,1.047-1.131,1.567
			c-0.34,0.467-0.685,0.931-1.027,1.396c-0.381,0.516-0.76,1.032-1.144,1.546c-0.347,0.464-0.696,0.925-1.045,1.386
			c-0.387,0.511-0.772,1.023-1.161,1.532c-0.353,0.46-0.708,0.918-1.063,1.376c-0.391,0.505-0.78,1.011-1.174,1.514
			c-0.359,0.459-0.722,0.915-1.084,1.373c-0.395,0.499-0.788,0.998-1.186,1.495c-0.364,0.455-0.73,0.907-1.097,1.359
			c-0.401,0.496-0.803,0.993-1.206,1.486c-0.366,0.447-0.734,0.892-1.103,1.337c-0.409,0.496-0.818,0.991-1.23,1.485
			c-0.369,0.442-0.742,0.883-1.113,1.324c-0.415,0.492-0.83,0.984-1.248,1.474c-0.372,0.437-0.747,0.871-1.121,1.307
			c-0.422,0.49-0.844,0.98-1.269,1.469c-0.375,0.431-0.752,0.86-1.129,1.29c-0.429,0.489-0.858,0.978-1.29,1.465
			c-0.377,0.426-0.757,0.851-1.137,1.275c-0.435,0.485-0.868,0.97-1.305,1.453c-0.382,0.423-0.765,0.844-1.148,1.265
			c-0.44,0.483-0.881,0.966-1.323,1.448c-0.381,0.414-0.764,0.827-1.146,1.24c-0.45,0.486-0.901,0.972-1.354,1.456
			c-0.378,0.405-0.759,0.808-1.139,1.211c-0.46,0.487-0.919,0.974-1.381,1.459c-0.382,0.401-0.765,0.801-1.148,1.201
			c-0.462,0.482-0.924,0.963-1.389,1.443c-0.388,0.401-0.776,0.8-1.166,1.2c-0.465,0.478-0.931,0.955-1.398,1.43
			c-0.387,0.394-0.775,0.787-1.163,1.18c-0.476,0.48-0.951,0.959-1.429,1.438c-0.385,0.386-0.771,0.77-1.156,1.155
			c-0.483,0.48-0.966,0.96-1.451,1.438c-0.386,0.381-0.772,0.762-1.16,1.142c-0.488,0.48-0.978,0.958-1.469,1.437
			c-0.383,0.373-0.767,0.746-1.151,1.118c-0.499,0.482-0.999,0.965-1.5,1.446c-0.381,0.366-0.762,0.73-1.144,1.095
			c-0.509,0.487-1.02,0.972-1.53,1.457c-0.372,0.353-0.745,0.705-1.118,1.056c-0.525,0.496-1.052,0.99-1.579,1.484
			c-0.362,0.339-0.725,0.677-1.087,1.015c-0.54,0.503-1.082,1.005-1.624,1.506c-0.355,0.329-0.712,0.658-1.068,0.986
			c-0.548,0.504-1.097,1.007-1.646,1.509c-0.353,0.323-0.706,0.646-1.06,0.967c-0.56,0.509-1.12,1.017-1.682,1.524
			c-0.346,0.313-0.692,0.625-1.039,0.937c-0.57,0.513-1.141,1.025-1.713,1.537c-0.336,0.301-0.673,0.602-1.01,0.902
			c-0.59,0.526-1.182,1.05-1.774,1.574c-0.32,0.283-0.64,0.566-0.96,0.849c-0.607,0.536-1.216,1.07-1.824,1.604
			c-0.309,0.271-0.618,0.542-0.927,0.812c-0.625,0.545-1.25,1.089-1.875,1.633c-0.295,0.256-0.591,0.513-0.887,0.77
			c-0.649,0.562-1.299,1.123-1.95,1.683c-0.266,0.229-0.532,0.458-0.798,0.687c-0.687,0.59-1.374,1.178-2.063,1.766
			c-0.236,0.202-0.472,0.403-0.709,0.605c-0.707,0.602-1.414,1.203-2.122,1.803c-0.222,0.188-0.444,0.376-0.667,0.564
			c-0.745,0.63-1.491,1.259-2.237,1.886c-0.177,0.149-0.354,0.298-0.531,0.447c-0.784,0.659-1.569,1.315-2.354,1.972
			c-0.146,0.122-0.292,0.244-0.438,0.366c-0.842,0.703-1.684,1.404-2.527,2.104c-0.08,0.066-0.16,0.133-0.24,0.2
			c-0.913,0.757-1.827,1.513-2.741,2.268c-0.012,0.01-0.025,0.021-0.037,0.03c-21.123,17.432-42.511,34.063-62.493,50.776
			c-1.998,1.671-3.982,3.343-5.951,5.018c-9.842,8.369-19.29,16.782-28.136,25.348c-0.016,0.016-0.032,0.031-0.048,0.047
			c-0.745,0.722-1.486,1.445-2.222,2.169c-0.043,0.042-0.086,0.084-0.129,0.126c-0.714,0.703-1.424,1.407-2.13,2.112
			c-0.063,0.063-0.125,0.125-0.188,0.188c-0.692,0.692-1.379,1.385-2.062,2.079c-0.073,0.074-0.146,0.148-0.219,0.222
			c-0.669,0.682-1.334,1.364-1.995,2.048c-0.086,0.089-0.174,0.179-0.26,0.268c-0.647,0.67-1.289,1.341-1.927,2.014
			c-0.098,0.104-0.197,0.207-0.295,0.311c-0.626,0.661-1.247,1.323-1.865,1.985c-0.108,0.116-0.216,0.232-0.324,0.348
			c-0.607,0.653-1.208,1.308-1.807,1.963c-0.116,0.126-0.231,0.253-0.347,0.38c-0.588,0.646-1.172,1.294-1.753,1.943
			c-0.121,0.136-0.243,0.271-0.364,0.408c-0.574,0.644-1.144,1.29-1.709,1.936c-0.124,0.142-0.248,0.282-0.371,0.424
			c-0.556,0.638-1.107,1.276-1.654,1.917c-0.133,0.155-0.266,0.311-0.398,0.466c-0.537,0.63-1.07,1.263-1.599,1.896
			c-0.137,0.164-0.273,0.327-0.41,0.491c-0.521,0.627-1.039,1.255-1.552,1.885c-0.14,0.172-0.28,0.344-0.42,0.516
			c-0.506,0.625-1.008,1.25-1.507,1.877c-0.141,0.177-0.281,0.354-0.421,0.531c-0.494,0.625-0.983,1.25-1.468,1.877
			c-0.141,0.182-0.281,0.364-0.421,0.546c-0.479,0.624-0.955,1.248-1.426,1.874c-0.142,0.188-0.283,0.376-0.423,0.564
			c-0.467,0.624-0.93,1.25-1.388,1.876c-0.139,0.19-0.277,0.38-0.415,0.57c-0.455,0.626-0.906,1.254-1.353,1.883
			c-0.138,0.193-0.274,0.388-0.411,0.582c-0.442,0.627-0.88,1.256-1.313,1.886c-0.136,0.198-0.272,0.396-0.407,0.595
			c-0.428,0.627-0.853,1.255-1.272,1.886c-0.136,0.204-0.27,0.407-0.404,0.611c-0.416,0.63-0.828,1.261-1.235,1.894
			c-0.132,0.205-0.262,0.409-0.393,0.614c-0.404,0.633-0.804,1.268-1.199,1.904c-0.129,0.208-0.256,0.416-0.385,0.624
			c-0.391,0.635-0.778,1.271-1.16,1.909c-0.127,0.212-0.252,0.425-0.378,0.638c-0.377,0.637-0.752,1.275-1.12,1.916
			c-0.124,0.215-0.245,0.43-0.368,0.645c-0.365,0.641-0.727,1.282-1.083,1.926c-0.12,0.217-0.238,0.435-0.357,0.653
			c-0.353,0.645-0.702,1.29-1.044,1.937c-0.116,0.219-0.23,0.439-0.345,0.658c-0.34,0.649-0.677,1.3-1.008,1.953
			c-0.111,0.218-0.219,0.438-0.329,0.656c-0.329,0.656-0.654,1.313-0.973,1.974c-0.105,0.218-0.209,0.438-0.313,0.657
			c-0.316,0.662-0.629,1.325-0.936,1.991c-0.101,0.219-0.198,0.438-0.298,0.658c-0.304,0.669-0.605,1.339-0.899,2.012
			c-0.095,0.217-0.187,0.435-0.28,0.652c-0.292,0.678-0.582,1.357-0.864,2.04c-0.089,0.215-0.175,0.431-0.263,0.647
			c-0.279,0.686-0.557,1.373-0.825,2.063c-0.083,0.213-0.164,0.429-0.246,0.643c-0.268,0.696-0.532,1.394-0.789,2.094
			c-0.077,0.208-0.149,0.417-0.225,0.626c-0.255,0.707-0.508,1.416-0.752,2.127c-0.07,0.205-0.137,0.412-0.207,0.617
			c-0.244,0.721-0.484,1.442-0.715,2.167c-0.062,0.192-0.12,0.386-0.18,0.579c-0.232,0.739-0.461,1.478-0.682,2.221
			c-0.055,0.188-0.107,0.376-0.162,0.563c-0.219,0.752-0.435,1.506-0.642,2.263c-0.048,0.174-0.092,0.35-0.139,0.524
			c-0.208,0.773-0.411,1.547-0.605,2.326c-0.04,0.159-0.076,0.32-0.115,0.479c-0.195,0.795-0.386,1.592-0.567,2.393
			c-0.032,0.145-0.062,0.291-0.094,0.436c-0.182,0.818-0.359,1.639-0.526,2.463c-0.025,0.121-0.046,0.244-0.071,0.365
			c-0.17,0.851-0.334,1.704-0.488,2.561c-0.015,0.084-0.028,0.169-0.043,0.253c-0.159,0.896-0.312,1.796-0.453,2.7
			c-0.004,0.028-0.008,0.056-0.012,0.084c-0.242,1.553-0.453,3.118-0.641,4.692c-0.033,0.276-0.056,0.555-0.087,0.832
			c-0.126,1.116-0.252,2.232-0.352,3.36c-0.024,0.264-0.04,0.53-0.063,0.795c-0.142,1.738-0.259,3.487-0.335,5.252
			c-9.037,106.894,30.955,113.383,5.332,197.39c-0.44,1.051-0.919,2.07-1.426,3.069c-0.041,0.08-0.079,0.162-0.12,0.242
			c-0.489,0.949-1.012,1.871-1.56,2.774c-0.07,0.116-0.139,0.234-0.21,0.35c-0.542,0.877-1.114,1.729-1.709,2.563
			c-0.089,0.125-0.178,0.251-0.269,0.375c-0.6,0.822-1.227,1.624-1.877,2.407c-0.098,0.116-0.195,0.232-0.294,0.349
			c-0.665,0.784-1.354,1.549-2.069,2.293c-0.09,0.095-0.183,0.188-0.274,0.281c-0.74,0.759-1.503,1.499-2.293,2.218
			c-0.063,0.058-0.128,0.113-0.192,0.17c-2.565,2.31-5.387,4.416-8.435,6.341c-0.029,0.018-0.057,0.036-0.085,0.054
			c-1.002,0.632-2.03,1.241-3.08,1.835c-0.051,0.028-0.101,0.058-0.151,0.086c-1.047,0.589-2.118,1.158-3.209,1.711
			c-0.048,0.024-0.097,0.049-0.145,0.073c-1.107,0.559-2.236,1.1-3.387,1.623c-0.022,0.01-0.044,0.02-0.066,0.029
			c-17.898,8.126-40.861,12.148-64.441,15.349c-0.017,0.002-0.033,0.004-0.05,0.007c-0.693,0.094-1.387,0.188-2.081,0.279
			c-0.45,0.061-0.901,0.118-1.351,0.178c-2.034,0.27-4.069,0.535-6.105,0.797c-0.441,0.057-0.882,0.113-1.323,0.17
			c-5.849,0.748-11.683,1.481-17.455,2.241c-0.526,0.069-1.052,0.139-1.576,0.209c-1.095,0.146-2.198,0.287-3.287,0.436
			c-0.287,0.039-0.573,0.079-0.86,0.118c-0.582,0.08-1.163,0.16-1.742,0.24c-0.951,0.133-1.899,0.268-2.844,0.403
			c-0.144,0.021-0.287,0.042-0.431,0.063c-0.976,0.142-1.948,0.284-2.917,0.429c-0.083,0.013-0.166,0.025-0.249,0.037
			c-43.602,6.541-79.563,17.365-76.323,55.757C465.256,1005.936,466.154,1010.763,467.638,1016.005z M573.665,941.401
			c-0.256,0.032-0.51,0.065-0.766,0.098C573.154,941.467,573.409,941.434,573.665,941.401z M555.039,943.792
			c-0.432,0.058-0.863,0.114-1.295,0.172C554.175,943.906,554.607,943.85,555.039,943.792z"/>
	</g>
</g>
</svg>
